<svg xmlns="http://www.w3.org/2000/svg" width="24" height="24" viewBox="0 0 24 24"><path d="M17.833 6.595v1.476a.43.43 0 0 1-.435.429h-1.465a.433.433 0 0 1-.434-.429V6.595c0-.237.195-.428.434-.428h1.465a.43.43 0 0 1 .435.428zM12 14.093c1.121 0 2.028-.908 2.028-2.029a2.028 2.028 0 1 0-4.056 0c0 1.121.907 2.029 2.028 2.029zM24 12c0 6.627-5.373 12-12 12S0 18.627 0 12 5.373 0 12 0s12 5.373 12 12zm-5-1.75h-3.953c.316.533.508 1.149.508 1.813a3.564 3.564 0 0 1-7.127 0c0-.665.191-1.281.509-1.813H5v5.996C5 17.767 6.27 19 7.791 19h8.454A2.755 2.755 0 0 0 19 16.246V10.25zm-7.009 4.559a2.748 2.748 0 0 0 2.745-2.746 2.74 2.74 0 0 0-1.614-2.5 2.732 2.732 0 0 0-2.94.437 2.739 2.739 0 0 0-.938 2.063 2.751 2.751 0 0 0 2.747 2.746zM19 7.754A2.755 2.755 0 0 0 16.245 5H9.083v2.917H8.5V5h-.583v2.917h-.584V5.045a2.786 2.786 0 0 0-.583.157v2.715h-.583V5.524A2.738 2.738 0 0 0 5 7.754v1.913h4.359a3.552 3.552 0 0 1 5.263 0H19V7.754z" fill="#0C518A"/></svg>