<?xml version="1.0" encoding="utf-8"?>
<!-- Generator: Adobe Illustrator 23.0.1, SVG Export Plug-In . SVG Version: 6.00 Build 0)  -->
<svg version="1.1" id="Calque_1" xmlns="http://www.w3.org/2000/svg" xmlns:xlink="http://www.w3.org/1999/xlink" x="0px" y="0px"
	 viewBox="0 0 1092.1 185.8" style="enable-background:new 0 0 1092.1 185.8;" xml:space="preserve">
<style type="text/css">
	.st0{fill:#FFFFFF;}
	.st1{fill:#FB394A;stroke:#071F32;stroke-width:2;stroke-linecap:round;stroke-linejoin:round;stroke-miterlimit:10;}
	.st2{fill:none;stroke:#071F32;stroke-width:2;stroke-linecap:round;stroke-linejoin:round;stroke-miterlimit:10;}
	.st3{fill:#071F32;}
	.st4{fill:#31EEF3;stroke:#071F32;stroke-width:2;stroke-linecap:round;stroke-linejoin:round;stroke-miterlimit:10;}
	.st5{fill:#FFFFFF;stroke:#071F32;stroke-width:2;stroke-linecap:round;stroke-linejoin:round;stroke-miterlimit:10;}
	.st6{fill:#FFCD00;stroke:#071F32;stroke-width:2;stroke-linecap:round;stroke-linejoin:round;stroke-miterlimit:10;}
	.st7{fill:#3ECD2E;stroke:#071F32;stroke-width:2;stroke-linecap:round;stroke-linejoin:round;stroke-miterlimit:10;}
	.st8{fill:#FF3300;stroke:#071F32;stroke-width:2;stroke-linecap:round;stroke-linejoin:round;stroke-miterlimit:10;}
	.st9{fill:none;stroke:#071F32;stroke-width:2;stroke-linecap:round;stroke-linejoin:round;}
	.st10{fill:none;stroke:#071F32;stroke-width:2;stroke-linecap:round;stroke-linejoin:round;stroke-dasharray:2.1222,5.3056;}
	.st11{fill:#31EEF3;stroke:#071F32;stroke-miterlimit:10;}
</style>
<path class="st0" d="M940,147c0,0-10.4,10.1-12.6,12c-2.1,1.9-0.5,5.5,2.8,5.5c-2.4,2.7,0.4,8.5,4.5,4.2c0.8,5.4,4.4,5.2,8.4,0
	c1,4.9,4.1,4.5,6,2.6c2-2,9.5-9.4,12.9-13.3c3.5-3.9,6.7-14.7-1.8-21.6c-8.5-6.9-15.1-3.5-20.6,2.1c5.6,5.4,6.9,6.5,9.2,9.2
	c2.4,2.7-0.2,6.9-3.8,4.3C941.6,149.5,940,147,940,147z"/>
<title>services-icons</title>
<g>
	<g>
		<rect x="1.1" y="129.1" class="st1" width="39" height="48"/>
	</g>
	<g>
		<path class="st2" d="M14.5,145.5c0-2.5,1.7-5.9,6.2-5.9s7.5,3.9,5.5,8.3c-1.6,3.5-6.1,5-6.1,10.3"/>
		<circle class="st3" cx="20.1" cy="164.9" r="1.8"/>
	</g>
</g>
<g>
	<path class="st4" d="M96,152.4v-6.8c0-1.9,1.6-3.5,3.5-3.5l0,0c1.9,0,3.5,1.6,3.5,3.5v11.9c0,15.9-10.9,21.5-17.5,21.5
		c-8.2,0-17.5-6.9-17.5-19.6c0,0,0-1.8,0-5.8v-14c0-1.9,2-3.5,3-3.5l0,0c2,0,4,1.6,4,3.5v14v-3v-18c0-1.9,1.6-3.5,3.5-3.5l0,0
		c1.9,0,3.5,1.6,3.5,3.5v17.8v-20.8c0-1.9,1.6-3.5,3.5-3.5l0,0c1.9,0,3.5,1.6,3.5,3.5v17.8v-14.8c0-1.9,1.6-3.5,3.5-3.5l0,0
		c1.9,0,3.5,1.6,3.5,3.5V152.4z"/>
</g>
<g>
	<rect x="133.1" y="129.1" class="st5" width="36" height="7"/>
	<rect x="133.1" y="170.1" class="st5" width="36" height="7"/>
	<rect x="139.1" y="136.1" class="st6" width="24" height="34"/>
	<line class="st2" x1="147.1" y1="136.6" x2="147.1" y2="169.6"/>
	<line class="st2" x1="155.1" y1="136.6" x2="155.1" y2="169.6"/>
</g>
<g>
	<path class="st1" d="M227,180.8c-2.6,4-11.9,4.4-14.4-0.3c-17.4-6.4-13.7-36.5-0.9-45.6c0.9-10.1,8-13.8,12.1-13.8
		c2.2,0,2.7,3.3,2.7,5.6"/>
	<path class="st5" d="M212.4,174.6v-32.9C205.6,147.3,201.5,166.6,212.4,174.6z"/>
	<line class="st2" x1="205.9" y1="162.8" x2="211.9" y2="162.8"/>
	<path class="st5" d="M226.6,169.8c3,0,5.5,2.5,5.5,5.5s-2.5,5.5-5.5,5.5s-5.5-2.5-5.5-5.5C221.1,172.2,223.5,169.8,226.6,169.8z"/>
	<path class="st5" d="M226.6,126.8c3,0,5.5,2.5,5.5,5.5s-2.5,5.5-5.5,5.5s-5.5-2.5-5.5-5.5C221.1,129.2,223.5,126.8,226.6,126.8z"/>
	<line class="st2" x1="226.4" y1="138.3" x2="226.4" y2="169.3"/>
</g>
<g>
	<path class="st5" d="M278.3,158.9v17.5c1.5,1.5,3.5,1.5,5,0v-17.5"/>
	<path class="st7" d="M292.9,143.4c0,8.6-5.4,15.5-12.1,15.5s-12.1-7-12.1-15.5c0-8.6,5.4-15.5,12.1-15.5S292.9,134.8,292.9,143.4z"
		/>
	<line class="st2" x1="291.3" y1="177.4" x2="291.3" y2="171.9"/>
	<path class="st7" d="M293.9,166.4c0,2.5-1.2,4.5-2.6,4.5s-2.6-2-2.6-4.5s1.2-4.5,2.6-4.5C292.7,161.9,293.9,163.9,293.9,166.4z"/>
</g>
<g>
	<circle class="st5" cx="336.7" cy="141.4" r="6.5"/>
	<path class="st6" d="M345.7,167.7v-11.1c0-4.8-3.9-8.7-8.8-8.7l0,0c-4.8,0-8.8,3.9-8.8,8.7v11.1
		C332.6,172.1,340.9,172.5,345.7,167.7z"/>
	<path class="st5" d="M361.9,149.9c0,2.6-2.1,4.6-4.6,4.6c-2.6,0-4.6-2.1-4.6-4.6c0-2.6,2.1-4.6,4.6-4.6
		C359.9,145.2,361.9,147.3,361.9,149.9z"/>
	<path class="st6" d="M363.7,168.7v-8c0-3.4-2.8-6.2-6.2-6.2l0,0c-3.4,0-6.2,2.8-6.2,6.2v8C354.3,171.8,360.3,172.1,363.7,168.7z"/>
</g>
<g>
	<path class="st4" d="M424.5,176.9h-27c-2.2,0-4-1.8-4-4v-40c0-2.2,1.8-4,4-4h27c2.2,0,4,1.8,4,4v40
		C428.5,175.1,426.7,176.9,424.5,176.9z"/>
	<rect x="398.5" y="133.9" class="st5" width="25" height="32"/>
	<circle cx="411" cy="171.4" r="2"/>
</g>
<g>
	<polygon class="st5" points="472.1,156.9 498.1,156.9 498.1,130.9 463.1,130.9 463.1,156.9 	"/>
	<line class="st2" x1="491.1" y1="137.9" x2="478.1" y2="137.9"/>
	<line class="st2" x1="491.1" y1="143.9" x2="478.1" y2="143.9"/>
	<line class="st2" x1="491.1" y1="149.9" x2="478.1" y2="149.9"/>
	<circle class="st5" cx="462.6" cy="144.4" r="6.5"/>
	<path class="st7" d="M471.6,170.7v-11.1c0-4.8-3.9-8.7-8.8-8.7l0,0c-4.8,0-8.8,3.9-8.8,8.7v11.1
		C458.5,175.1,466.9,175.5,471.6,170.7z"/>
</g>
<g>
	<rect x="519.7" y="135.7" class="st4" width="18" height="40"/>
	<rect x="537.7" y="160.7" class="st4" width="25" height="15"/>
	<rect x="525.7" y="166.7" class="st5" width="6" height="9"/>
	<rect x="543.7" y="166.7" class="st5" width="12.9" height="9"/>
	<rect x="519.7" y="140.7" class="st5" width="18" height="5"/>
	<rect x="519.6" y="135.7" class="st5" width="18" height="5"/>
	<rect x="519.7" y="145.7" class="st5" width="18" height="5"/>
	<rect x="519.7" y="150.7" class="st5" width="18" height="5"/>
	<rect x="519.7" y="155.7" class="st5" width="18" height="5"/>
	<rect x="517.7" y="130.7" class="st4" width="22" height="5"/>
	<line class="st2" x1="528.7" y1="160.7" x2="528.7" y2="135.7"/>
	<polygon class="st4" points="537.6,160.7 550.7,148.7 562.6,160.7 	"/>
</g>
<g>
	<path class="st5" d="M684.2,171.3c0,2.3-1.9,4.2-4.2,4.2s-4.2-1.9-4.2-4.2"/>
	<path class="st1" d="M691.8,159.1v-8.2c0-6.2-5.1-11.3-11.3-11.3l0,0c-6.2,0-11.3,5.1-11.3,11.3v8.2l-5,12.2H697L691.8,159.1z"/>
	<line class="st2" x1="663.5" y1="149.9" x2="660.2" y2="149.9"/>
	<line class="st2" x1="680.4" y1="133.9" x2="680.4" y2="130.7"/>
	<line class="st2" x1="668.5" y1="137.9" x2="666.2" y2="135.6"/>
	<line class="st2" x1="692.4" y1="137.9" x2="694.7" y2="135.6"/>
	<line class="st2" x1="700.6" y1="149.9" x2="697.3" y2="149.9"/>
</g>
<g>
	<path class="st7" d="M761.5,145.7v29c0,2.2-1.8,4-4,4h-25c-2.2,0-4-1.8-4-4v-29"/>
	<path class="st5" d="M763.5,144.7v-6c0-2.2-1.8-4-4-4h-29c-2.2,0-4,1.8-4,4v6H763.5z"/>
	<path class="st2" d="M752.5,134.7v-3c0-2.2-1.8-4-4-4h-7c-2.2,0-4,1.8-4,4v3H752.5z"/>
	<line class="st2" x1="745" y1="169.7" x2="745" y2="153.7"/>
	<line class="st2" x1="737" y1="169.7" x2="737" y2="153.7"/>
	<line class="st2" x1="753" y1="169.7" x2="753" y2="153.7"/>
</g>
<g>
	<rect x="792.1" y="170.5" class="st8" width="35" height="5"/>
	<polygon class="st8" points="821.1,162.5 798.1,162.5 796.1,170.5 823.1,170.5 	"/>
	<polygon class="st5" points="819.1,154.5 800.1,154.5 798.1,162.5 821.1,162.5 	"/>
	<polygon class="st8" points="817.1,146.6 802.1,146.6 800.1,154.6 819.1,154.6 	"/>
	<polygon class="st5" points="815.1,138.6 804.1,138.6 802.1,146.6 817.1,146.6 	"/>
	<polygon class="st8" points="813.1,130.7 806.1,130.7 804.1,138.6 815.1,138.6 	"/>
</g>
<g>
	<polygon class="st5" points="1049.1,143.3 1054.7,127.6 1088.2,127.6 1082.6,143.3 	"/>
	<polygon class="st4" points="1056.9,159.1 1049.1,143.3 1082.6,143.3 1090.5,159.1 	"/>
	<rect x="1057" y="159.1" class="st5" width="33.5" height="18"/>
	<g>
		<g>
			<path class="st9" d="M1060.6,135c0.3,0,0.7,0,1,0.1"/>
			<path class="st10" d="M1066.3,137.3c3.9,3.1,6.2,8.9,0.9,14.6c-6.9,7.4-0.7,16,9.7,17.1"/>
			<path class="st9" d="M1079.6,169c0.3,0,0.7,0,1,0"/>
		</g>
	</g>
	<line class="st2" x1="1082.6" y1="143.3" x2="1049.1" y2="143.3"/>
	<line class="st2" x1="1056.9" y1="159.1" x2="1090.5" y2="159.1"/>
</g>
<g>
	<circle class="st5" cx="1005" cy="153.1" r="19.5"/>
</g>
<polygon class="st11" points="1005,144.9 997.2,150.5 1000.2,159.7 1009.9,159.7 1012.9,150.5 "/>
<g>
	<path class="st11" d="M988.4,143c-1.5,1.7-2.3,5-2.4,9.3l5.8-3.8L988.4,143z"/>
	<path class="st11" d="M1010.2,134.8c-1.9-1.2-5.4-1.2-9.6-0.5l4.8,5L1010.2,134.8z"/>
	<path class="st11" d="M1021.3,142.5l-3.1,6.2l5.8,3C1024.5,149.6,1023.4,146.3,1021.3,142.5z"/>
	<path class="st11" d="M1012.1,170.9c2.2-0.3,5-2.5,7.7-5.7l-6.9-0.7L1012.1,170.9z"/>
	<path class="st11" d="M990.3,165c0.8,2.1,3.4,4.4,7.1,6.5l-0.6-6.9L990.3,165z"/>
</g>
<g>
	<polygon class="st7" points="893.2,147.2 880.5,147.2 880.5,134.6 869.3,134.6 869.3,147.2 856.7,147.2 856.7,158.4 869.3,158.4 
		869.3,171.1 880.5,171.1 880.5,158.4 893.2,158.4 	"/>
</g>
<g>
	<path class="st2" d="M946.7,156.8l-10.8,10.8c-1.2,1.2-1.2,3.1,0,4.2l0,0c1.2,1.2,3.1,1.2,4.2,0l10.8-10.8l1.8-1.8l-8.4,8.4
		c-1.2,1.2-0.9,3.3,0.3,4.5l0,0c0.6,0.6,2.7,0.9,3.9-0.3l8.4-8.4c2.4-2.4,3.5-3.5,3.5-3.5c7.7-7.7,6.2-17.4,1.3-22.4
		c-4-4-13.8-8.7-21.5,0.6"/>
	<path class="st2" d="M944.9,158.6l-10.8,10.8c-1.2,1.2-3.1,1.2-4.2,0l0,0c-1.2-1.2-1.2-3.1,0-4.2l11.2-10.8"/>
	<path class="st6" d="M930,169.8l-7.4-6.3c-2.4-2.4-3.5-3.5-3.5-3.5c-7.7-7.7-6.2-17.4-1.3-22.4c4-4,13.9-7.1,23.5,2.4l8,8
		c1.2,1.2,1.2,3.1,0,4.2l0,0c-1.2,1.2-3.1,1.2-4.2,0l-5-5.3l-12.7,12.2c-1.2,1.2-1.2,3.1,0,4.2l0,0c1.2,1.2,3.1,1.2,4.2,0
		C929.9,165.2,927.3,167.6,930,169.8z"/>
</g>
<path class="st1" d="M636.4,149.3h1.5c1.6,0,2.9,1.3,2.9,2.9l0,0c0,1.6-1.3,2.9-2.9,2.9h-1.5"/>
<path class="st1" d="M619.2,135c0,0-36.3,0.1-36.3,0v10.3h4v-1.5c0,0,4.4,0,8.4,0c6.2,0,6.6,5.1,6.6,8.4c0,9.5,7.7,17.2,17.2,17.2
	s17.2-7.7,17.2-17.2S628.7,135,619.2,135z"/>
<circle class="st5" cx="619.2" cy="152.2" r="7"/>
<g>
	<line class="st2" x1="1012.9" y1="150.5" x2="1018.2" y2="148.8"/>
	<line class="st2" x1="1020.6" y1="142.6" x2="1018.2" y2="148.8"/>
	<line class="st2" x1="1023.8" y1="152.4" x2="1018.2" y2="148.8"/>
	<line class="st2" x1="1013.2" y1="164.3" x2="1009.9" y2="159.7"/>
	<line class="st2" x1="1013.2" y1="164.3" x2="1019.8" y2="164.6"/>
	<line class="st2" x1="1013.2" y1="164.3" x2="1011.4" y2="170.7"/>
	<line class="st2" x1="996.9" y1="164.3" x2="998.6" y2="170.7"/>
	<line class="st2" x1="1000.2" y1="159.7" x2="996.9" y2="164.3"/>
	<line class="st2" x1="990.3" y1="164.6" x2="996.9" y2="164.3"/>
	<line class="st2" x1="997.2" y1="150.5" x2="991.9" y2="148.8"/>
	<line class="st2" x1="986.3" y1="152.4" x2="991.9" y2="148.8"/>
	<line class="st2" x1="991.9" y1="148.8" x2="989.5" y2="142.6"/>
	<line class="st2" x1="1005" y1="144.9" x2="1005" y2="139.3"/>
	<line class="st2" x1="999.9" y1="135.1" x2="1005" y2="139.3"/>
	<line class="st2" x1="1010.2" y1="135.1" x2="1005" y2="139.3"/>
	<line class="st2" x1="997.2" y1="150.5" x2="1000.2" y2="159.7"/>
	<line class="st2" x1="1012.9" y1="150.5" x2="1009.9" y2="159.7"/>
	<line class="st2" x1="997.2" y1="150.5" x2="1005" y2="144.9"/>
	<line class="st2" x1="1000.2" y1="159.7" x2="1009.9" y2="159.7"/>
	<line class="st2" x1="1012.9" y1="150.5" x2="1005" y2="144.9"/>
</g>
<path class="st0" d="M940,27c0,0-10.4,10.1-12.6,12c-2.1,1.9-0.5,5.5,2.8,5.5c-2.4,2.7,0.4,8.5,4.5,4.2c0.8,5.4,4.4,5.2,8.4,0
	c1,4.9,4.1,4.5,6,2.6s9.5-9.4,12.9-13.3c3.5-3.9,6.7-14.7-1.8-21.6c-8.5-6.9-15.1-3.5-20.6,2.1c5.6,5.4,6.9,6.5,9.2,9.2
	c2.4,2.7-0.2,6.9-3.8,4.3C941.6,29.5,940,27,940,27z"/>
<g>
	<g>
		<rect x="1.1" y="9.1" class="st1" width="39" height="48"/>
	</g>
	<g>
		<path class="st2" d="M14.5,25.5c0-2.5,1.7-5.9,6.2-5.9s7.5,3.9,5.5,8.3c-1.6,3.5-6.1,5-6.1,10.3"/>
		<circle class="st3" cx="20.1" cy="44.9" r="1.8"/>
	</g>
</g>
<g>
	<path class="st4" d="M96,32.4v-6.8c0-1.9,1.6-3.5,3.5-3.5l0,0c1.9,0,3.5,1.6,3.5,3.5v11.9C103,53.4,92.1,59,85.5,59
		C77.3,59,68,52.1,68,39.4c0,0,0-1.8,0-5.8v-14c0-1.9,2-3.5,3-3.5l0,0c2,0,4,1.6,4,3.5v14v-3v-18c0-1.9,1.6-3.5,3.5-3.5l0,0
		c1.9,0,3.5,1.6,3.5,3.5v17.8V9.6c0-1.9,1.6-3.5,3.5-3.5l0,0c1.9,0,3.5,1.6,3.5,3.5v17.8V12.6c0-1.9,1.6-3.5,3.5-3.5l0,0
		c1.9,0,3.5,1.6,3.5,3.5V32.4z"/>
</g>
<g>
	<rect x="133.1" y="9.1" class="st5" width="36" height="7"/>
	<rect x="133.1" y="50.1" class="st5" width="36" height="7"/>
	<rect x="139.1" y="16.1" class="st6" width="24" height="34"/>
	<line class="st2" x1="147.1" y1="16.6" x2="147.1" y2="49.6"/>
	<line class="st2" x1="155.1" y1="16.6" x2="155.1" y2="49.6"/>
</g>
<g>
	<path class="st1" d="M227,60.8c-2.6,4-11.9,4.4-14.4-0.3c-17.4-6.4-13.7-36.5-0.9-45.6c0.9-10.1,8-13.8,12.1-13.8
		c2.2,0,2.7,3.3,2.7,5.6"/>
	<path class="st5" d="M212.4,54.6V21.7C205.6,27.3,201.5,46.6,212.4,54.6z"/>
	<line class="st2" x1="205.9" y1="42.8" x2="211.9" y2="42.8"/>
	<path class="st5" d="M226.6,49.8c3,0,5.5,2.5,5.5,5.5s-2.5,5.5-5.5,5.5s-5.5-2.5-5.5-5.5C221.1,52.2,223.5,49.8,226.6,49.8z"/>
	<path class="st5" d="M226.6,6.8c3,0,5.5,2.5,5.5,5.5s-2.5,5.5-5.5,5.5s-5.5-2.5-5.5-5.5C221.1,9.2,223.5,6.8,226.6,6.8z"/>
	<line class="st2" x1="226.4" y1="18.3" x2="226.4" y2="49.3"/>
</g>
<g>
	<path class="st5" d="M278.3,38.9v17.5c1.5,1.5,3.5,1.5,5,0V38.9"/>
	<path class="st7" d="M292.9,23.4c0,8.6-5.4,15.5-12.1,15.5s-12.1-7-12.1-15.5c0-8.6,5.4-15.5,12.1-15.5S292.9,14.8,292.9,23.4z"/>
	<line class="st2" x1="291.3" y1="57.4" x2="291.3" y2="51.9"/>
	<path class="st7" d="M293.9,46.4c0,2.5-1.2,4.5-2.6,4.5s-2.6-2-2.6-4.5s1.2-4.5,2.6-4.5C292.7,41.9,293.9,43.9,293.9,46.4z"/>
</g>
<g>
	<circle class="st5" cx="336.7" cy="21.4" r="6.5"/>
	<path class="st6" d="M345.7,47.7V36.6c0-4.8-3.9-8.7-8.8-8.7l0,0c-4.8,0-8.8,3.9-8.8,8.7v11.1C332.6,52.1,340.9,52.5,345.7,47.7z"
		/>
	<path class="st5" d="M361.9,29.9c0,2.6-2.1,4.6-4.6,4.6c-2.6,0-4.6-2.1-4.6-4.6c0-2.6,2.1-4.6,4.6-4.6
		C359.9,25.2,361.9,27.3,361.9,29.9z"/>
	<path class="st6" d="M363.7,48.7v-8c0-3.4-2.8-6.2-6.2-6.2l0,0c-3.4,0-6.2,2.8-6.2,6.2v8C354.3,51.8,360.3,52.1,363.7,48.7z"/>
</g>
<g>
	<path class="st4" d="M424.5,56.9h-27c-2.2,0-4-1.8-4-4v-40c0-2.2,1.8-4,4-4h27c2.2,0,4,1.8,4,4v40
		C428.5,55.1,426.7,56.9,424.5,56.9z"/>
	<rect x="398.5" y="13.9" class="st5" width="25" height="32"/>
	<circle cx="411" cy="51.4" r="2"/>
</g>
<g>
	<polygon class="st5" points="472.1,36.9 498.1,36.9 498.1,10.9 463.1,10.9 463.1,36.9 	"/>
	<line class="st2" x1="491.1" y1="17.9" x2="478.1" y2="17.9"/>
	<line class="st2" x1="491.1" y1="23.9" x2="478.1" y2="23.9"/>
	<line class="st2" x1="491.1" y1="29.9" x2="478.1" y2="29.9"/>
	<circle class="st5" cx="462.6" cy="24.4" r="6.5"/>
	<path class="st7" d="M471.6,50.7V39.6c0-4.8-3.9-8.7-8.8-8.7l0,0c-4.8,0-8.8,3.9-8.8,8.7v11.1C458.5,55.1,466.9,55.5,471.6,50.7z"
		/>
</g>
<g>
	<rect x="519.7" y="15.7" class="st4" width="18" height="40"/>
	<rect x="537.7" y="40.7" class="st4" width="25" height="15"/>
	<rect x="525.7" y="46.7" class="st5" width="6" height="9"/>
	<rect x="543.7" y="46.7" class="st5" width="12.9" height="9"/>
	<rect x="519.7" y="20.7" class="st5" width="18" height="5"/>
	<rect x="519.6" y="15.7" class="st5" width="18" height="5"/>
	<rect x="519.7" y="25.7" class="st5" width="18" height="5"/>
	<rect x="519.7" y="30.7" class="st5" width="18" height="5"/>
	<rect x="519.7" y="35.7" class="st5" width="18" height="5"/>
	<rect x="517.7" y="10.7" class="st4" width="22" height="5"/>
	<line class="st2" x1="528.7" y1="40.7" x2="528.7" y2="15.7"/>
	<polygon class="st4" points="537.6,40.7 550.7,28.7 562.6,40.7 	"/>
</g>
<g>
	<path class="st5" d="M684.2,51.3c0,2.3-1.9,4.2-4.2,4.2s-4.2-1.9-4.2-4.2"/>
	<path class="st1" d="M691.8,39.1v-8.2c0-6.2-5.1-11.3-11.3-11.3l0,0c-6.2,0-11.3,5.1-11.3,11.3v8.2l-5,12.2H697L691.8,39.1z"/>
	<line class="st2" x1="663.5" y1="29.9" x2="660.2" y2="29.9"/>
	<line class="st2" x1="680.4" y1="13.9" x2="680.4" y2="10.7"/>
	<line class="st2" x1="668.5" y1="17.9" x2="666.2" y2="15.6"/>
	<line class="st2" x1="692.4" y1="17.9" x2="694.7" y2="15.6"/>
	<line class="st2" x1="700.6" y1="29.9" x2="697.3" y2="29.9"/>
</g>
<g>
	<path class="st7" d="M761.5,25.7v29c0,2.2-1.8,4-4,4h-25c-2.2,0-4-1.8-4-4v-29"/>
	<path class="st5" d="M763.5,24.7v-6c0-2.2-1.8-4-4-4h-29c-2.2,0-4,1.8-4,4v6H763.5z"/>
	<path class="st2" d="M752.5,14.7v-3c0-2.2-1.8-4-4-4h-7c-2.2,0-4,1.8-4,4v3H752.5z"/>
	<line class="st2" x1="745" y1="49.7" x2="745" y2="33.7"/>
	<line class="st2" x1="737" y1="49.7" x2="737" y2="33.7"/>
	<line class="st2" x1="753" y1="49.7" x2="753" y2="33.7"/>
</g>
<g>
	<rect x="792.1" y="50.5" class="st8" width="35" height="5"/>
	<polygon class="st8" points="821.1,42.5 798.1,42.5 796.1,50.5 823.1,50.5 	"/>
	<polygon class="st5" points="819.1,34.5 800.1,34.5 798.1,42.5 821.1,42.5 	"/>
	<polygon class="st8" points="817.1,26.6 802.1,26.6 800.1,34.6 819.1,34.6 	"/>
	<polygon class="st5" points="815.1,18.6 804.1,18.6 802.1,26.6 817.1,26.6 	"/>
	<polygon class="st8" points="813.1,10.7 806.1,10.7 804.1,18.6 815.1,18.6 	"/>
</g>
<g>
	<polygon class="st5" points="1049.1,23.3 1054.7,7.6 1088.2,7.6 1082.6,23.3 	"/>
	<polygon class="st4" points="1056.9,39.1 1049.1,23.3 1082.6,23.3 1090.5,39.1 	"/>
	<rect x="1057" y="39.1" class="st5" width="33.5" height="18"/>
	<g>
		<g>
			<path class="st9" d="M1060.6,15c0.3,0,0.7,0,1,0.1"/>
			<path class="st10" d="M1066.3,17.3c3.9,3.1,6.2,8.9,0.9,14.6c-6.9,7.4-0.7,16,9.7,17.1"/>
			<path class="st9" d="M1079.6,49c0.3,0,0.7,0,1,0"/>
		</g>
	</g>
	<line class="st2" x1="1082.6" y1="23.3" x2="1049.1" y2="23.3"/>
	<line class="st2" x1="1056.9" y1="39.1" x2="1090.5" y2="39.1"/>
</g>
<g>
	<circle class="st5" cx="1005" cy="33.1" r="19.5"/>
</g>
<polygon class="st11" points="1005,24.9 997.2,30.5 1000.2,39.7 1009.9,39.7 1012.9,30.5 "/>
<g>
	<path class="st11" d="M988.4,23c-1.5,1.7-2.3,5-2.4,9.3l5.8-3.8L988.4,23z"/>
	<path class="st11" d="M1010.2,14.8c-1.9-1.2-5.4-1.2-9.6-0.5l4.8,5L1010.2,14.8z"/>
	<path class="st11" d="M1021.3,22.5l-3.1,6.2l5.8,3C1024.5,29.6,1023.4,26.3,1021.3,22.5z"/>
	<path class="st11" d="M1012.1,50.9c2.2-0.3,5-2.5,7.7-5.7l-6.9-0.7L1012.1,50.9z"/>
	<path class="st11" d="M990.3,45c0.8,2.1,3.4,4.4,7.1,6.5l-0.6-6.9L990.3,45z"/>
</g>
<g>
	<polygon class="st7" points="893.2,27.2 880.5,27.2 880.5,14.6 869.3,14.6 869.3,27.2 856.7,27.2 856.7,38.4 869.3,38.4 
		869.3,51.1 880.5,51.1 880.5,38.4 893.2,38.4 	"/>
</g>
<g>
	<path class="st2" d="M946.7,36.8l-10.8,10.8c-1.2,1.2-1.2,3.1,0,4.2l0,0c1.2,1.2,3.1,1.2,4.2,0L950.9,41l1.8-1.8l-8.4,8.4
		c-1.2,1.2-0.9,3.3,0.3,4.5l0,0c0.6,0.6,2.7,0.9,3.9-0.3l8.4-8.4c2.4-2.4,3.5-3.5,3.5-3.5c7.7-7.7,6.2-17.4,1.3-22.4
		c-4-4-13.8-8.7-21.5,0.6"/>
	<path class="st2" d="M944.9,38.6l-10.8,10.8c-1.2,1.2-3.1,1.2-4.2,0l0,0c-1.2-1.2-1.2-3.1,0-4.2l11.2-10.8"/>
	<path class="st6" d="M930,49.8l-7.4-6.3c-2.4-2.4-3.5-3.5-3.5-3.5c-7.7-7.7-6.2-17.4-1.3-22.4c4-4,13.9-7.1,23.5,2.4l8,8
		c1.2,1.2,1.2,3.1,0,4.2l0,0c-1.2,1.2-3.1,1.2-4.2,0l-5-5.3l-12.7,12.2c-1.2,1.2-1.2,3.1,0,4.2l0,0c1.2,1.2,3.1,1.2,4.2,0
		C929.9,45.2,927.3,47.6,930,49.8z"/>
</g>
<path class="st1" d="M636.4,29.3h1.5c1.6,0,2.9,1.3,2.9,2.9l0,0c0,1.6-1.3,2.9-2.9,2.9h-1.5"/>
<path class="st1" d="M619.2,15c0,0-36.3,0.1-36.3,0v10.3h4v-1.5c0,0,4.4,0,8.4,0c6.2,0,6.6,5.1,6.6,8.4c0,9.5,7.7,17.2,17.2,17.2
	s17.2-7.7,17.2-17.2S628.7,15,619.2,15z"/>
<circle class="st5" cx="619.2" cy="32.2" r="7"/>
<g>
	<line class="st2" x1="1012.9" y1="30.5" x2="1018.2" y2="28.8"/>
	<line class="st2" x1="1020.6" y1="22.6" x2="1018.2" y2="28.8"/>
	<line class="st2" x1="1023.8" y1="32.4" x2="1018.2" y2="28.8"/>
	<line class="st2" x1="1013.2" y1="44.3" x2="1009.9" y2="39.7"/>
	<line class="st2" x1="1013.2" y1="44.3" x2="1019.8" y2="44.6"/>
	<line class="st2" x1="1013.2" y1="44.3" x2="1011.4" y2="50.7"/>
	<line class="st2" x1="996.9" y1="44.3" x2="998.6" y2="50.7"/>
	<line class="st2" x1="1000.2" y1="39.7" x2="996.9" y2="44.3"/>
	<line class="st2" x1="990.3" y1="44.6" x2="996.9" y2="44.3"/>
	<line class="st2" x1="997.2" y1="30.5" x2="991.9" y2="28.8"/>
	<line class="st2" x1="986.3" y1="32.4" x2="991.9" y2="28.8"/>
	<line class="st2" x1="991.9" y1="28.8" x2="989.5" y2="22.6"/>
	<line class="st2" x1="1005" y1="24.9" x2="1005" y2="19.3"/>
	<line class="st2" x1="999.9" y1="15.1" x2="1005" y2="19.3"/>
	<line class="st2" x1="1010.2" y1="15.1" x2="1005" y2="19.3"/>
	<line class="st2" x1="997.2" y1="30.5" x2="1000.2" y2="39.7"/>
	<line class="st2" x1="1012.9" y1="30.5" x2="1009.9" y2="39.7"/>
	<line class="st2" x1="997.2" y1="30.5" x2="1005" y2="24.9"/>
	<line class="st2" x1="1000.2" y1="39.7" x2="1009.9" y2="39.7"/>
	<line class="st2" x1="1012.9" y1="30.5" x2="1005" y2="24.9"/>
</g>
</svg>
