<?xml version="1.0" encoding="utf-8"?>
<!-- Generator: Adobe Illustrator 22.1.0, SVG Export Plug-In . SVG Version: 6.00 Build 0)  -->
<svg version="1.1" id="Calque_1" xmlns="http://www.w3.org/2000/svg" xmlns:xlink="http://www.w3.org/1999/xlink" x="0px" y="0px"
	 viewBox="0 0 1092.1 185.8" style="enable-background:new 0 0 1092.1 185.8;" xml:space="preserve">
<style type="text/css">
	.st0{fill:#FFFFFF;}
	.st1{fill:#FF8285;}
	.st2{fill:#50D6EB;}
	.st3{fill:#FFD36B;}
	.st4{fill:#60C491;}
	.st5{fill:#E0F3F7;}
</style>
<title>services-icons</title>
<path class="st0" d="M40.5,7.4h-39C0.7,7.4,0,8.1,0,8.9v48c0,0.8,0.7,1.5,1.5,1.5h39c0.8,0,1.5-0.7,1.5-1.5v-48
	C42,8.1,41.3,7.4,40.5,7.4z M39,55.4H3v-45h36V55.4z"/>
<path class="st0" d="M14.8,26.7c0.8,0,1.5-0.7,1.5-1.5c0-2.4,1.9-4.4,4.3-4.4c0.1,0,0.3,0,0.4,0c1.6-0.1,3.1,0.7,4,2
	c0.8,1.3,0.8,2.9,0.1,4.2c-0.6,1.1-1.4,2.1-2.3,3c-1.7,1.8-3.9,4-3.9,7.8c0,0.8,0.7,1.5,1.5,1.5s1.5-0.7,1.5-1.5c0-2.6,1.4-4,3-5.7
	c1.2-1.1,2.2-2.4,2.9-3.9c1.1-2.3,1-4.9-0.3-7.1c-1.5-2.1-4-3.4-6.6-3.3c-4-0.2-7.5,2.8-7.7,6.8c0,0.2,0,0.4,0,0.6
	C13.3,26,14,26.7,14.8,26.7z"/>
<path class="st0" d="M20.4,42.9c-1,0-1.8,0.8-1.8,1.8s0.8,1.8,1.8,1.8s1.8-0.8,1.8-1.8l0,0C22.2,43.7,21.4,42.9,20.4,42.9L20.4,42.9
	z"/>
<path class="st0" d="M86,60.8c-9.3,0-19-7.9-19-21.1V20c0-2.7,2.1-4.9,4.8-5c0.8,0,1.5,0.2,2.2,0.5V13c0-2.8,2.2-5,5-5
	c0.8,0,1.5,0.2,2.2,0.5C81.9,6.4,83.8,5,86,5s4.1,1.4,4.8,3.5C91.5,8.2,92.2,8,93,8c2.7,0,5,2.3,5,5v8.4c0.6-0.3,1.3-0.4,2-0.4
	c2.7,0,5,2.3,5,5v11.9C105,54.7,93.3,60.8,86,60.8z M71.8,18c-1,0.1-1.8,1-1.8,2v19.8c0,11.3,8.1,18.1,16,18.1c11.7,0,16-12.3,16-20
	V26c0-1.1-0.9-2-2-2s-2,0.9-2,2v6.8c0,0.8-0.7,1.5-1.5,1.5S95,33.6,95,32.8V13c0-1.1-0.9-2-2-2s-2,0.9-2,2v14.8
	c0,0.8-0.7,1.5-1.5,1.5S88,28.6,88,27.8l0,0V10c0-1.1-0.9-2-2-2s-2,0.9-2,2v20.8c0,0.8-0.7,1.5-1.5,1.5S81,31.6,81,30.8V13
	c0-1.1-0.9-2-2-2s-2,0.9-2,2v21c0,0.8-0.7,1.5-1.5,1.5S74,34.8,74,34V20C73.9,18.8,73,18,71.8,18z"/>
<path class="st0" d="M170.5,58.4h-39v-10h6v-31h-6v-10h39v10h-6v31h6V58.4z M134.5,55.4h33v-4h-33V55.4z M156.5,48.4h5v-31h-5V48.4z
	 M148.5,48.4h5v-31h-5V48.4z M140.5,48.4h5v-31h-5V48.4z M164.5,14.4h3v-4h-33v4H164.5z"/>
<path class="st0" d="M219.3,65.8h-0.6c-3.3-0.1-6.1-1.5-7.5-3.7c-6.6-2.6-10.9-8.7-12-17.2c-1.5-11.6,3-24.5,10.7-30.4
	C211.1,3.9,218.8,0,223.4,0c2.4,0,3.9,2.1,4.1,5.8c3.2,0.7,5.5,3.5,5.5,6.8l0,0c0,2.7-1.5,5.1-3.9,6.3c-0.1,0-0.2,0.1-0.3,0.1v30.2
	c2.6,1.1,4.2,3.7,4.2,6.5l0,0c0,3.3-2.4,6.2-5.7,6.8C225.8,64.6,222.7,65.8,219.3,65.8z M223.4,3c-3.7,0-9.8,3.4-10.6,12.4
	c-0.1,0.4-0.3,0.8-0.6,1.1c-7,5-11.4,17.3-10,28c0.6,4.4,2.7,12.1,10.6,15c0.3,0.1,0.6,0.4,0.8,0.7c0.8,1.5,2.8,2.5,5.3,2.6
	c1.5,0.1,2.9-0.1,4.3-0.7c-3.5-1.6-5.1-5.7-3.6-9.2c1.1-2.5,3.5-4.1,6.3-4.2V19.6c-3.8-0.1-6.8-3.2-6.8-7c0.1-3.2,2.3-6,5.4-6.8
	C224.4,4,223.9,3,223.4,3z M226.1,51.7c-2.2,0-4,1.8-4,4s1.8,4,4,4s4-1.8,4-4l0,0C230.1,53.5,228.3,51.7,226.1,51.7z M226.1,8.6
	c-2.2,0.1-4,1.9-4,4.1c0.1,2.2,1.8,3.9,4,3.9c1.1,0,2.2-0.5,2.9-1.3c0.7-0.7,1.1-1.7,1.1-2.7l0,0C230.1,10.4,228.3,8.6,226.1,8.6
	L226.1,8.6z M211.9,56.5c-0.3,0-0.6-0.1-0.9-0.3c-4-3.1-6.5-7.6-7-12.6c0-0.2-0.1-0.3-0.1-0.5V43c-0.1-0.8-0.2-1.6-0.2-2.4
	c-0.2-7.8,2.8-16.1,7.2-19.8c0.4-0.4,1.1-0.5,1.6-0.2s0.9,0.8,0.9,1.4v33c0,0.6-0.3,1.1-0.8,1.3C212.4,56.4,212.2,56.5,211.9,56.5z
	 M207.2,44.7c0.5,2.5,1.6,4.9,3.2,6.9v-6.9H207.2z M206.8,41.7h3.6V26.2c-2.4,3.7-3.8,9.3-3.7,14.5C206.7,41,206.8,41.4,206.8,41.7
	L206.8,41.7z"/>
<path class="st0" d="M289,10.3c-2.2-2.3-5.3-3.6-8.5-3.6c-7.5,0-13.6,7.6-13.6,17c0,7.6,4,14.1,9.6,16.2v17.2l0.4,0.4
	c0.9,1,2.2,1.6,3.6,1.6s2.6-0.5,3.6-1.5l0.4-0.4V39.9c5.6-2.1,9.6-8.6,9.6-16.3C294.1,18.4,292.3,13.5,289,10.3z M281.5,55.8
	c-0.6,0.4-1.4,0.4-2,0V40.6c0.7,0.1,1.3,0.1,2,0V55.8z M280.5,37.6c-5.8,0-10.6-6.3-10.6-14s4.7-14,10.6-14h0.1c2.4,0,4.7,1,6.3,2.7
	c2.8,3,4.3,7.1,4.2,11.2C291.1,31.3,286.3,37.6,280.5,37.6z"/>
<path class="st0" d="M291,40.5c-2.3,0-4.1,2.6-4.1,6c-0.1,2.2,0.8,4.3,2.6,5.6v5.4h3v-5.4c1.8-1.3,2.7-3.4,2.6-5.6
	C295.1,43.1,293.3,40.5,291,40.5z M291,49.5c-0.3,0-1.1-1.1-1.1-3s0.8-3,1.1-3s1.1,1.1,1.1,3S291.3,49.5,291,49.5z"/>
<path class="st0" d="M361.5,34.2c1.2-1.1,1.9-2.7,1.9-4.3c0-3.4-2.7-6.1-6.1-6.1s-6.1,2.7-6.1,6.1l0,0c0,1.7,0.7,3.3,1.9,4.4
	c-2.1,1.5-3.3,3.9-3.3,6.4v8.6l0.5,0.4c2,1.8,4.5,2.8,7.2,2.8h0.5c2.5,0.1,5-0.9,6.7-2.8l0.4-0.4v-8.6C365,38,363.7,35.6,361.5,34.2
	z M357.4,26.7c1.7,0,3.1,1.4,3.1,3.1c-0.1,1.7-1.4,3-3.1,3.1c-1.7,0-3.1-1.4-3.1-3.1S355.6,26.7,357.4,26.7z M362.1,48
	c-1.3,1.1-2.9,1.6-4.6,1.5c-1.7,0-3.3-0.6-4.7-1.6h0.1v-7.3c0-2.5,2.1-4.6,4.6-4.6s4.6,2.1,4.6,4.6V48z"/>
<path class="st0" d="M342,27.5c3.4-2.8,4-7.8,1.2-11.2s-7.8-4-11.2-1.2c-1.9,1.5-3,3.8-3,6.3s1.2,4.9,3.2,6.4
	c-3.2,1.8-5.2,5.1-5.2,8.8v11.7l0.4,0.4c2.6,2.5,6,3.8,9.6,3.8h0.5c3.5,0.1,6.9-1.3,9.5-3.7l0.5-0.4V36.7
	C347.5,32.8,345.4,29.3,342,27.5z M332,21.2c0-2.8,2.2-5,5-5s5,2.2,5,5c0,2.7-2.1,4.9-4.8,5C334.4,26.3,332.1,24,332,21.2z
	 M344.5,47c-2.1,1.7-4.7,2.6-7.4,2.5c-2.6,0-5.1-0.9-7.1-2.6V36.5c0.1-3.9,3.3-7.1,7.2-7.2c4,0,7.3,3.3,7.3,7.3V47z"/>
<path class="st0" d="M424.5,7.4h-27c-3,0-5.5,2.5-5.5,5.5v40c0,3,2.5,5.5,5.5,5.5h27c3,0,5.5-2.5,5.5-5.5v-40
	C430,9.9,427.5,7.4,424.5,7.4z M427,52.9c0,1.4-1.1,2.5-2.5,2.5l0,0h-27c-1.4,0-2.5-1.1-2.5-2.5l0,0v-40c0-1.4,1.1-2.5,2.5-2.5l0,0
	h27c1.4,0,2.5,1.1,2.5,2.5l0,0V52.9z"/>
<path class="st0" d="M423.5,12.4h-25c-0.8,0-1.5,0.7-1.5,1.5v32c0,0.8,0.7,1.5,1.5,1.5h25c0.8,0,1.5-0.7,1.5-1.5v-32
	C425,13.1,424.3,12.4,423.5,12.4z M422,44.4h-22v-29h22V44.4z"/>
<circle class="st0" cx="411" cy="51.4" r="2.2"/>
<path class="st0" d="M498,9.7h-35.4c-0.8,0-1.5,0.7-1.5,1.5V17c-4,1.1-6.3,5.2-5.2,9.2c0.5,1.8,1.6,3.3,3.1,4.3
	c-3.8,1.6-6.3,5.3-6.4,9.5v11.1c0,0.4,0.1,0.8,0.4,1.1c2.6,2.5,6.1,3.9,9.8,3.9c3.6,0,7.2-1.4,9.8-3.9c0.2-0.3,0.4-0.7,0.4-1.1V39.9
	c0-0.4-0.1-0.8-0.1-1.2H498c0.8,0,1.5-0.7,1.5-1.5v-26C499.5,10.4,498.8,9.7,498,9.7z M458.5,24.2c0-2.5,2-4.5,4.5-4.5
	s4.5,2,4.5,4.5s-2,4.5-4.5,4.5S458.5,26.8,458.5,24.2C458.5,24.3,458.4,24.2,458.5,24.2L458.5,24.2z M470,50.4
	c-4.2,3.5-10.3,3.5-14.5,0V39.9c0.1-4,3.2-7.2,7.2-7.3c4,0,7.3,3.2,7.3,7.2V50.4z M496.5,35.7h-24.4c-1.1-2.3-2.9-4.1-5.2-5.1
	c3.5-2.1,4.7-6.7,2.5-10.3c-1.2-1.9-3.2-3.2-5.4-3.5v-4.1h32.5V35.7z"/>
<path class="st0" d="M491.1,31.1h-13c-0.8,0-1.5-0.7-1.5-1.5s0.7-1.5,1.5-1.5h13c0.8,0,1.5,0.7,1.5,1.5S492,31.1,491.1,31.1z"/>
<path class="st0" d="M491.1,25.1h-13c-0.8,0-1.5-0.7-1.5-1.5s0.7-1.5,1.5-1.5h13c0.8,0,1.5,0.7,1.5,1.5S492,25.1,491.1,25.1z"/>
<path class="st0" d="M491.1,19.1h-13c-0.8,0-1.5-0.7-1.5-1.5s0.7-1.5,1.5-1.5h13c0.8,0,1.5,0.7,1.5,1.5S492,19.1,491.1,19.1z"/>
<path class="st0" d="M564,56.9h-46v-40h-2v-8h25v8h-2v20l11.5-10.6L566,41.9h-2V56.9z M557.9,53.9h3.1v-12h-22v12h3v-9h15.9V53.9z
	 M545,53.9h9.9v-6H545V53.9z M533,53.9h3v-12h-15v12h3v-9h9V53.9z M527,53.9h3v-6h-3V53.9z M541.3,38.9h17.5l-8.3-8.4L541.3,38.9z
	 M530,38.9h6v-2h-6V38.9z M521,38.9h6v-2h-6V38.9z M530,33.9h6v-2h-6V33.9z M521,33.9h6v-2h-6V33.9z M530,28.9h6v-2h-6V28.9z
	 M521,28.9h6v-2h-6V28.9z M530,23.9h6v-2h-6V23.9z M521,23.9h6v-2h-6V23.9z M530,18.9h6v-2h-6V18.9z M521,18.9h6v-2h-6V18.9z
	 M519,13.9h19v-2h-19V13.9z"/>
<path class="st0" d="M692.8,38.2v-8c0-7.1-5.8-12.9-13-12.8c-7.1,0-12.9,5.8-12.8,12.9v7.9l-4.9,11.9c-0.2,0.5-0.1,1,0.1,1.4
	c0.3,0.4,0.7,0.7,1.2,0.7h10.4c0.3,2.9,2.8,5.1,5.7,5.1s5.4-2.2,5.7-5.1h11c0.5,0,1-0.2,1.2-0.7c0.3-0.4,0.3-0.9,0.1-1.4L692.8,38.2
	z M679.6,54.3c-0.9,0-1.7-0.5-2.2-1.2h4.5C681.4,53.8,680.6,54.3,679.6,54.3z M665.7,49.2l4.2-10.1c0.1-0.2,0.1-0.4,0.1-0.6v-8.2
	c0-5.4,4.4-9.8,9.8-9.8c5.4,0,9.8,4.3,10,9.7v8.3c0,0.2,0,0.4,0.1,0.6l4.2,10.1L665.7,49.2z"/>
<path class="st0" d="M667,18.3c0.6,0.6,1.5,0.6,2.1,0s0.6-1.5,0-2.1l0,0l-2.3-2.3c-0.6-0.6-1.5-0.6-2.1,0s-0.6,1.5,0,2.1l0,0
	L667,18.3z"/>
<path class="st0" d="M664.6,29.2c0-0.8-0.7-1.5-1.5-1.5h-3.3c-0.8,0-1.5,0.7-1.5,1.5s0.7,1.5,1.5,1.5h3.3
	C664,30.7,664.6,30,664.6,29.2z"/>
<path class="st0" d="M680,14.8c0.8,0,1.5-0.7,1.5-1.5V10c0-0.8-0.7-1.5-1.5-1.5s-1.5,0.7-1.5,1.5v3.3
	C678.6,14.1,679.2,14.8,680,14.8z"/>
<path class="st0" d="M693,18.3l2.3-2.3c0.6-0.6,0.6-1.5,0-2.1s-1.5-0.6-2.1,0l-2.3,2.3c-0.6,0.6-0.6,1.5,0,2.1S692.5,18.9,693,18.3
	L693,18.3z"/>
<path class="st0" d="M700.2,27.7h-3.3c-0.8,0-1.5,0.7-1.5,1.5s0.7,1.5,1.5,1.5h3.3c0.8,0,1.5-0.7,1.5-1.5S701.1,27.7,700.2,27.7z"/>
<path class="st0" d="M759.5,12.9H754v-1.5c0-3-2.5-5.5-5.5-5.5h-7c-3,0-5.5,2.5-5.5,5.5v1.5h-5.5c-3,0-5.5,2.5-5.5,5.5v6
	c0,0.8,0.7,1.5,1.5,1.5h0.5v28.5c0,3,2.5,5.5,5.5,5.5h25c3,0,5.5-2.5,5.5-5.5V25.9h0.5c0.8,0,1.5-0.7,1.5-1.5v-6
	C765,15.4,762.6,12.9,759.5,12.9z M739,11.4c0-1.4,1.1-2.5,2.5-2.5l0,0h7c1.4,0,2.5,1.1,2.5,2.5l0,0v1.5h-12V11.4z M760,54.4
	c0,1.4-1.1,2.5-2.5,2.5l0,0h-25c-1.4,0-2.5-1.1-2.5-2.5l0,0V25.9h30V54.4z M762,22.9h-34v-4.5c0-1.4,1.1-2.5,2.5-2.5l0,0h29
	c1.4,0,2.5,1.1,2.5,2.5l0,0V22.9z"/>
<path class="st0" d="M745,50.9c0.8,0,1.5-0.7,1.5-1.5v-16c0-0.8-0.7-1.5-1.5-1.5s-1.5,0.7-1.5,1.5v16
	C743.6,50.2,744.2,50.9,745,50.9z"/>
<path class="st0" d="M737,50.9c0.8,0,1.5-0.7,1.5-1.5v-16c0-0.8-0.7-1.5-1.5-1.5s-1.5,0.7-1.5,1.5v16
	C735.6,50.2,736.2,50.9,737,50.9z"/>
<path class="st0" d="M753,50.9c0.8,0,1.5-0.7,1.5-1.5v-16c0-0.8-0.7-1.5-1.5-1.5s-1.5,0.7-1.5,1.5v16
	C751.6,50.2,752.2,50.9,753,50.9z"/>
<path class="st0" d="M827.5,56.8h-35c-0.8,0-1.5-0.7-1.5-1.5v-5c0-0.8,0.7-1.5,1.5-1.5h2.8l1.7-6.9c0-0.1,0.1-0.2,0.1-0.3L801,26
	c0-0.1,0.1-0.2,0.1-0.3l3.9-15.6c0.2-0.7,0.8-1.1,1.5-1.1h7c0.7,0,1.3,0.5,1.5,1.1l3.9,15.6c0,0.1,0.1,0.2,0.1,0.3l3.9,15.6
	c0,0.1,0.1,0.2,0.1,0.3l1.7,6.9h2.8c0.8,0,1.5,0.7,1.5,1.5v5C829,56.1,828.4,56.8,827.5,56.8z M794,53.8h32v-2h-32V53.8z
	 M798.4,48.8h23.2l-1.2-4.9h-20.7L798.4,48.8z M800.4,40.8h19.1l-1.2-4.9h-16.7L800.4,40.8z M802.4,32.9h15.2l-1.2-4.9h-12.7
	L802.4,32.9z M804.4,24.9h11.1l-1.2-4.9h-8.7L804.4,24.9z M806.4,17h7.2l-1.2-5h-4.7L806.4,17z"/>
<path class="st0" d="M880.6,52.7h-11.2c-0.8,0-1.5-0.7-1.5-1.5V40h-11.1c-0.8,0-1.5-0.7-1.5-1.5V27.4c0-0.8,0.7-1.5,1.5-1.5h11.1
	V14.6c0-0.8,0.7-1.5,1.5-1.5h11.2c0.8,0,1.5,0.7,1.5,1.5v11.2h11.1c0.8,0,1.5,0.7,1.5,1.5v11.2c0,0.8-0.7,1.5-1.5,1.5h-11.1v11.1
	C882.1,52,881.5,52.6,880.6,52.7z M870.9,49.7h8.2V38.5c0-0.8,0.7-1.5,1.5-1.5h11.1v-8.2h-11.1c-0.8,0-1.5-0.7-1.5-1.5V16.1h-8.2
	v11.2c0,0.8-0.7,1.5-1.5,1.5h-11.1V37h11.1c0.8,0,1.5,0.7,1.5,1.5V49.7z"/>
<path class="st0" d="M963,16.7c-2.6-2.6-7.5-5.5-12.8-5.2c-4,0.2-7.7,2.1-10.3,5.2c-9.4-7.2-18.8-4.1-22.9,0c-2.9,3-4.5,7-4.5,11.2
	c0,3.4,1,8.4,5.8,13.3l3.5,3.5l0.1,0.1l7.4,6.3c0.3,0.2,0.6,0.3,0.9,0.4c0.7,0.3,1.4,0.5,2.2,0.5c0.6,0,1.2-0.1,1.7-0.4
	c0.2,0.5,0.6,1,1,1.4c0.8,0.9,2,1.3,3.2,1.3h0.1c1.1,0,2.2-0.5,3-1.3l1.4-1.4c0.2,0.6,0.6,1.2,1.1,1.6c0.7,0.7,1.6,1,2.5,1
	c1.3,0.1,2.6-0.3,3.5-1.2l11.9-11.9c3.7-3.5,5.8-8.3,5.8-13.3C967.5,23.7,965.9,19.7,963,16.7z M945.9,51.3L945.9,51.3
	c-0.4-0.3-0.6-0.8-0.6-1.3c0-0.4,0.1-0.8,0.3-1.1l8.4-8.4c0.6-0.6,0.6-1.5,0-2.1s-1.5-0.6-2.1,0l0,0L939.2,51
	c-0.2,0.3-0.6,0.4-0.9,0.4c-0.4,0-0.9-0.2-1.2-0.5c-0.3-0.2-0.4-0.6-0.4-0.9c0-0.4,0.1-0.8,0.4-1.1l10.6-10.6c0.6-0.6,0.6-1.5,0-2.1
	s-1.5-0.6-2.1,0L935,46.8l-0.1,0.1l-1.8,1.8c-0.2,0.3-0.6,0.4-0.9,0.4c-0.8-0.1-1.5-0.7-1.6-1.5c0-0.4,0.2-0.7,0.4-1l10.7-10.4
	c0.6-0.6,0.6-1.5,0-2.1s-1.5-0.6-2.1,0l0,0l-8.9,8.5c-0.6,0.6-1.5,0.6-2,0l0,0c-0.3-0.2-0.4-0.6-0.4-0.9c0-0.4,0.2-0.8,0.4-1.1
	l11.6-11.4l3.9,4.2c0.8,0.9,1.9,1.4,3.1,1.4c1.2,0,2.3-0.5,3.2-1.3s1.4-1.9,1.4-3.1s-0.5-2.4-1.3-3.3l-8-8l-0.4-0.4
	c2-2.5,5-4,8.2-4.2c3.9,0,7.7,1.5,10.5,4.3c4.6,4.7,5.7,13.3-1.3,20.3l-12,11.9C947.1,51.4,946.5,51.5,945.9,51.3L945.9,51.3z
	 M927.9,46l-4-3.4l-3.5-3.5c-6.9-6.9-5.8-15.6-1.3-20.3c6.9-6.9,16.8-2.2,21.4,2.4l8,8c0.3,0.3,0.5,0.7,0.5,1.1s-0.2,0.8-0.5,1
	c-0.3,0.3-0.7,0.5-1.1,0.5c-0.3,0-0.7-0.2-0.9-0.4l-5-5.3c-0.3-0.3-0.7-0.5-1.1-0.5c-0.4,0-0.8,0.1-1.1,0.4l-12.8,12.2
	c-0.9,0.9-1.4,2.1-1.3,3.3c0,1.1,0.5,2.2,1.3,3c0.4,0.4,0.9,0.8,1.5,1C928,45.7,928,45.8,927.9,46L927.9,46z"/>
<path class="st0" d="M1005,53.9c-11.6,0-21-9.4-21-21s9.4-21,21-21s21,9.4,21,21l0,0C1026,44.5,1016.6,53.9,1005,53.9z M1000.1,50.2
	c3.2,0.9,6.6,0.9,9.8,0v-0.1l1.5-5.8l-2.4-3.2h-8.2l-2.4,3.2L1000.1,50.2z M992.5,45.8c1.2,1.2,2.6,2.2,4.2,3l-0.8-3.2L992.5,45.8z
	 M1014.3,45.6l-0.9,3.3c1.6-0.8,3-1.8,4.2-3.1L1014.3,45.6z M987,33.6c0.1,3.3,1.1,6.5,3,9.3h0.2l5.8-0.3l2.5-3.4l-2.5-7.8l-3.9-1.2
	L987,33.6z M1013.9,42.5l6.1,0.3c1.9-2.8,2.9-6,3-9.3c-0.1,0-0.1,0-0.1-0.1l-4.9-3.2l-3.8,1.2l-2.6,7.9L1013.9,42.5z M1001.3,38.1
	h7.5l2.3-7.1l-6.1-4.4l-6,4.4L1001.3,38.1z M988.8,25c-0.7,1.5-1.3,3.1-1.6,4.8l2.7-1.8L988.8,25z M1020,28l2.8,1.8
	c-0.3-1.7-0.8-3.3-1.6-4.8L1020,28z M992.9,27.4l4.1,1.3l6.5-4.7v-4.2l-4.6-3.7c-3.2,1.2-6,3.2-8.1,5.9l0,0L992.9,27.4z
	 M1006.5,23.9l6.5,4.7l3.9-1.3l2.2-5.6c-2.1-2.6-4.9-4.6-8-5.8l-4.6,3.7L1006.5,23.9L1006.5,23.9z M1002.5,15.1l2.5,2l2.5-2
	C1005.9,14.8,1004.2,14.8,1002.5,15.1z"/>
<path class="st0" d="M1091.9,39l-7.5-15.2l5.4-15.2c0.2-0.5,0.1-1-0.2-1.4c-0.3-0.4-0.7-0.6-1.2-0.6H1055c-0.6,0-1.2,0.4-1.4,1
	l-5.6,15.8c-0.1,0.4-0.1,0.8,0.1,1.2l7.6,15.5l-0.1,17.6c0,0.4,0.2,0.8,0.4,1.1c0.3,0.3,0.7,0.4,1.1,0.4h33.5c0.8,0,1.5-0.7,1.5-1.5
	v-18C1092.1,39.5,1092,39.2,1091.9,39z M1056.1,9.6h30.2l-4.6,12.9h-30.2L1056.1,9.6z M1051.9,25.5h17.2c0,0.6-0.1,1.1-0.2,1.7
	c-0.2,0.8,0.3,1.6,1.1,1.8l0,0h0.4c0.7,0,1.3-0.5,1.5-1.1c0.2-0.8,0.3-1.6,0.3-2.4h9.8l6.3,12.7h-22c0.1-0.8-0.5-1.6-1.3-1.7
	c-0.8-0.1-1.6,0.5-1.7,1.3v0.4h-5L1051.9,25.5z M1058.6,56.2l0.1-15h4.6v0.1c0.2,0.7,0.8,1.1,1.5,1.1h0.4c0.6-0.1,1-0.6,1.1-1.2
	h22.8v15L1058.6,56.2z"/>
<path class="st0" d="M1065.7,19.1c0.7,0.6,1.3,1.2,1.8,1.9c0.3,0.4,0.7,0.6,1.2,0.6c0.3,0,0.6-0.1,0.9-0.3c0.7-0.5,0.8-1.4,0.3-2
	c0,0,0,0,0-0.1c-0.7-0.9-1.5-1.7-2.4-2.4c-0.6-0.5-1.6-0.4-2.1,0.2C1064.9,17.6,1065,18.6,1065.7,19.1L1065.7,19.1z"/>
<path class="st0" d="M1076.4,48c-0.9-0.2-1.8-0.4-2.7-0.6c-0.8-0.3-1.7,0.1-1.9,0.9s0.1,1.7,0.9,1.9h0.1c1,0.3,2,0.6,3.1,0.7h0.2
	c0.8,0,1.4-0.6,1.5-1.3C1077.8,48.8,1077.3,48.1,1076.4,48C1076.5,48,1076.5,48,1076.4,48z"/>
<path class="st0" d="M1069.7,45.3c-0.7-0.5-1.4-1.1-1.9-1.8c-0.5-0.6-1.5-0.7-2.1-0.2s-0.7,1.5-0.2,2.1c0.7,0.9,1.6,1.6,2.5,2.3
	c0.3,0.2,0.6,0.3,0.9,0.3c0.5,0,0.9-0.2,1.2-0.6C1070.6,46.7,1070.4,45.8,1069.7,45.3z"/>
<path class="st0" d="M1065.8,34.7c0.3,0.2,0.6,0.3,0.9,0.3c0.5,0,0.9-0.2,1.2-0.6c0.2-0.3,0.5-0.6,0.7-0.9c0.4-0.5,0.8-1,1.2-1.5
	c0.5-0.7,0.4-1.6-0.3-2.1c-0.7-0.5-1.6-0.4-2.1,0.3l0,0c-0.3,0.4-0.6,0.8-1,1.2c-0.3,0.4-0.6,0.7-0.9,1.1
	C1065,33.2,1065.1,34.2,1065.8,34.7z"/>
<path d="M1.5,127.4h39c0.8,0,1.5,0.7,1.5,1.5v48c0,0.8-0.7,1.5-1.5,1.5h-39c-0.8,0-1.5-0.7-1.5-1.5v-48C0,128.1,0.7,127.4,1.5,127.4
	z"/>
<rect x="3" y="130.4" class="st1" width="36" height="45"/>
<path d="M21,137.8c-4-0.2-7.5,2.9-7.7,6.9c0,0.2,0,0.3,0,0.5c0,0.8,0.7,1.5,1.5,1.5s1.5-0.7,1.5-1.5c-0.1-2.4,1.8-4.4,4.2-4.4
	c0.2,0,0.3,0,0.5,0c1.6-0.1,3.1,0.7,4,2c0.8,1.3,0.8,2.9,0.1,4.2c-0.6,1.1-1.4,2.1-2.3,3c-1.7,1.8-3.9,4-3.9,7.8
	c0,0.8,0.7,1.5,1.5,1.5s1.5-0.7,1.5-1.5c0-2.6,1.4-4.1,3-5.7c1.2-1.1,2.2-2.4,2.9-3.9c1.1-2.3,1-4.9-0.3-7.1
	C26,139,23.6,137.8,21,137.8z"/>
<path d="M20.4,162.9c-1,0-1.8,0.8-1.8,1.8s0.8,1.8,1.8,1.8s1.8-0.8,1.8-1.8C22.2,163.7,21.4,162.9,20.4,162.9L20.4,162.9z"/>
<path d="M86,180.9c-9.3,0-19-7.9-19-21.1V140c0-2.7,2.1-4.9,4.8-5c0.8,0,1.5,0.2,2.2,0.5V133c0-2.7,2.3-5,5-5c0.8,0,1.5,0.2,2.2,0.5
	c0.8-2.6,3.6-4.1,6.3-3.3c1.6,0.5,2.8,1.7,3.3,3.3c0.7-0.4,1.5-0.5,2.2-0.5c2.7,0,5,2.3,5,5v8.4c0.6-0.3,1.3-0.4,2-0.4
	c2.7,0,5,2.3,5,5v11.9C105,174.6,93.3,180.9,86,180.9z"/>
<path class="st2" d="M71.8,138c-1,0.1-1.8,1-1.8,2v19.8c0,11.3,8.1,18.1,16,18.1c11.7,0,16-12.3,16-20V146c0-1.1-0.9-2-2-2
	s-2,0.9-2,2v6.8c0,0.8-0.7,1.5-1.5,1.5s-1.5-0.7-1.5-1.5V133c0-1.1-0.9-2-2-2s-2,0.9-2,2v14.8c0,0.8-0.7,1.5-1.5,1.5
	s-1.5-0.7-1.5-1.5V130c0-1.1-0.9-2-2-2s-2,0.9-2,2v20.8c0,0.8-0.7,1.5-1.5,1.5s-1.5-0.7-1.5-1.5V133c0-1.1-0.9-2-2-2s-2,0.9-2,2v21
	c0,0.8-0.7,1.5-1.5,1.5S74,154.8,74,154v-14C73.9,138.9,73,138,71.8,138z"/>
<polygon points="170.5,178.4 131.5,178.4 131.5,168.4 137.5,168.4 137.5,137.4 131.5,137.4 131.5,127.4 170.5,127.4 170.5,137.4 
	164.5,137.4 164.5,168.4 170.5,168.4 "/>
<rect x="134.5" y="171.4" class="st3" width="33" height="4"/>
<rect x="156.5" y="137.4" class="st0" width="5" height="31"/>
<rect x="148.5" y="137.4" class="st0" width="5" height="31"/>
<rect x="140.5" y="137.4" class="st0" width="5" height="31"/>
<polygon class="st3" points="164.5,134.4 167.5,134.4 167.5,130.4 134.5,130.4 134.5,134.4 "/>
<path d="M219.4,185.8h-0.6c-3.4-0.1-6.1-1.5-7.6-3.7c-6.6-2.6-10.9-8.7-12-17.2c-1.6-11.6,3-24.5,10.7-30.4
	c1.3-10.5,8.9-14.5,13.5-14.5c2.4,0,3.9,2.1,4.1,5.8c3.2,0.7,5.6,3.5,5.6,6.9l0,0c0,2.7-1.5,5.1-3.9,6.3l-0.3,0.1v30.2
	c2.6,1.1,4.2,3.7,4.2,6.5l0,0c0,3.3-2.4,6.2-5.7,6.8C225.8,184.6,222.7,185.8,219.4,185.8z"/>
<path class="st2" d="M223.4,123c-3.7,0-9.8,3.4-10.6,12.4c0,0.4-0.3,0.8-0.6,1.1c-7,5-11.4,17.3-10,28c0.6,4.4,2.7,12.1,10.6,15
	c0.3,0.1,0.6,0.4,0.8,0.7c0.8,1.5,2.8,2.5,5.3,2.6c1.5,0.1,3-0.2,4.3-0.7c-2.5-1.1-4.1-3.6-4.1-6.4c0-3.8,3-6.9,6.8-7v-29.1
	c-3.8-0.1-6.8-3.2-6.8-7c0.1-3.2,2.3-6,5.4-6.8C224.4,124,223.9,123,223.4,123z"/>
<path class="st0" d="M226.1,171.7c-2.2,0-4,1.8-4,4s1.8,4,4,4s4-1.8,4-4l0,0C230.1,173.5,228.3,171.7,226.1,171.7z"/>
<path class="st0" d="M226.1,128.6c-2.2,0.1-4,1.9-4,4.1c0,2.2,1.9,4,4.1,3.9c1.1,0,2.1-0.5,2.8-1.3c0.7-0.7,1.1-1.7,1.1-2.7l0,0
	C230.1,130.4,228.3,128.6,226.1,128.6z"/>
<path d="M211.9,176.5c-0.3,0-0.6-0.1-0.9-0.3c-3.9-3.1-6.5-7.6-7-12.6c0-0.1-0.1-0.3-0.1-0.4v-0.1c-0.1-0.8-0.2-1.6-0.2-2.4
	c-0.2-7.8,2.8-16.1,7.2-19.8c0.6-0.5,1.6-0.5,2.1,0.2c0.2,0.3,0.4,0.6,0.4,1V175c0,0.6-0.3,1.1-0.8,1.3
	C212.4,176.5,212.2,176.5,211.9,176.5z"/>
<path class="st0" d="M207.2,164.7c0.5,2.5,1.6,4.9,3.2,6.9v-6.9H207.2z"/>
<path class="st0" d="M206.8,161.7h3.6v-15.5c-2.6,4.4-3.8,9.4-3.7,14.5C206.7,161,206.8,161.4,206.8,161.7z"/>
<path d="M280.5,179.2c-1.3,0-2.6-0.6-3.6-1.6l-0.4-0.4v-17.3c-5.5-2.1-9.6-8.6-9.6-16.2c0-9.4,6.1-17,13.6-17c3.2,0,6.2,1.3,8.5,3.6
	c3.4,3.6,5.3,8.4,5.1,13.3c0,7.7-4,14.2-9.6,16.3v17.3l-0.4,0.4C283.1,178.6,281.8,179.1,280.5,179.2z"/>
<path class="st0" d="M279.5,175.9c0.6,0.4,1.4,0.4,2,0v-15.2c-0.7,0.1-1.3,0.1-2,0V175.9z"/>
<path class="st4" d="M280.6,129.6h-0.1c-5.9,0-10.6,6.3-10.6,14s4.8,14,10.6,14s10.6-6.3,10.6-14.1c0.1-4.1-1.4-8.2-4.2-11.2
	C285.2,130.7,283,129.7,280.6,129.6z"/>
<path d="M292.5,177.6h-3v-5.4c-1.5-0.9-2.6-3-2.6-5.6c0-3.4,1.8-6,4.1-6s4.1,2.6,4.1,6c0,2.6-1.1,4.7-2.6,5.6V177.6z"/>
<path class="st4" d="M291,163.6c-0.2,0-1.1,1-1.1,3s0.9,3,1.1,3s1.1-1.1,1.1-3S291.2,163.6,291,163.6z"/>
<path d="M357.9,172.5h-0.5c-2.6,0-5.2-1-7.2-2.8l-0.5-0.4v-8.7c0-2.5,1.2-4.9,3.3-6.4c-2.5-2.3-2.6-6.2-0.3-8.6
	c2.3-2.5,6.2-2.6,8.6-0.3c1.2,1.2,1.9,2.8,1.9,4.4c0,1.6-0.7,3.2-1.9,4.3c2.2,1.4,3.6,3.8,3.6,6.5v8.6l-0.4,0.4
	C363,171.5,360.5,172.6,357.9,172.5z"/>
<path class="st3" d="M352.8,167.9c1.4,1,3,1.6,4.7,1.6c1.7,0.1,3.3-0.4,4.6-1.5v-7.4c0-2.6-2.1-4.7-4.7-4.7l0,0v-0.6v0.6
	c-2.5,0.1-4.6,2.2-4.5,4.7L352.8,167.9z"/>
<path class="st0" d="M357.3,146.7c-1.7,0-3.1,1.4-3.1,3.1c0,1.7,1.4,3.1,3.1,3.1s3.1-1.4,3.1-3.1C360.4,148.1,359,146.7,357.3,146.7
	L357.3,146.7z"/>
<path d="M337.4,172.5H337c-3.6,0-7-1.3-9.6-3.8l-0.4-0.4v-11.7c0-3.7,2-7,5.2-8.8c-2-1.5-3.2-3.8-3.2-6.4c0-4.4,3.5-8,8-8s8,3.5,8,8
	c0,2.4-1.1,4.8-3,6.3c3.4,1.8,5.5,5.3,5.5,9.1v11.7l-0.5,0.4C344.4,171.2,340.9,172.5,337.4,172.5z"/>
<path class="st3" d="M329.9,167c4.2,3.4,10.2,3.4,14.5,0.1v-10.5c0-4-3.3-7.3-7.3-7.3c-3.9,0.1-7.1,3.3-7.2,7.2V167z"/>
<path class="st0" d="M336.9,136.3c-2.8,0-5,2.2-5,5c0.1,2.8,2.4,5,5.2,5c2.8,0,5-2.3,4.9-5.1S339.7,136.3,336.9,136.3L336.9,136.3z"
	/>
<path d="M397.5,127.4h27c3,0,5.5,2.5,5.5,5.5v40c0,3-2.5,5.5-5.5,5.5h-27c-3,0-5.5-2.5-5.5-5.5v-40
	C392,129.9,394.5,127.4,397.5,127.4z"/>
<path class="st2" d="M397.5,130.4h27c1.4,0,2.5,1.1,2.5,2.5v40c0,1.4-1.1,2.5-2.5,2.5h-27c-1.4,0-2.5-1.1-2.5-2.5v-40
	C395,131.5,396.1,130.4,397.5,130.4z"/>
<path d="M398.5,132.4h25c0.8,0,1.5,0.7,1.5,1.5v32c0,0.8-0.7,1.5-1.5,1.5h-25c-0.8,0-1.5-0.7-1.5-1.5v-32
	C397,133.1,397.7,132.4,398.5,132.4z"/>
<rect x="400" y="135.4" class="st0" width="22" height="29"/>
<circle cx="411" cy="171.4" r="2.2"/>
<path d="M462.8,176.1c-3.7,0-7.2-1.4-9.8-3.9c-0.3-0.3-0.4-0.7-0.4-1.1V160c0.1-4.2,2.6-7.9,6.5-9.5c-3.5-2.2-4.5-6.9-2.2-10.4
	c1-1.5,2.5-2.6,4.3-3.1v-5.8c0-0.8,0.7-1.5,1.5-1.5H498c0.8,0,1.5,0.7,1.5,1.5v26c0,0.8-0.7,1.5-1.5,1.5h-25.1
	c0,0.4,0.1,0.8,0.1,1.2v11.2c0,0.4-0.2,0.8-0.4,1.1C469.9,174.7,466.4,176.1,462.8,176.1z"/>
<path class="st1" d="M455.5,170.5c3.6,3.2,10.2,3.8,14.5,0v-10.6c0-4-3.3-7.2-7.3-7.2c-4,0.1-7.1,3.3-7.2,7.3V170.5z"/>
<path class="st0" d="M472.1,155.7h24.4v-23H464v4.1c4.1,0.6,7,4.3,6.4,8.4c-0.3,2.2-1.6,4.2-3.5,5.4
	C469.2,151.6,471,153.4,472.1,155.7z"/>
<circle class="st0" cx="463" cy="144.2" r="4.5"/>
<path d="M491.2,151.1h-13c-0.8,0-1.5-0.7-1.5-1.5s0.7-1.5,1.5-1.5h13c0.8,0,1.5,0.7,1.5,1.5S492,151.1,491.2,151.1z"/>
<path d="M491.2,145.1h-13c-0.8,0-1.5-0.7-1.5-1.5s0.7-1.5,1.5-1.5h13c0.8,0,1.5,0.7,1.5,1.5S492,145.1,491.2,145.1z"/>
<path d="M491.2,139.1h-13c-0.8,0-1.5-0.7-1.5-1.5s0.7-1.5,1.5-1.5h13c0.8,0,1.5,0.7,1.5,1.5S492,139.1,491.2,139.1z"/>
<polygon points="564,176.9 518,176.9 518,136.9 516,136.9 516,128.9 541,128.9 541,136.9 539,136.9 539,156.9 550.5,146.3 
	566,161.9 564,161.9 "/>
<polygon class="st5" points="557.9,173.9 561,173.9 561,161.9 539,161.9 539,173.9 542,173.9 542,164.9 557.9,164.9 "/>
<rect x="545" y="167.9" class="st0" width="9.9" height="6"/>
<polygon class="st5" points="533,173.9 536,173.9 536,161.9 521,161.9 521,173.9 524,173.9 524,164.9 533,164.9 "/>
<rect x="527" y="167.9" class="st0" width="3" height="6"/>
<polygon class="st5" points="541.3,158.9 558.8,158.9 550.5,150.5 "/>
<rect x="530" y="156.9" class="st5" width="6" height="2"/>
<rect x="521" y="156.9" class="st5" width="6" height="2"/>
<rect x="530" y="151.9" class="st5" width="6" height="2"/>
<rect x="521" y="151.9" class="st5" width="6" height="2"/>
<rect x="530" y="146.9" class="st5" width="6" height="2"/>
<rect x="521" y="146.9" class="st5" width="6" height="2"/>
<rect x="530" y="141.9" class="st5" width="6" height="2"/>
<rect x="521" y="141.9" class="st5" width="6" height="2"/>
<rect x="530" y="136.9" class="st5" width="6" height="2"/>
<rect x="521" y="136.9" class="st5" width="6" height="2"/>
<rect x="519" y="131.9" class="st5" width="19" height="2"/>
<path d="M692.8,158.2v-8c0-7.1-5.8-12.9-13-12.8c-7.1,0-12.9,5.8-12.8,12.9v7.9l-4.9,11.9c-0.3,0.8,0.1,1.6,0.8,2
	c0.2,0.1,0.4,0.1,0.6,0.1H674c0.3,3.1,3.1,5.4,6.3,5.1c2.7-0.3,4.8-2.4,5.1-5.1h11c0.8,0,1.5-0.7,1.5-1.5c0-0.2,0-0.4-0.1-0.6
	L692.8,158.2z"/>
<path class="st0" d="M679.6,174.3c-0.9,0-1.7-0.5-2.2-1.2h4.5C681.4,173.8,680.5,174.3,679.6,174.3z"/>
<path class="st1" d="M665.8,169.2l4.2-10.1c0.1-0.2,0.1-0.4,0.1-0.6v-8.2c0-5.4,4.4-9.8,9.8-9.8c5.4,0,9.8,4.3,10,9.7v8.3
	c0,0.2,0,0.4,0.1,0.6l4.2,10.1H665.8z"/>
<path d="M667,138.3c0.6,0.6,1.5,0.6,2.1,0s0.6-1.5,0-2.1l0,0l-2.3-2.3c-0.6-0.6-1.5-0.6-2.1,0s-0.6,1.5,0,2.1L667,138.3z"/>
<path d="M664.6,149.2c0-0.8-0.7-1.5-1.5-1.5h-3.3c-0.8,0-1.5,0.7-1.5,1.5s0.7,1.5,1.5,1.5h3.3C664,150.7,664.6,150,664.6,149.2z"/>
<path d="M680,134.8c0.8,0,1.5-0.7,1.5-1.5V130c0-0.8-0.7-1.5-1.5-1.5s-1.5,0.7-1.5,1.5v3.3C678.6,134.1,679.2,134.8,680,134.8z"/>
<path d="M693,138.3l2.3-2.3c0.6-0.6,0.6-1.5,0-2.1s-1.5-0.6-2.1,0l-2.3,2.3c-0.6,0.6-0.6,1.5,0,2.1S692.5,138.9,693,138.3L693,138.3
	z"/>
<path d="M700.2,147.7h-3.3c-0.8,0-1.5,0.7-1.5,1.5s0.7,1.5,1.5,1.5h3.3c0.8,0,1.5-0.7,1.5-1.5S701.1,147.7,700.2,147.7z"/>
<path d="M759.5,132.9H754v-1.5c0-3-2.5-5.5-5.5-5.5h-7c-3,0-5.5,2.5-5.5,5.5v1.5h-5.5c-3,0-5.5,2.5-5.5,5.5v6c0,0.8,0.7,1.5,1.5,1.5
	h0.5v28.5c0,3,2.5,5.5,5.5,5.5h25c3,0,5.5-2.5,5.5-5.5v-28.5h0.5c0.8,0,1.5-0.7,1.5-1.5v-6C765,135.4,762.6,132.9,759.5,132.9z"/>
<path class="st0" d="M739,131.4c0-1.4,1.1-2.5,2.5-2.5h7c1.4,0,2.5,1.1,2.5,2.5v1.5h-12V131.4z"/>
<path class="st4" d="M760,174.4c0,1.4-1.1,2.5-2.5,2.5h-25c-1.4,0-2.5-1.1-2.5-2.5v-28.5h30V174.4z"/>
<path class="st0" d="M762,142.9h-34v-4.5c0-1.4,1.1-2.5,2.5-2.5h29c1.4,0,2.5,1.1,2.5,2.5V142.9z"/>
<path d="M745,170.9c0.8,0,1.5-0.7,1.5-1.5v-16c0-0.8-0.7-1.5-1.5-1.5s-1.5,0.7-1.5,1.5v16C743.6,170.2,744.2,170.9,745,170.9z"/>
<path d="M737,170.9c0.8,0,1.5-0.7,1.5-1.5v-16c0-0.8-0.7-1.5-1.5-1.5s-1.5,0.7-1.5,1.5v16C735.6,170.2,736.2,170.9,737,170.9z"/>
<path d="M753,170.9c0.8,0,1.5-0.7,1.5-1.5v-16c0-0.8-0.7-1.5-1.5-1.5s-1.5,0.7-1.5,1.5v16C751.6,170.2,752.2,170.9,753,170.9z"/>
<path d="M827.5,176.8h-35c-0.8,0-1.5-0.7-1.5-1.5v-5c0-0.8,0.7-1.5,1.5-1.5h2.8l1.7-6.9l0.1-0.2L801,146l0.1-0.2l3.9-15.6
	c0.2-0.7,0.8-1.2,1.5-1.1h7c0.7,0,1.3,0.5,1.5,1.1l3.9,15.6l0.1,0.2l3.9,15.6l0.1,0.2l1.7,6.9h2.8c0.8,0,1.5,0.7,1.5,1.5v5
	C829.1,176.1,828.4,176.8,827.5,176.8C827.6,176.8,827.5,176.8,827.5,176.8z"/>
<rect x="794" y="171.8" class="st5" width="32" height="2"/>
<polygon class="st0" points="798.5,168.8 821.6,168.8 820.4,163.9 799.7,163.9 "/>
<polygon class="st5" points="800.5,160.8 819.6,160.8 818.4,155.9 801.7,155.9 "/>
<polygon class="st0" points="802.5,152.9 817.6,152.9 816.4,148 803.7,148 "/>
<polygon class="st5" points="804.5,144.9 815.6,144.9 814.4,140 805.7,140 "/>
<polygon class="st0" points="806.5,137 813.6,137 812.4,132 807.7,132 "/>
<path d="M880.6,172.7h-11.2c-0.8,0-1.5-0.7-1.5-1.5v-11.1h-11.1c-0.8,0-1.5-0.7-1.5-1.5v-11.2c0-0.8,0.7-1.5,1.5-1.5h11.1v-11.2
	c0-0.8,0.7-1.5,1.5-1.5h11.2c0.8,0,1.5,0.7,1.5,1.5v11.2h11.1c0.8,0,1.5,0.7,1.5,1.5v11.2c0,0.8-0.7,1.5-1.5,1.5h-11.1v11.1
	C882.1,172,881.5,172.7,880.6,172.7z"/>
<path class="st4" d="M870.9,169.7h8.2v-11.1c0-0.8,0.7-1.5,1.5-1.5h11.1v-8.2h-11.1c-0.8,0-1.5-0.7-1.5-1.5v-11.2h-8.2v11.2
	c0,0.8-0.7,1.5-1.5,1.5h-11.1v8.2h11.1c0.8,0,1.5,0.7,1.5,1.5V169.7z"/>
<path d="M963,136.7c-2.6-2.6-7.5-5.5-12.8-5.2c-4,0.2-7.8,2.1-10.3,5.2c-9.4-7.2-18.8-4.1-22.9,0c-2.9,3-4.5,7-4.5,11.2
	c0,5,2.1,9.8,5.8,13.3l3.5,3.5l0.1,0.1l7.4,6.3c0.2,0.2,0.5,0.3,0.8,0.4c1.2,0.6,2.6,0.7,3.8,0.1c0.2,0.6,0.6,1,1,1.4
	c0.8,0.8,2,1.3,3.2,1.3h0.1c1.1,0,2.2-0.5,3-1.3l1.4-1.4c0.3,0.6,0.6,1.2,1.1,1.6c0.7,0.6,1.6,1,2.5,1c1.3,0.1,2.6-0.3,3.5-1.2
	l11.9-11.9c3.7-3.4,5.8-8.2,5.8-13.3C967.5,143.7,965.9,139.7,963,136.7z"/>
<path class="st3" d="M946,171.2L946,171.2c-0.3-0.4-0.6-0.8-0.6-1.3c0-0.4,0.1-0.8,0.3-1.1l8.4-8.4c0.6-0.6,0.6-1.5,0.1-2.1
	c-0.6-0.6-1.5-0.6-2.1-0.1c0,0-0.1,0-0.1,0.1L939.2,171c-0.2,0.3-0.6,0.4-0.9,0.4c-0.4,0-0.9-0.2-1.2-0.5c-0.3-0.2-0.4-0.6-0.4-0.9
	c0-0.4,0.1-0.8,0.4-1.1l10.6-10.6c0.6-0.6,0.6-1.5,0.1-2.1c-0.6-0.6-1.5-0.6-2.1-0.1c0,0-0.1,0-0.1,0.1L935,166.7l-0.1,0.1l-1.8,1.8
	c-0.2,0.3-0.6,0.4-0.9,0.4c-0.4,0-0.8-0.2-1.1-0.5s-0.4-0.6-0.5-1c0-0.4,0.2-0.7,0.5-1l10.7-10.5c0.6-0.6,0.6-1.5,0-2.1
	s-1.5-0.6-2.1,0l-8.9,8.5c-0.5,0.6-1.4,0.6-2,0.1l-0.1-0.1c-0.3-0.2-0.4-0.6-0.4-0.9c0-0.4,0.2-0.8,0.4-1.1l11.6-11.1l3.9,4.2
	c0.8,0.9,1.9,1.4,3.1,1.4c1.2,0,2.4-0.5,3.2-1.3c0.9-0.8,1.4-1.9,1.4-3.1c0-1.2-0.5-2.4-1.3-3.3l-8-8l-0.4-0.4c2-2.5,5-4,8.2-4.2
	c3.9,0,7.7,1.5,10.5,4.3c4.6,4.6,5.7,13.3-1.3,20.3L947.8,171C947.3,171.4,946.6,171.4,946,171.2z"/>
<path class="st0" d="M928,166l-4-3.4l-3.5-3.4c-6.9-6.9-5.8-15.6-1.3-20.3c6.9-6.9,16.8-2.2,21.4,2.4l8,8c0.3,0.3,0.5,0.7,0.5,1.1
	c0,0.4-0.2,0.7-0.5,1s-0.7,0.5-1.1,0.5c-0.4,0-0.7-0.2-0.9-0.4l-5-5.3c-0.3-0.3-0.7-0.5-1-0.5c-0.4,0-0.8,0.1-1.1,0.4l-12.8,12.2
	c-0.9,0.9-1.4,2.1-1.3,3.3c0,1.1,0.5,2.2,1.3,3c0.4,0.4,0.9,0.8,1.5,1C928,165.7,928,165.8,928,166z"/>
<circle cx="1005" cy="152.9" r="21"/>
<path class="st2" d="M1000.2,170.2c3.2,0.9,6.6,0.9,9.8,0v-0.1l1.5-5.8l-2.4-3.2h-8.2l-2.4,3.2L1000.2,170.2z"/>
<path class="st0" d="M992.5,165.8c1.2,1.2,2.6,2.2,4.2,3l-0.8-3.2L992.5,165.8z"/>
<path class="st0" d="M1014.3,165.6l-0.9,3.3c1.6-0.8,3-1.9,4.2-3.1L1014.3,165.6z"/>
<path class="st2" d="M987,153.6c0.1,3.3,1.2,6.6,3,9.3h0.2l5.8-0.3l2.5-3.4l-2.5-7.8l-3.9-1.2L987,153.6z"/>
<path class="st2" d="M1013.9,162.5l6.1,0.3c1.8-2.8,2.9-6,3-9.3l-0.1-0.1l-4.9-3.2l-3.8,1.2l-2.6,7.9L1013.9,162.5z"/>
<polygon class="st0" points="1001.3,158.1 1008.9,158.1 1011.2,151 1005.1,146.6 999,151 "/>
<path class="st0" d="M988.9,145c-0.7,1.5-1.3,3.1-1.5,4.8l2.7-1.8L988.9,145z"/>
<path class="st0" d="M1020,148l2.8,1.8c-0.3-1.7-0.8-3.3-1.6-4.9L1020,148z"/>
<path class="st2" d="M993,147.4l4.1,1.3l6.5-4.7v-4.2l-4.6-3.7c-3.2,1.2-6,3.2-8.1,5.9l0,0L993,147.4z"/>
<path class="st2" d="M1006.5,143.9l6.5,4.7l4-1.3l2.2-5.6c-2.1-2.6-4.9-4.6-8-5.8l-4.6,3.7L1006.5,143.9z"/>
<path class="st0" d="M1002.6,135.1l2.5,2l2.5-2C1005.9,134.8,1004.2,134.8,1002.6,135.1z"/>
<path d="M1092,159l-7.5-15.2l5.4-15.2c0.2-0.5,0.1-1-0.2-1.4c-0.3-0.4-0.7-0.6-1.2-0.6H1055c-0.6,0-1.2,0.4-1.4,1l-5.6,15.8
	c-0.1,0.4-0.1,0.8,0.1,1.2l7.6,15.5l-0.1,17.6c0,0.8,0.7,1.5,1.5,1.5h33.5c0.8,0,1.5-0.7,1.5-1.5v-18
	C1092.1,159.4,1092.1,159.2,1092,159z"/>
<polygon class="st0" points="1056.1,129.6 1086.3,129.6 1081.7,142.5 1051.5,142.5 "/>
<path class="st5" d="M1051.9,145.5h17.2c0,0.6-0.1,1.2-0.2,1.7c-0.2,0.8,0.3,1.6,1.1,1.8c0.1,0,0.2,0,0.4,0c0.7,0,1.3-0.5,1.5-1.1
	c0.2-0.8,0.3-1.6,0.3-2.4h9.8l6.3,12.7h-22c0.1-0.8-0.5-1.6-1.3-1.7c-0.8-0.1-1.6,0.5-1.7,1.3l0,0c0,0.1,0,0.3,0,0.4h-5
	L1051.9,145.5z"/>
<path class="st0" d="M1058.7,176.2l0.1-15h4.7v0.1c0.2,0.7,0.8,1.1,1.5,1.1c0.1,0,0.2,0,0.4,0c0.6-0.1,1-0.6,1.1-1.2h22.8v15
	L1058.7,176.2z"/>
<path d="M1065.7,139.1c0.7,0.5,1.3,1.2,1.8,1.9c0.3,0.4,0.7,0.6,1.2,0.6c0.8,0,1.5-0.7,1.5-1.5c0-0.3-0.1-0.6-0.3-0.9
	c-0.7-0.9-1.5-1.7-2.4-2.4c-0.6-0.5-1.6-0.5-2.1,0.2s-0.5,1.6,0.2,2.1C1065.6,139,1065.7,139.1,1065.7,139.1L1065.7,139.1z"/>
<path d="M1076.4,168c-0.9-0.1-1.8-0.4-2.7-0.6c-0.8-0.3-1.6,0.2-1.9,1s0.2,1.6,1,1.9l0,0c1,0.3,2.1,0.6,3.2,0.7c0.1,0,0.2,0,0.2,0
	c0.7,0,1.4-0.5,1.5-1.3C1077.8,168.9,1077.3,168.1,1076.4,168z"/>
<path d="M1069.7,165.3c-0.7-0.5-1.4-1.1-1.9-1.8s-1.4-0.8-2.1-0.3s-0.8,1.4-0.3,2.1c0,0,0,0,0.1,0.1c0.7,0.9,1.5,1.6,2.5,2.3
	c0.3,0.2,0.6,0.3,0.9,0.3c0.8,0,1.5-0.7,1.5-1.5C1070.4,166.1,1070.1,165.6,1069.7,165.3L1069.7,165.3z"/>
<path d="M1065.8,154.7c0.7,0.5,1.6,0.4,2.1-0.3c0.2-0.3,0.5-0.6,0.7-0.9c0.4-0.5,0.8-1,1.2-1.5c0.5-0.7,0.4-1.6-0.3-2.1
	s-1.6-0.4-2.1,0.3c0,0,0,0.1-0.1,0.1c-0.3,0.4-0.6,0.8-1,1.2c-0.3,0.4-0.6,0.7-0.9,1.1C1065,153.2,1065.1,154.1,1065.8,154.7
	L1065.8,154.7z"/>
<path d="M637.6,148h-0.5c-2-8.1-9.3-14.2-18.1-14.2c-13.7,0-34.4,0.1-35.9,0c-0.9-0.1-1.7,0.6-1.7,1.5v10.2c0,0.8,0.7,1.5,1.5,1.5h4
	c0.8,0,1.5-0.6,1.5-1.5h6.9c4.2,0,5.1,2.6,5.1,6.9c0,10.3,8.4,18.6,18.6,18.6c8.7,0,16.1-6.1,18.1-14.2h0.5c2.4,0,4.4-2,4.4-4.4
	S640,148,637.6,148z"/>
<path class="st1" d="M587,142.6h8.4c8.1,0,8.1,7.4,8.1,9.9c0,8.6,7,15.6,15.6,15.6s15.6-7,15.6-15.6s-7-15.6-15.6-15.6c0,0-9,0-18,0
	c-9.6,0-14.2,0-16.6,0v7.2h1C585.5,143.2,586.1,142.6,587,142.6z"/>
<g>
	<path d="M619,161.3c-4.9,0-8.8-4-8.8-8.8s4-8.8,8.8-8.8s8.8,4,8.8,8.8S623.8,161.3,619,161.3z"/>
</g>
<path class="st0" d="M619,146.6c-3.2,0-5.8,2.6-5.8,5.8s2.6,5.8,5.8,5.8s5.8-2.6,5.8-5.8S622.2,146.6,619,146.6z"/>
<path class="st1" d="M637.6,153.9c0.8,0,1.4-0.6,1.4-1.4s-0.6-1.4-1.4-1.4C637.7,151.9,637.7,153,637.6,153.9z"/>
<g>
	<path class="st0" d="M637.6,27.6h-0.5c-2-8.1-9.3-14.2-18.1-14.2c-13.7,0-34.4,0.1-35.9,0c-0.9-0.1-1.7,0.6-1.7,1.5V25
		c0,0.8,0.7,1.5,1.5,1.5h4c0.8,0,1.5-0.6,1.5-1.5h6.9c4.2,0,5.1,2.6,5.1,6.9c0,10.3,8.4,18.6,18.6,18.6c8.7,0,16.1-6.1,18.1-14.2
		h0.5c2.4,0,4.4-2,4.4-4.4C642,29.5,640,27.6,637.6,27.6z M619.1,47.6c-8.6,0-15.6-7-15.6-15.6c0-2.5,0-9.9-8.1-9.9H587
		c-0.9,0-1.5,0.6-1.5,1.5h-1v-7.2c2.4,0,7,0,16.6,0c9,0,18,0,18,0c8.6,0,15.6,7,15.6,15.6C634.7,40.6,627.7,47.6,619.1,47.6z
		 M637.6,33.4c0.1-0.9,0.1-2,0-2.8c0.8,0,1.4,0.6,1.4,1.4C639,32.8,638.4,33.4,637.6,33.4z"/>
	<path class="st0" d="M619,23.2c-4.8,0-8.8,4-8.8,8.8s3.9,8.8,8.8,8.8c4.8,0,8.8-4,8.8-8.8S623.8,23.2,619,23.2z M619,37.8
		c-3.2,0-5.8-2.6-5.8-5.8c0-3.2,2.6-5.8,5.8-5.8s5.8,2.6,5.8,5.8S622.2,37.8,619,37.8z"/>
</g>
</svg>
