<svg id="Calque_1" xmlns="http://www.w3.org/2000/svg" viewBox="0 0 1092.1 185.8"><style>.st0{fill:#fff}.st1{fill:#fb394a}.st2{fill:#25dccc}.st3{fill:#ffcd00}.st4{fill:#30e77d}.st5{fill:#354bcf}</style><title>services-icons</title><path class="st0" d="M40.5 7.4h-39C.7 7.4 0 8.1 0 8.9v48c0 .8.7 1.5 1.5 1.5h39c.8 0 1.5-.7 1.5-1.5v-48c0-.8-.7-1.5-1.5-1.5zm-1.5 48H3v-45h36v45z"/><path class="st0" d="M14.8 26.7c.8 0 1.5-.7 1.5-1.5 0-2.4 1.9-4.4 4.3-4.4h.4c1.6-.1 3.1.7 4 2 .8 1.3.8 2.9.1 4.2-.6 1.1-1.4 2.1-2.3 3-1.7 1.8-3.9 4-3.9 7.8 0 .8.7 1.5 1.5 1.5s1.5-.7 1.5-1.5c0-2.6 1.4-4 3-5.7 1.2-1.1 2.2-2.4 2.9-3.9 1.1-2.3 1-4.9-.3-7.1-1.5-2.1-4-3.4-6.6-3.3-4-.2-7.5 2.8-7.7 6.8v.6c.1.8.8 1.5 1.6 1.5zM20.4 42.9c-1 0-1.8.8-1.8 1.8s.8 1.8 1.8 1.8 1.8-.8 1.8-1.8-.8-1.8-1.8-1.8zM86 60.8c-9.3 0-19-7.9-19-21.1V20c0-2.7 2.1-4.9 4.8-5 .8 0 1.5.2 2.2.5V13c0-2.8 2.2-5 5-5 .8 0 1.5.2 2.2.5C81.9 6.4 83.8 5 86 5s4.1 1.4 4.8 3.5c.7-.3 1.4-.5 2.2-.5 2.7 0 5 2.3 5 5v8.4c.6-.3 1.3-.4 2-.4 2.7 0 5 2.3 5 5v11.9c0 16.8-11.7 22.9-19 22.9zM71.8 18c-1 .1-1.8 1-1.8 2v19.8c0 11.3 8.1 18.1 16 18.1 11.7 0 16-12.3 16-20V26c0-1.1-.9-2-2-2s-2 .9-2 2v6.8c0 .8-.7 1.5-1.5 1.5s-1.5-.7-1.5-1.5V13c0-1.1-.9-2-2-2s-2 .9-2 2v14.8c0 .8-.7 1.5-1.5 1.5s-1.5-.7-1.5-1.5V10c0-1.1-.9-2-2-2s-2 .9-2 2v20.8c0 .8-.7 1.5-1.5 1.5s-1.5-.7-1.5-1.5V13c0-1.1-.9-2-2-2s-2 .9-2 2v21c0 .8-.7 1.5-1.5 1.5S74 34.8 74 34V20c-.1-1.2-1-2-2.2-2zM170.5 58.4h-39v-10h6v-31h-6v-10h39v10h-6v31h6v10zm-36-3h33v-4h-33v4zm22-7h5v-31h-5v31zm-8 0h5v-31h-5v31zm-8 0h5v-31h-5v31zm24-34h3v-4h-33v4h30zM219.3 65.8h-.6c-3.3-.1-6.1-1.5-7.5-3.7-6.6-2.6-10.9-8.7-12-17.2-1.5-11.6 3-24.5 10.7-30.4C211.1 3.9 218.8 0 223.4 0c2.4 0 3.9 2.1 4.1 5.8 3.2.7 5.5 3.5 5.5 6.8 0 2.7-1.5 5.1-3.9 6.3-.1 0-.2.1-.3.1v30.2c2.6 1.1 4.2 3.7 4.2 6.5 0 3.3-2.4 6.2-5.7 6.8-1.5 2.1-4.6 3.3-8 3.3zM223.4 3c-3.7 0-9.8 3.4-10.6 12.4-.1.4-.3.8-.6 1.1-7 5-11.4 17.3-10 28 .6 4.4 2.7 12.1 10.6 15 .3.1.6.4.8.7.8 1.5 2.8 2.5 5.3 2.6 1.5.1 2.9-.1 4.3-.7-3.5-1.6-5.1-5.7-3.6-9.2 1.1-2.5 3.5-4.1 6.3-4.2V19.6c-3.8-.1-6.8-3.2-6.8-7 .1-3.2 2.3-6 5.4-6.8-.1-1.8-.6-2.8-1.1-2.8zm2.7 48.7c-2.2 0-4 1.8-4 4s1.8 4 4 4 4-1.8 4-4-1.8-4-4-4zm0-43.1c-2.2.1-4 1.9-4 4.1.1 2.2 1.8 3.9 4 3.9 1.1 0 2.2-.5 2.9-1.3.7-.7 1.1-1.7 1.1-2.7 0-2.2-1.8-4-4-4zm-14.2 47.9c-.3 0-.6-.1-.9-.3-4-3.1-6.5-7.6-7-12.6 0-.2-.1-.3-.1-.5V43c-.1-.8-.2-1.6-.2-2.4-.2-7.8 2.8-16.1 7.2-19.8.4-.4 1.1-.5 1.6-.2s.9.8.9 1.4v33c0 .6-.3 1.1-.8 1.3-.2.1-.4.2-.7.2zm-4.7-11.8c.5 2.5 1.6 4.9 3.2 6.9v-6.9h-3.2zm-.4-3h3.6V26.2c-2.4 3.7-3.8 9.3-3.7 14.5 0 .3.1.7.1 1zM289 10.3c-2.2-2.3-5.3-3.6-8.5-3.6-7.5 0-13.6 7.6-13.6 17 0 7.6 4 14.1 9.6 16.2v17.2l.4.4c.9 1 2.2 1.6 3.6 1.6s2.6-.5 3.6-1.5l.4-.4V39.9c5.6-2.1 9.6-8.6 9.6-16.3 0-5.2-1.8-10.1-5.1-13.3zm-7.5 45.5c-.6.4-1.4.4-2 0V40.6c.7.1 1.3.1 2 0v15.2zm-1-18.2c-5.8 0-10.6-6.3-10.6-14s4.7-14 10.6-14h.1c2.4 0 4.7 1 6.3 2.7 2.8 3 4.3 7.1 4.2 11.2 0 7.8-4.8 14.1-10.6 14.1z"/><path class="st0" d="M291 40.5c-2.3 0-4.1 2.6-4.1 6-.1 2.2.8 4.3 2.6 5.6v5.4h3v-5.4c1.8-1.3 2.7-3.4 2.6-5.6 0-3.4-1.8-6-4.1-6zm0 9c-.3 0-1.1-1.1-1.1-3s.8-3 1.1-3 1.1 1.1 1.1 3-.8 3-1.1 3zM361.5 34.2c1.2-1.1 1.9-2.7 1.9-4.3 0-3.4-2.7-6.1-6.1-6.1s-6.1 2.7-6.1 6.1c0 1.7.7 3.3 1.9 4.4a7.87 7.87 0 0 0-3.3 6.4v8.6l.5.4c2 1.8 4.5 2.8 7.2 2.8h.5c2.5.1 5-.9 6.7-2.8l.4-.4v-8.6c-.1-2.7-1.4-5.1-3.6-6.5zm-4.1-7.5c1.7 0 3.1 1.4 3.1 3.1-.1 1.7-1.4 3-3.1 3.1-1.7 0-3.1-1.4-3.1-3.1s1.3-3.1 3.1-3.1zm4.7 21.3c-1.3 1.1-2.9 1.6-4.6 1.5-1.7 0-3.3-.6-4.7-1.6h.1v-7.3c0-2.5 2.1-4.6 4.6-4.6s4.6 2.1 4.6 4.6V48zM342 27.5c3.4-2.8 4-7.8 1.2-11.2s-7.8-4-11.2-1.2c-1.9 1.5-3 3.8-3 6.3s1.2 4.9 3.2 6.4c-3.2 1.8-5.2 5.1-5.2 8.8v11.7l.4.4c2.6 2.5 6 3.8 9.6 3.8h.5c3.5.1 6.9-1.3 9.5-3.7l.5-.4V36.7c0-3.9-2.1-7.4-5.5-9.2zm-10-6.3c0-2.8 2.2-5 5-5s5 2.2 5 5c0 2.7-2.1 4.9-4.8 5-2.8.1-5.1-2.2-5.2-5zM344.5 47c-2.1 1.7-4.7 2.6-7.4 2.5-2.6 0-5.1-.9-7.1-2.6V36.5c.1-3.9 3.3-7.1 7.2-7.2 4 0 7.3 3.3 7.3 7.3V47zM424.5 7.4h-27c-3 0-5.5 2.5-5.5 5.5v40c0 3 2.5 5.5 5.5 5.5h27c3 0 5.5-2.5 5.5-5.5v-40c0-3-2.5-5.5-5.5-5.5zm2.5 45.5c0 1.4-1.1 2.5-2.5 2.5h-27c-1.4 0-2.5-1.1-2.5-2.5v-40c0-1.4 1.1-2.5 2.5-2.5h27c1.4 0 2.5 1.1 2.5 2.5v40z"/><path class="st0" d="M423.5 12.4h-25c-.8 0-1.5.7-1.5 1.5v32c0 .8.7 1.5 1.5 1.5h25c.8 0 1.5-.7 1.5-1.5v-32c0-.8-.7-1.5-1.5-1.5zm-1.5 32h-22v-29h22v29z"/><circle class="st0" cx="411" cy="51.4" r="2.2"/><path class="st0" d="M498 9.7h-35.4c-.8 0-1.5.7-1.5 1.5V17c-4 1.1-6.3 5.2-5.2 9.2.5 1.8 1.6 3.3 3.1 4.3-3.8 1.6-6.3 5.3-6.4 9.5v11.1c0 .4.1.8.4 1.1 2.6 2.5 6.1 3.9 9.8 3.9 3.6 0 7.2-1.4 9.8-3.9.2-.3.4-.7.4-1.1V39.9c0-.4-.1-.8-.1-1.2H498c.8 0 1.5-.7 1.5-1.5v-26c0-.8-.7-1.5-1.5-1.5zm-39.5 14.5c0-2.5 2-4.5 4.5-4.5s4.5 2 4.5 4.5-2 4.5-4.5 4.5-4.5-1.9-4.5-4.5c0 .1-.1 0 0 0zM470 50.4c-4.2 3.5-10.3 3.5-14.5 0V39.9c.1-4 3.2-7.2 7.2-7.3 4 0 7.3 3.2 7.3 7.2v10.6zm26.5-14.7h-24.4c-1.1-2.3-2.9-4.1-5.2-5.1 3.5-2.1 4.7-6.7 2.5-10.3-1.2-1.9-3.2-3.2-5.4-3.5v-4.1h32.5v23z"/><path class="st0" d="M491.1 31.1h-13c-.8 0-1.5-.7-1.5-1.5s.7-1.5 1.5-1.5h13c.8 0 1.5.7 1.5 1.5s-.6 1.5-1.5 1.5zM491.1 25.1h-13c-.8 0-1.5-.7-1.5-1.5s.7-1.5 1.5-1.5h13c.8 0 1.5.7 1.5 1.5s-.6 1.5-1.5 1.5zM491.1 19.1h-13c-.8 0-1.5-.7-1.5-1.5s.7-1.5 1.5-1.5h13c.8 0 1.5.7 1.5 1.5s-.6 1.5-1.5 1.5zM564 56.9h-46v-40h-2v-8h25v8h-2v20l11.5-10.6L566 41.9h-2v15zm-6.1-3h3.1v-12h-22v12h3v-9h15.9v9zm-12.9 0h9.9v-6H545v6zm-12 0h3v-12h-15v12h3v-9h9v9zm-6 0h3v-6h-3v6zm14.3-15h17.5l-8.3-8.4-9.2 8.4zm-11.3 0h6v-2h-6v2zm-9 0h6v-2h-6v2zm9-5h6v-2h-6v2zm-9 0h6v-2h-6v2zm9-5h6v-2h-6v2zm-9 0h6v-2h-6v2zm9-5h6v-2h-6v2zm-9 0h6v-2h-6v2zm9-5h6v-2h-6v2zm-9 0h6v-2h-6v2zm-2-5h19v-2h-19v2zM692.8 38.2v-8c0-7.1-5.8-12.9-13-12.8-7.1 0-12.9 5.8-12.8 12.9v7.9l-4.9 11.9c-.2.5-.1 1 .1 1.4.3.4.7.7 1.2.7h10.4c.3 2.9 2.8 5.1 5.7 5.1s5.4-2.2 5.7-5.1h11c.5 0 1-.2 1.2-.7.3-.4.3-.9.1-1.4l-4.7-11.9zm-13.2 16.1c-.9 0-1.7-.5-2.2-1.2h4.5c-.5.7-1.3 1.2-2.3 1.2zm-13.9-5.1l4.2-10.1c.1-.2.1-.4.1-.6v-8.2c0-5.4 4.4-9.8 9.8-9.8s9.8 4.3 10 9.7v8.3c0 .2 0 .4.1.6l4.2 10.1h-28.4zM667 18.3c.6.6 1.5.6 2.1 0s.6-1.5 0-2.1l-2.3-2.3c-.6-.6-1.5-.6-2.1 0s-.6 1.5 0 2.1l2.3 2.3zM664.6 29.2c0-.8-.7-1.5-1.5-1.5h-3.3c-.8 0-1.5.7-1.5 1.5s.7 1.5 1.5 1.5h3.3c.9 0 1.5-.7 1.5-1.5zM680 14.8c.8 0 1.5-.7 1.5-1.5V10c0-.8-.7-1.5-1.5-1.5s-1.5.7-1.5 1.5v3.3c.1.8.7 1.5 1.5 1.5zM693 18.3l2.3-2.3c.6-.6.6-1.5 0-2.1s-1.5-.6-2.1 0l-2.3 2.3c-.6.6-.6 1.5 0 2.1s1.6.6 2.1 0zM700.2 27.7h-3.3c-.8 0-1.5.7-1.5 1.5s.7 1.5 1.5 1.5h3.3c.8 0 1.5-.7 1.5-1.5s-.6-1.5-1.5-1.5zM759.5 12.9H754v-1.5c0-3-2.5-5.5-5.5-5.5h-7c-3 0-5.5 2.5-5.5 5.5v1.5h-5.5c-3 0-5.5 2.5-5.5 5.5v6c0 .8.7 1.5 1.5 1.5h.5v28.5c0 3 2.5 5.5 5.5 5.5h25c3 0 5.5-2.5 5.5-5.5V25.9h.5c.8 0 1.5-.7 1.5-1.5v-6c0-3-2.4-5.5-5.5-5.5zM739 11.4c0-1.4 1.1-2.5 2.5-2.5h7c1.4 0 2.5 1.1 2.5 2.5v1.5h-12v-1.5zm21 43c0 1.4-1.1 2.5-2.5 2.5h-25c-1.4 0-2.5-1.1-2.5-2.5V25.9h30v28.5zm2-31.5h-34v-4.5c0-1.4 1.1-2.5 2.5-2.5h29c1.4 0 2.5 1.1 2.5 2.5v4.5z"/><path class="st0" d="M745 50.9c.8 0 1.5-.7 1.5-1.5v-16c0-.8-.7-1.5-1.5-1.5s-1.5.7-1.5 1.5v16c.1.8.7 1.5 1.5 1.5zM737 50.9c.8 0 1.5-.7 1.5-1.5v-16c0-.8-.7-1.5-1.5-1.5s-1.5.7-1.5 1.5v16c.1.8.7 1.5 1.5 1.5zM753 50.9c.8 0 1.5-.7 1.5-1.5v-16c0-.8-.7-1.5-1.5-1.5s-1.5.7-1.5 1.5v16c.1.8.7 1.5 1.5 1.5zM827.5 56.8h-35c-.8 0-1.5-.7-1.5-1.5v-5c0-.8.7-1.5 1.5-1.5h2.8l1.7-6.9c0-.1.1-.2.1-.3L801 26c0-.1.1-.2.1-.3l3.9-15.6c.2-.7.8-1.1 1.5-1.1h7c.7 0 1.3.5 1.5 1.1l3.9 15.6c0 .1.1.2.1.3l3.9 15.6c0 .1.1.2.1.3l1.7 6.9h2.8c.8 0 1.5.7 1.5 1.5v5c0 .8-.6 1.5-1.5 1.5zm-33.5-3h32v-2h-32v2zm4.4-5h23.2l-1.2-4.9h-20.7l-1.3 4.9zm2-8h19.1l-1.2-4.9h-16.7l-1.2 4.9zm2-7.9h15.2l-1.2-4.9h-12.7l-1.3 4.9zm2-8h11.1l-1.2-4.9h-8.7l-1.2 4.9zm2-7.9h7.2l-1.2-5h-4.7l-1.3 5zM880.6 52.7h-11.2c-.8 0-1.5-.7-1.5-1.5V40h-11.1c-.8 0-1.5-.7-1.5-1.5V27.4c0-.8.7-1.5 1.5-1.5h11.1V14.6c0-.8.7-1.5 1.5-1.5h11.2c.8 0 1.5.7 1.5 1.5v11.2h11.1c.8 0 1.5.7 1.5 1.5v11.2c0 .8-.7 1.5-1.5 1.5h-11.1v11.1c0 .9-.6 1.5-1.5 1.6zm-9.7-3h8.2V38.5c0-.8.7-1.5 1.5-1.5h11.1v-8.2h-11.1c-.8 0-1.5-.7-1.5-1.5V16.1h-8.2v11.2c0 .8-.7 1.5-1.5 1.5h-11.1V37h11.1c.8 0 1.5.7 1.5 1.5v11.2zM963 16.7c-2.6-2.6-7.5-5.5-12.8-5.2-4 .2-7.7 2.1-10.3 5.2-9.4-7.2-18.8-4.1-22.9 0-2.9 3-4.5 7-4.5 11.2 0 3.4 1 8.4 5.8 13.3l3.5 3.5.1.1 7.4 6.3c.3.2.6.3.9.4.7.3 1.4.5 2.2.5.6 0 1.2-.1 1.7-.4.2.5.6 1 1 1.4.8.9 2 1.3 3.2 1.3h.1c1.1 0 2.2-.5 3-1.3l1.4-1.4c.2.6.6 1.2 1.1 1.6.7.7 1.6 1 2.5 1 1.3.1 2.6-.3 3.5-1.2l11.9-11.9c3.7-3.5 5.8-8.3 5.8-13.3-.1-4.1-1.7-8.1-4.6-11.1zm-17.1 34.6c-.4-.3-.6-.8-.6-1.3 0-.4.1-.8.3-1.1l8.4-8.4c.6-.6.6-1.5 0-2.1s-1.5-.6-2.1 0L939.2 51c-.2.3-.6.4-.9.4-.4 0-.9-.2-1.2-.5-.3-.2-.4-.6-.4-.9 0-.4.1-.8.4-1.1l10.6-10.6c.6-.6.6-1.5 0-2.1s-1.5-.6-2.1 0L935 46.8l-.1.1-1.8 1.8c-.2.3-.6.4-.9.4-.8-.1-1.5-.7-1.6-1.5 0-.4.2-.7.4-1l10.7-10.4c.6-.6.6-1.5 0-2.1s-1.5-.6-2.1 0l-8.9 8.5c-.6.6-1.5.6-2 0-.3-.2-.4-.6-.4-.9 0-.4.2-.8.4-1.1l11.6-11.4 3.9 4.2c.8.9 1.9 1.4 3.1 1.4 1.2 0 2.3-.5 3.2-1.3s1.4-1.9 1.4-3.1-.5-2.4-1.3-3.3l-8-8-.4-.4c2-2.5 5-4 8.2-4.2 3.9 0 7.7 1.5 10.5 4.3 4.6 4.7 5.7 13.3-1.3 20.3l-12 11.9c-.5.4-1.1.5-1.7.3zm-18-5.3l-4-3.4-3.5-3.5c-6.9-6.9-5.8-15.6-1.3-20.3 6.9-6.9 16.8-2.2 21.4 2.4l8 8c.3.3.5.7.5 1.1s-.2.8-.5 1c-.3.3-.7.5-1.1.5-.3 0-.7-.2-.9-.4l-5-5.3c-.3-.3-.7-.5-1.1-.5-.4 0-.8.1-1.1.4l-12.8 12.2c-.9.9-1.4 2.1-1.3 3.3 0 1.1.5 2.2 1.3 3 .4.4.9.8 1.5 1 0 .2 0 .3-.1.5zM1005 53.9c-11.6 0-21-9.4-21-21s9.4-21 21-21 21 9.4 21 21-9.4 21-21 21zm-4.9-3.7c3.2.9 6.6.9 9.8 0v-.1l1.5-5.8-2.4-3.2h-8.2l-2.4 3.2 1.7 5.9zm-7.6-4.4c1.2 1.2 2.6 2.2 4.2 3l-.8-3.2-3.4.2zm21.8-.2l-.9 3.3c1.6-.8 3-1.8 4.2-3.1l-3.3-.2zm-27.3-12c.1 3.3 1.1 6.5 3 9.3h.2l5.8-.3 2.5-3.4-2.5-7.8-3.9-1.2-5.1 3.4zm26.9 8.9l6.1.3c1.9-2.8 2.9-6 3-9.3-.1 0-.1 0-.1-.1l-4.9-3.2-3.8 1.2-2.6 7.9 2.3 3.2zm-12.6-4.4h7.5l2.3-7.1-6.1-4.4-6 4.4 2.3 7.1zM988.8 25c-.7 1.5-1.3 3.1-1.6 4.8l2.7-1.8-1.1-3zm31.2 3l2.8 1.8c-.3-1.7-.8-3.3-1.6-4.8l-1.2 3zm-27.1-.6l4.1 1.3 6.5-4.7v-4.2l-4.6-3.7c-3.2 1.2-6 3.2-8.1 5.9l2.1 5.4zm13.6-3.5l6.5 4.7 3.9-1.3 2.2-5.6c-2.1-2.6-4.9-4.6-8-5.8l-4.6 3.7v4.3zm-4-8.8l2.5 2 2.5-2c-1.6-.3-3.3-.3-5 0zM1091.9 39l-7.5-15.2 5.4-15.2c.2-.5.1-1-.2-1.4-.3-.4-.7-.6-1.2-.6H1055c-.6 0-1.2.4-1.4 1l-5.6 15.8c-.1.4-.1.8.1 1.2l7.6 15.5-.1 17.6c0 .4.2.8.4 1.1.3.3.7.4 1.1.4h33.5c.8 0 1.5-.7 1.5-1.5v-18c0-.2-.1-.5-.2-.7zm-35.8-29.4h30.2l-4.6 12.9h-30.2l4.6-12.9zm-4.2 15.9h17.2c0 .6-.1 1.1-.2 1.7-.2.8.3 1.6 1.1 1.8h.4c.7 0 1.3-.5 1.5-1.1.2-.8.3-1.6.3-2.4h9.8l6.3 12.7h-22c.1-.8-.5-1.6-1.3-1.7-.8-.1-1.6.5-1.7 1.3v.4h-5l-6.4-12.7zm6.7 30.7l.1-15h4.6v.1c.2.7.8 1.1 1.5 1.1h.4c.6-.1 1-.6 1.1-1.2h22.8v15h-30.5z"/><path class="st0" d="M1065.7 19.1c.7.6 1.3 1.2 1.8 1.9.3.4.7.6 1.2.6.3 0 .6-.1.9-.3.7-.5.8-1.4.3-2v-.1c-.7-.9-1.5-1.7-2.4-2.4-.6-.5-1.6-.4-2.1.2-.5.6-.4 1.6.3 2.1zM1076.4 48l-2.7-.6c-.8-.3-1.7.1-1.9.9s.1 1.7.9 1.9h.1c1 .3 2 .6 3.1.7h.2c.8 0 1.4-.6 1.5-1.3.2-.8-.3-1.5-1.2-1.6.1 0 .1 0 0 0zM1069.7 45.3c-.7-.5-1.4-1.1-1.9-1.8-.5-.6-1.5-.7-2.1-.2s-.7 1.5-.2 2.1c.7.9 1.6 1.6 2.5 2.3.3.2.6.3.9.3.5 0 .9-.2 1.2-.6.5-.7.3-1.6-.4-2.1zM1065.8 34.7c.3.2.6.3.9.3.5 0 .9-.2 1.2-.6.2-.3.5-.6.7-.9l1.2-1.5c.5-.7.4-1.6-.3-2.1s-1.6-.4-2.1.3c-.3.4-.6.8-1 1.2-.3.4-.6.7-.9 1.1-.5.7-.4 1.7.3 2.2z"/><path d="M1.5 127.4h39c.8 0 1.5.7 1.5 1.5v48c0 .8-.7 1.5-1.5 1.5h-39c-.8 0-1.5-.7-1.5-1.5v-48c0-.8.7-1.5 1.5-1.5z"/><path class="st1" d="M3 130.4h36v45H3z"/><path d="M21 137.8c-4-.2-7.5 2.9-7.7 6.9v.5c0 .8.7 1.5 1.5 1.5s1.5-.7 1.5-1.5c-.1-2.4 1.8-4.4 4.2-4.4h.5c1.6-.1 3.1.7 4 2 .8 1.3.8 2.9.1 4.2-.6 1.1-1.4 2.1-2.3 3-1.7 1.8-3.9 4-3.9 7.8 0 .8.7 1.5 1.5 1.5s1.5-.7 1.5-1.5c0-2.6 1.4-4.1 3-5.7 1.2-1.1 2.2-2.4 2.9-3.9 1.1-2.3 1-4.9-.3-7.1-1.5-2.1-3.9-3.3-6.5-3.3zM20.4 162.9c-1 0-1.8.8-1.8 1.8s.8 1.8 1.8 1.8 1.8-.8 1.8-1.8-.8-1.8-1.8-1.8zM86 180.9c-9.3 0-19-7.9-19-21.1V140c0-2.7 2.1-4.9 4.8-5 .8 0 1.5.2 2.2.5V133c0-2.7 2.3-5 5-5 .8 0 1.5.2 2.2.5.8-2.6 3.6-4.1 6.3-3.3 1.6.5 2.8 1.7 3.3 3.3.7-.4 1.5-.5 2.2-.5 2.7 0 5 2.3 5 5v8.4c.6-.3 1.3-.4 2-.4 2.7 0 5 2.3 5 5v11.9c0 16.7-11.7 23-19 23z"/><path class="st2" d="M71.8 138c-1 .1-1.8 1-1.8 2v19.8c0 11.3 8.1 18.1 16 18.1 11.7 0 16-12.3 16-20V146c0-1.1-.9-2-2-2s-2 .9-2 2v6.8c0 .8-.7 1.5-1.5 1.5s-1.5-.7-1.5-1.5V133c0-1.1-.9-2-2-2s-2 .9-2 2v14.8c0 .8-.7 1.5-1.5 1.5s-1.5-.7-1.5-1.5V130c0-1.1-.9-2-2-2s-2 .9-2 2v20.8c0 .8-.7 1.5-1.5 1.5s-1.5-.7-1.5-1.5V133c0-1.1-.9-2-2-2s-2 .9-2 2v21c0 .8-.7 1.5-1.5 1.5s-1.5-.7-1.5-1.5v-14c-.1-1.1-1-2-2.2-2z"/><path d="M170.5 178.4h-39v-10h6v-31h-6v-10h39v10h-6v31h6z"/><path class="st3" d="M134.5 171.4h33v4h-33z"/><path class="st0" d="M156.5 137.4h5v31h-5zM148.5 137.4h5v31h-5zM140.5 137.4h5v31h-5z"/><path class="st3" d="M164.5 134.4h3v-4h-33v4z"/><path d="M219.4 185.8h-.6c-3.4-.1-6.1-1.5-7.6-3.7-6.6-2.6-10.9-8.7-12-17.2-1.6-11.6 3-24.5 10.7-30.4 1.3-10.5 8.9-14.5 13.5-14.5 2.4 0 3.9 2.1 4.1 5.8 3.2.7 5.6 3.5 5.6 6.9 0 2.7-1.5 5.1-3.9 6.3l-.3.1v30.2c2.6 1.1 4.2 3.7 4.2 6.5 0 3.3-2.4 6.2-5.7 6.8-1.6 2-4.7 3.2-8 3.2z"/><path class="st2" d="M223.4 123c-3.7 0-9.8 3.4-10.6 12.4 0 .4-.3.8-.6 1.1-7 5-11.4 17.3-10 28 .6 4.4 2.7 12.1 10.6 15 .3.1.6.4.8.7.8 1.5 2.8 2.5 5.3 2.6 1.5.1 3-.2 4.3-.7-2.5-1.1-4.1-3.6-4.1-6.4 0-3.8 3-6.9 6.8-7v-29.1c-3.8-.1-6.8-3.2-6.8-7 .1-3.2 2.3-6 5.4-6.8-.1-1.8-.6-2.8-1.1-2.8z"/><path class="st0" d="M226.1 171.7c-2.2 0-4 1.8-4 4s1.8 4 4 4 4-1.8 4-4-1.8-4-4-4zM226.1 128.6c-2.2.1-4 1.9-4 4.1 0 2.2 1.9 4 4.1 3.9 1.1 0 2.1-.5 2.8-1.3.7-.7 1.1-1.7 1.1-2.7 0-2.2-1.8-4-4-4z"/><path d="M211.9 176.5c-.3 0-.6-.1-.9-.3-3.9-3.1-6.5-7.6-7-12.6 0-.1-.1-.3-.1-.4v-.1c-.1-.8-.2-1.6-.2-2.4-.2-7.8 2.8-16.1 7.2-19.8.6-.5 1.6-.5 2.1.2.2.3.4.6.4 1V175c0 .6-.3 1.1-.8 1.3-.2.2-.4.2-.7.2z"/><path class="st0" d="M207.2 164.7c.5 2.5 1.6 4.9 3.2 6.9v-6.9h-3.2zM206.8 161.7h3.6v-15.5c-2.6 4.4-3.8 9.4-3.7 14.5 0 .3.1.7.1 1z"/><path d="M280.5 179.2c-1.3 0-2.6-.6-3.6-1.6l-.4-.4v-17.3c-5.5-2.1-9.6-8.6-9.6-16.2 0-9.4 6.1-17 13.6-17 3.2 0 6.2 1.3 8.5 3.6 3.4 3.6 5.3 8.4 5.1 13.3 0 7.7-4 14.2-9.6 16.3v17.3l-.4.4c-1 1-2.3 1.5-3.6 1.6z"/><path class="st0" d="M279.5 175.9c.6.4 1.4.4 2 0v-15.2c-.7.1-1.3.1-2 0v15.2z"/><path class="st4" d="M280.6 129.6h-.1c-5.9 0-10.6 6.3-10.6 14s4.8 14 10.6 14 10.6-6.3 10.6-14.1c.1-4.1-1.4-8.2-4.2-11.2-1.7-1.6-3.9-2.6-6.3-2.7z"/><path d="M292.5 177.6h-3v-5.4c-1.5-.9-2.6-3-2.6-5.6 0-3.4 1.8-6 4.1-6s4.1 2.6 4.1 6c0 2.6-1.1 4.7-2.6 5.6v5.4z"/><path class="st4" d="M291 163.6c-.2 0-1.1 1-1.1 3s.9 3 1.1 3 1.1-1.1 1.1-3-.9-3-1.1-3z"/><path d="M357.9 172.5h-.5c-2.6 0-5.2-1-7.2-2.8l-.5-.4v-8.7c0-2.5 1.2-4.9 3.3-6.4-2.5-2.3-2.6-6.2-.3-8.6 2.3-2.5 6.2-2.6 8.6-.3 1.2 1.2 1.9 2.8 1.9 4.4 0 1.6-.7 3.2-1.9 4.3 2.2 1.4 3.6 3.8 3.6 6.5v8.6l-.4.4c-1.5 2-4 3.1-6.6 3z"/><path class="st3" d="M352.8 167.9c1.4 1 3 1.6 4.7 1.6 1.7.1 3.3-.4 4.6-1.5v-7.4c0-2.6-2.1-4.7-4.7-4.7v-.6.6c-2.5.1-4.6 2.2-4.5 4.7l-.1 7.3z"/><path class="st0" d="M357.3 146.7c-1.7 0-3.1 1.4-3.1 3.1 0 1.7 1.4 3.1 3.1 3.1s3.1-1.4 3.1-3.1c0-1.7-1.4-3.1-3.1-3.1z"/><path d="M337.4 172.5h-.4c-3.6 0-7-1.3-9.6-3.8l-.4-.4v-11.7c0-3.7 2-7 5.2-8.8-2-1.5-3.2-3.8-3.2-6.4 0-4.4 3.5-8 8-8s8 3.5 8 8c0 2.4-1.1 4.8-3 6.3 3.4 1.8 5.5 5.3 5.5 9.1v11.7l-.5.4c-2.6 2.3-6.1 3.6-9.6 3.6z"/><path class="st3" d="M329.9 167c4.2 3.4 10.2 3.4 14.5.1v-10.5c0-4-3.3-7.3-7.3-7.3-3.9.1-7.1 3.3-7.2 7.2V167z"/><path class="st0" d="M336.9 136.3c-2.8 0-5 2.2-5 5 .1 2.8 2.4 5 5.2 5 2.8 0 5-2.3 4.9-5.1s-2.3-4.9-5.1-4.9z"/><path d="M397.5 127.4h27c3 0 5.5 2.5 5.5 5.5v40c0 3-2.5 5.5-5.5 5.5h-27c-3 0-5.5-2.5-5.5-5.5v-40c0-3 2.5-5.5 5.5-5.5z"/><path class="st2" d="M397.5 130.4h27c1.4 0 2.5 1.1 2.5 2.5v40c0 1.4-1.1 2.5-2.5 2.5h-27c-1.4 0-2.5-1.1-2.5-2.5v-40c0-1.4 1.1-2.5 2.5-2.5z"/><path d="M398.5 132.4h25c.8 0 1.5.7 1.5 1.5v32c0 .8-.7 1.5-1.5 1.5h-25c-.8 0-1.5-.7-1.5-1.5v-32c0-.8.7-1.5 1.5-1.5z"/><path class="st0" d="M400 135.4h22v29h-22z"/><circle cx="411" cy="171.4" r="2.2"/><path d="M462.8 176.1c-3.7 0-7.2-1.4-9.8-3.9-.3-.3-.4-.7-.4-1.1V160c.1-4.2 2.6-7.9 6.5-9.5-3.5-2.2-4.5-6.9-2.2-10.4 1-1.5 2.5-2.6 4.3-3.1v-5.8c0-.8.7-1.5 1.5-1.5H498c.8 0 1.5.7 1.5 1.5v26c0 .8-.7 1.5-1.5 1.5h-25.1c0 .4.1.8.1 1.2v11.2c0 .4-.2.8-.4 1.1-2.7 2.5-6.2 3.9-9.8 3.9z"/><path class="st1" d="M455.5 170.5c3.6 3.2 10.2 3.8 14.5 0v-10.6c0-4-3.3-7.2-7.3-7.2-4 .1-7.1 3.3-7.2 7.3v10.5z"/><path class="st0" d="M472.1 155.7h24.4v-23H464v4.1c4.1.6 7 4.3 6.4 8.4-.3 2.2-1.6 4.2-3.5 5.4 2.3 1 4.1 2.8 5.2 5.1z"/><circle class="st0" cx="463" cy="144.2" r="4.5"/><path d="M491.2 151.1h-13c-.8 0-1.5-.7-1.5-1.5s.7-1.5 1.5-1.5h13c.8 0 1.5.7 1.5 1.5s-.7 1.5-1.5 1.5zM491.2 145.1h-13c-.8 0-1.5-.7-1.5-1.5s.7-1.5 1.5-1.5h13c.8 0 1.5.7 1.5 1.5s-.7 1.5-1.5 1.5zM491.2 139.1h-13c-.8 0-1.5-.7-1.5-1.5s.7-1.5 1.5-1.5h13c.8 0 1.5.7 1.5 1.5s-.7 1.5-1.5 1.5zM564 176.9h-46v-40h-2v-8h25v8h-2v20l11.5-10.6 15.5 15.6h-2z"/><path class="st5" d="M557.9 173.9h3.1v-12h-22v12h3v-9h15.9z"/><path class="st0" d="M545 167.9h9.9v6H545z"/><path class="st5" d="M533 173.9h3v-12h-15v12h3v-9h9z"/><path class="st0" d="M527 167.9h3v6h-3z"/><path class="st5" d="M541.3 158.9h17.5l-8.3-8.4zM530 156.9h6v2h-6zM521 156.9h6v2h-6zM530 151.9h6v2h-6zM521 151.9h6v2h-6zM530 146.9h6v2h-6zM521 146.9h6v2h-6zM530 141.9h6v2h-6zM521 141.9h6v2h-6zM530 136.9h6v2h-6zM521 136.9h6v2h-6zM519 131.9h19v2h-19z"/><path d="M692.8 158.2v-8c0-7.1-5.8-12.9-13-12.8-7.1 0-12.9 5.8-12.8 12.9v7.9l-4.9 11.9c-.3.8.1 1.6.8 2 .2.1.4.1.6.1H674c.3 3.1 3.1 5.4 6.3 5.1 2.7-.3 4.8-2.4 5.1-5.1h11c.8 0 1.5-.7 1.5-1.5 0-.2 0-.4-.1-.6l-5-11.9z"/><path class="st0" d="M679.6 174.3c-.9 0-1.7-.5-2.2-1.2h4.5c-.5.7-1.4 1.2-2.3 1.2z"/><path class="st1" d="M665.8 169.2l4.2-10.1c.1-.2.1-.4.1-.6v-8.2c0-5.4 4.4-9.8 9.8-9.8s9.8 4.3 10 9.7v8.3c0 .2 0 .4.1.6l4.2 10.1h-28.4z"/><path d="M667 138.3c.6.6 1.5.6 2.1 0s.6-1.5 0-2.1l-2.3-2.3c-.6-.6-1.5-.6-2.1 0s-.6 1.5 0 2.1l2.3 2.3zM664.6 149.2c0-.8-.7-1.5-1.5-1.5h-3.3c-.8 0-1.5.7-1.5 1.5s.7 1.5 1.5 1.5h3.3c.9 0 1.5-.7 1.5-1.5zM680 134.8c.8 0 1.5-.7 1.5-1.5V130c0-.8-.7-1.5-1.5-1.5s-1.5.7-1.5 1.5v3.3c.1.8.7 1.5 1.5 1.5zM693 138.3l2.3-2.3c.6-.6.6-1.5 0-2.1s-1.5-.6-2.1 0l-2.3 2.3c-.6.6-.6 1.5 0 2.1s1.6.6 2.1 0zM700.2 147.7h-3.3c-.8 0-1.5.7-1.5 1.5s.7 1.5 1.5 1.5h3.3c.8 0 1.5-.7 1.5-1.5s-.6-1.5-1.5-1.5zM759.5 132.9H754v-1.5c0-3-2.5-5.5-5.5-5.5h-7c-3 0-5.5 2.5-5.5 5.5v1.5h-5.5c-3 0-5.5 2.5-5.5 5.5v6c0 .8.7 1.5 1.5 1.5h.5v28.5c0 3 2.5 5.5 5.5 5.5h25c3 0 5.5-2.5 5.5-5.5v-28.5h.5c.8 0 1.5-.7 1.5-1.5v-6c0-3-2.4-5.5-5.5-5.5z"/><path class="st0" d="M739 131.4c0-1.4 1.1-2.5 2.5-2.5h7c1.4 0 2.5 1.1 2.5 2.5v1.5h-12v-1.5z"/><path class="st4" d="M760 174.4c0 1.4-1.1 2.5-2.5 2.5h-25c-1.4 0-2.5-1.1-2.5-2.5v-28.5h30v28.5z"/><path class="st0" d="M762 142.9h-34v-4.5c0-1.4 1.1-2.5 2.5-2.5h29c1.4 0 2.5 1.1 2.5 2.5v4.5z"/><path d="M745 170.9c.8 0 1.5-.7 1.5-1.5v-16c0-.8-.7-1.5-1.5-1.5s-1.5.7-1.5 1.5v16c.1.8.7 1.5 1.5 1.5zM737 170.9c.8 0 1.5-.7 1.5-1.5v-16c0-.8-.7-1.5-1.5-1.5s-1.5.7-1.5 1.5v16c.1.8.7 1.5 1.5 1.5zM753 170.9c.8 0 1.5-.7 1.5-1.5v-16c0-.8-.7-1.5-1.5-1.5s-1.5.7-1.5 1.5v16c.1.8.7 1.5 1.5 1.5zM827.5 176.8h-35c-.8 0-1.5-.7-1.5-1.5v-5c0-.8.7-1.5 1.5-1.5h2.8l1.7-6.9.1-.2L801 146l.1-.2 3.9-15.6c.2-.7.8-1.2 1.5-1.1h7c.7 0 1.3.5 1.5 1.1l3.9 15.6.1.2 3.9 15.6.1.2 1.7 6.9h2.8c.8 0 1.5.7 1.5 1.5v5c.1.9-.6 1.6-1.5 1.6.1 0 0 0 0 0z"/><path class="st5" d="M794 171.8h32v2h-32z"/><path class="st0" d="M798.5 168.8h23.1l-1.2-4.9h-20.7z"/><path class="st5" d="M800.5 160.8h19.1l-1.2-4.9h-16.7z"/><path class="st0" d="M802.5 152.9h15.1l-1.2-4.9h-12.7z"/><path class="st5" d="M804.5 144.9h11.1l-1.2-4.9h-8.7z"/><path class="st0" d="M806.5 137h7.1l-1.2-5h-4.7z"/><path d="M880.6 172.7h-11.2c-.8 0-1.5-.7-1.5-1.5v-11.1h-11.1c-.8 0-1.5-.7-1.5-1.5v-11.2c0-.8.7-1.5 1.5-1.5h11.1v-11.2c0-.8.7-1.5 1.5-1.5h11.2c.8 0 1.5.7 1.5 1.5v11.2h11.1c.8 0 1.5.7 1.5 1.5v11.2c0 .8-.7 1.5-1.5 1.5h-11.1v11.1c0 .8-.6 1.5-1.5 1.5z"/><path class="st4" d="M870.9 169.7h8.2v-11.1c0-.8.7-1.5 1.5-1.5h11.1v-8.2h-11.1c-.8 0-1.5-.7-1.5-1.5v-11.2h-8.2v11.2c0 .8-.7 1.5-1.5 1.5h-11.1v8.2h11.1c.8 0 1.5.7 1.5 1.5v11.1z"/><path d="M963 136.7c-2.6-2.6-7.5-5.5-12.8-5.2-4 .2-7.8 2.1-10.3 5.2-9.4-7.2-18.8-4.1-22.9 0-2.9 3-4.5 7-4.5 11.2 0 5 2.1 9.8 5.8 13.3l3.5 3.5.1.1 7.4 6.3c.2.2.5.3.8.4 1.2.6 2.6.7 3.8.1.2.6.6 1 1 1.4.8.8 2 1.3 3.2 1.3h.1c1.1 0 2.2-.5 3-1.3l1.4-1.4c.3.6.6 1.2 1.1 1.6.7.6 1.6 1 2.5 1 1.3.1 2.6-.3 3.5-1.2l11.9-11.9c3.7-3.4 5.8-8.2 5.8-13.3.1-4.1-1.5-8.1-4.4-11.1z"/><path class="st3" d="M946 171.2c-.3-.4-.6-.8-.6-1.3 0-.4.1-.8.3-1.1l8.4-8.4c.6-.6.6-1.5.1-2.1-.6-.6-1.5-.6-2.1-.1 0 0-.1 0-.1.1L939.2 171c-.2.3-.6.4-.9.4-.4 0-.9-.2-1.2-.5-.3-.2-.4-.6-.4-.9 0-.4.1-.8.4-1.1l10.6-10.6c.6-.6.6-1.5.1-2.1-.6-.6-1.5-.6-2.1-.1 0 0-.1 0-.1.1L935 166.7l-.1.1-1.8 1.8c-.2.3-.6.4-.9.4-.4 0-.8-.2-1.1-.5s-.4-.6-.5-1c0-.4.2-.7.5-1l10.7-10.5c.6-.6.6-1.5 0-2.1s-1.5-.6-2.1 0l-8.9 8.5c-.5.6-1.4.6-2 .1l-.1-.1c-.3-.2-.4-.6-.4-.9 0-.4.2-.8.4-1.1l11.6-11.1 3.9 4.2c.8.9 1.9 1.4 3.1 1.4 1.2 0 2.4-.5 3.2-1.3.9-.8 1.4-1.9 1.4-3.1 0-1.2-.5-2.4-1.3-3.3l-8-8-.4-.4c2-2.5 5-4 8.2-4.2 3.9 0 7.7 1.5 10.5 4.3 4.6 4.6 5.7 13.3-1.3 20.3L947.8 171c-.5.4-1.2.4-1.8.2z"/><path class="st0" d="M928 166l-4-3.4-3.5-3.4c-6.9-6.9-5.8-15.6-1.3-20.3 6.9-6.9 16.8-2.2 21.4 2.4l8 8c.3.3.5.7.5 1.1 0 .4-.2.7-.5 1s-.7.5-1.1.5c-.4 0-.7-.2-.9-.4l-5-5.3c-.3-.3-.7-.5-1-.5-.4 0-.8.1-1.1.4l-12.8 12.2c-.9.9-1.4 2.1-1.3 3.3 0 1.1.5 2.2 1.3 3 .4.4.9.8 1.5 1-.2.1-.2.2-.2.4z"/><circle cx="1005" cy="152.9" r="21"/><path class="st2" d="M1000.2 170.2c3.2.9 6.6.9 9.8 0v-.1l1.5-5.8-2.4-3.2h-8.2l-2.4 3.2 1.7 5.9z"/><path class="st0" d="M992.5 165.8c1.2 1.2 2.6 2.2 4.2 3l-.8-3.2-3.4.2zM1014.3 165.6l-.9 3.3c1.6-.8 3-1.9 4.2-3.1l-3.3-.2z"/><path class="st2" d="M987 153.6c.1 3.3 1.2 6.6 3 9.3h.2l5.8-.3 2.5-3.4-2.5-7.8-3.9-1.2-5.1 3.4zM1013.9 162.5l6.1.3c1.8-2.8 2.9-6 3-9.3l-.1-.1-4.9-3.2-3.8 1.2-2.6 7.9 2.3 3.2z"/><path class="st0" d="M1001.3 158.1h7.6l2.3-7.1-6.1-4.4-6.1 4.4zM988.9 145c-.7 1.5-1.3 3.1-1.5 4.8l2.7-1.8-1.2-3zM1020 148l2.8 1.8c-.3-1.7-.8-3.3-1.6-4.9l-1.2 3.1z"/><path class="st2" d="M993 147.4l4.1 1.3 6.5-4.7v-4.2l-4.6-3.7c-3.2 1.2-6 3.2-8.1 5.9l2.1 5.4zM1006.5 143.9l6.5 4.7 4-1.3 2.2-5.6c-2.1-2.6-4.9-4.6-8-5.8l-4.6 3.7-.1 4.3z"/><path class="st0" d="M1002.6 135.1l2.5 2 2.5-2c-1.7-.3-3.4-.3-5 0z"/><path d="M1092 159l-7.5-15.2 5.4-15.2c.2-.5.1-1-.2-1.4-.3-.4-.7-.6-1.2-.6H1055c-.6 0-1.2.4-1.4 1l-5.6 15.8c-.1.4-.1.8.1 1.2l7.6 15.5-.1 17.6c0 .8.7 1.5 1.5 1.5h33.5c.8 0 1.5-.7 1.5-1.5v-18c0-.3 0-.5-.1-.7z"/><path class="st0" d="M1056.1 129.6h30.2l-4.6 12.9h-30.2z"/><path class="st5" d="M1051.9 145.5h17.2c0 .6-.1 1.2-.2 1.7-.2.8.3 1.6 1.1 1.8h.4c.7 0 1.3-.5 1.5-1.1.2-.8.3-1.6.3-2.4h9.8l6.3 12.7h-22c.1-.8-.5-1.6-1.3-1.7-.8-.1-1.6.5-1.7 1.3v.4h-5l-6.4-12.7z"/><path class="st0" d="M1058.7 176.2l.1-15h4.7v.1c.2.7.8 1.1 1.5 1.1h.4c.6-.1 1-.6 1.1-1.2h22.8v15h-30.6z"/><path d="M1065.7 139.1c.7.5 1.3 1.2 1.8 1.9.3.4.7.6 1.2.6.8 0 1.5-.7 1.5-1.5 0-.3-.1-.6-.3-.9-.7-.9-1.5-1.7-2.4-2.4-.6-.5-1.6-.5-2.1.2s-.5 1.6.2 2.1c0-.1.1 0 .1 0zM1076.4 168c-.9-.1-1.8-.4-2.7-.6-.8-.3-1.6.2-1.9 1s.2 1.6 1 1.9c1 .3 2.1.6 3.2.7h.2c.7 0 1.4-.5 1.5-1.3.1-.8-.4-1.6-1.3-1.7zM1069.7 165.3c-.7-.5-1.4-1.1-1.9-1.8s-1.4-.8-2.1-.3-.8 1.4-.3 2.1l.1.1c.7.9 1.5 1.6 2.5 2.3.3.2.6.3.9.3.8 0 1.5-.7 1.5-1.5 0-.4-.3-.9-.7-1.2zM1065.8 154.7c.7.5 1.6.4 2.1-.3.2-.3.5-.6.7-.9l1.2-1.5c.5-.7.4-1.6-.3-2.1s-1.6-.4-2.1.3c0 0 0 .1-.1.1-.3.4-.6.8-1 1.2-.3.4-.6.7-.9 1.1-.4.6-.3 1.5.4 2.1zM637.6 148h-.5c-2-8.1-9.3-14.2-18.1-14.2-13.7 0-34.4.1-35.9 0-.9-.1-1.7.6-1.7 1.5v10.2c0 .8.7 1.5 1.5 1.5h4c.8 0 1.5-.6 1.5-1.5h6.9c4.2 0 5.1 2.6 5.1 6.9 0 10.3 8.4 18.6 18.6 18.6 8.7 0 16.1-6.1 18.1-14.2h.5c2.4 0 4.4-2 4.4-4.4s-2-4.4-4.4-4.4z"/><path class="st1" d="M587 142.6h8.4c8.1 0 8.1 7.4 8.1 9.9 0 8.6 7 15.6 15.6 15.6s15.6-7 15.6-15.6-7-15.6-15.6-15.6h-34.6v7.2h1c0-.9.6-1.5 1.5-1.5z"/><path d="M619 161.3c-4.9 0-8.8-4-8.8-8.8s4-8.8 8.8-8.8 8.8 4 8.8 8.8-4 8.8-8.8 8.8z"/><path class="st0" d="M619 146.6c-3.2 0-5.8 2.6-5.8 5.8s2.6 5.8 5.8 5.8 5.8-2.6 5.8-5.8-2.6-5.8-5.8-5.8z"/><path class="st1" d="M637.6 153.9c.8 0 1.4-.6 1.4-1.4s-.6-1.4-1.4-1.4c.1.8.1 1.9 0 2.8z"/><path class="st0" d="M637.6 27.6h-.5c-2-8.1-9.3-14.2-18.1-14.2-13.7 0-34.4.1-35.9 0-.9-.1-1.7.6-1.7 1.5V25c0 .8.7 1.5 1.5 1.5h4c.8 0 1.5-.6 1.5-1.5h6.9c4.2 0 5.1 2.6 5.1 6.9 0 10.3 8.4 18.6 18.6 18.6 8.7 0 16.1-6.1 18.1-14.2h.5c2.4 0 4.4-2 4.4-4.4 0-2.4-2-4.3-4.4-4.3zm-18.5 20c-8.6 0-15.6-7-15.6-15.6 0-2.5 0-9.9-8.1-9.9H587c-.9 0-1.5.6-1.5 1.5h-1v-7.2h34.6c8.6 0 15.6 7 15.6 15.6s-7 15.6-15.6 15.6zm18.5-14.2c.1-.9.1-2 0-2.8.8 0 1.4.6 1.4 1.4 0 .8-.6 1.4-1.4 1.4z"/><path class="st0" d="M619 23.2c-4.8 0-8.8 4-8.8 8.8s3.9 8.8 8.8 8.8c4.8 0 8.8-4 8.8-8.8s-4-8.8-8.8-8.8zm0 14.6c-3.2 0-5.8-2.6-5.8-5.8 0-3.2 2.6-5.8 5.8-5.8s5.8 2.6 5.8 5.8-2.6 5.8-5.8 5.8z"/></svg>