<svg xmlns="http://www.w3.org/2000/svg" viewBox="0 0 1018.1 185.81"><defs><style>.a{fill:#fff}.b{fill:#ff8285}.c{fill:#50d6eb}.d{fill:#ffd36b}.e{fill:#60c491}.f{fill:#e0f3f7}</style></defs><title>services-icons</title><path class="a" d="M40.5 7.4h-39A1.54 1.54 0 0 0 0 8.9v48a1.54 1.54 0 0 0 1.5 1.5h39a1.54 1.54 0 0 0 1.5-1.5v-48a1.54 1.54 0 0 0-1.5-1.5zm-1.5 48H3v-45h36z"/><path class="a" d="M14.8 26.7a1.54 1.54 0 0 0 1.5-1.5 4.34 4.34 0 0 1 4.7-4.4 4.55 4.55 0 0 1 4 2 4.18 4.18 0 0 1 .1 4.2 12.65 12.65 0 0 1-2.3 3c-1.7 1.8-3.9 4-3.9 7.8a1.5 1.5 0 0 0 3 0c0-2.6 1.4-4 3-5.7a11.38 11.38 0 0 0 2.9-3.9 7.42 7.42 0 0 0-.3-7.1 7.71 7.71 0 0 0-6.6-3.3 7.27 7.27 0 0 0-7.7 7.4 1.71 1.71 0 0 0 1.6 1.5zM20.4 42.9a1.8 1.8 0 1 0 1.8 1.8 1.79 1.79 0 0 0-1.8-1.8zM86 60.85c-9.3 0-19-7.9-19-21.1V20a5 5 0 0 1 4.8-5 5.45 5.45 0 0 1 2.2.5V13a5 5 0 0 1 7.2-4.5A5.08 5.08 0 0 1 86 5a5.17 5.17 0 0 1 4.8 3.5A5.45 5.45 0 0 1 93 8a5.08 5.08 0 0 1 5 5v8.4a4.48 4.48 0 0 1 2-.4 5.08 5.08 0 0 1 5 5v11.9c0 16.75-11.7 22.95-19 22.95zM71.8 18a2.05 2.05 0 0 0-1.8 2v19.8c0 11.3 8.1 18.1 16 18.1 11.7 0 16-12.3 16-20V26a2 2 0 0 0-4 0v6.8a1.5 1.5 0 0 1-3 0V13a2 2 0 0 0-4 0v14.8a1.5 1.5 0 0 1-3 0V10a2 2 0 0 0-4 0v20.8a1.5 1.5 0 0 1-3 0V13a2 2 0 0 0-4 0v21a1.5 1.5 0 0 1-3 0V20a2.12 2.12 0 0 0-2.2-2zM170.5 58.4h-39v-10h6v-31h-6v-10h39v10h-6v31h6zm-36-3h33v-4h-33zm22-7h5v-31h-5zm-8 0h5v-31h-5zm-8 0h5v-31h-5zm24-34h3v-4h-33v4zM219.34 65.8h-.6c-3.3-.1-6.1-1.5-7.5-3.7-6.6-2.6-10.9-8.7-12-17.2-1.5-11.6 3-24.5 10.7-30.4 1.2-10.6 8.9-14.5 13.5-14.5 2.4 0 3.9 2.1 4.1 5.8a7 7 0 0 1 5.5 6.8 7.06 7.06 0 0 1-3.9 6.3c-.1 0-.2.1-.3.1v30.2a7 7 0 0 1 4.2 6.5 7 7 0 0 1-5.7 6.8c-1.5 2.1-4.6 3.3-8 3.3zm4.1-62.8c-3.7 0-9.8 3.4-10.6 12.4a1.74 1.74 0 0 1-.6 1.1c-7 5-11.4 17.3-10 28 .6 4.4 2.7 12.1 10.6 15a1.78 1.78 0 0 1 .8.7c.8 1.5 2.8 2.5 5.3 2.6a9.74 9.74 0 0 0 4.3-.7 7 7 0 0 1 2.7-13.4V19.6a7 7 0 0 1-6.8-7 7.19 7.19 0 0 1 5.4-6.8c-.1-1.8-.6-2.8-1.1-2.8zm2.7 48.7a4 4 0 0 0-4 4 4.08 4.08 0 0 0 4 4 4 4 0 0 0 4-4 4 4 0 0 0-4-4zm0-43.1a4.17 4.17 0 0 0-4 4.1 4 4 0 0 0 4 3.9 3.93 3.93 0 0 0 2.9-1.3 3.86 3.86 0 0 0 1.1-2.7 4 4 0 0 0-4-4zm-14.2 47.9a1.61 1.61 0 0 1-.9-.3 18.15 18.15 0 0 1-7-12.6 4.33 4.33 0 0 1-.1-.5V43a19.42 19.42 0 0 1-.2-2.4c-.2-7.8 2.8-16.1 7.2-19.8a1.36 1.36 0 0 1 1.6-.2 1.57 1.57 0 0 1 .9 1.4v33a1.34 1.34 0 0 1-.8 1.3 1.85 1.85 0 0 1-.7.2zm-4.7-11.8a16.65 16.65 0 0 0 3.2 6.9v-6.9zm-.4-3h3.6V26.2c-2.4 3.7-3.8 9.3-3.7 14.5a3.4 3.4 0 0 0 .1 1zM289 10.3a11.66 11.66 0 0 0-8.5-3.6c-7.5 0-13.6 7.6-13.6 17 0 7.6 4 14.1 9.6 16.2v17.2l.4.4a5.19 5.19 0 0 0 3.6 1.6 5.08 5.08 0 0 0 3.6-1.5l.4-.4V39.9c5.6-2.1 9.6-8.6 9.6-16.3 0-5.2-1.8-10.1-5.1-13.3zm-7.5 45.5a1.82 1.82 0 0 1-2 0V40.6a6.7 6.7 0 0 0 2 0zm-1-18.2c-5.8 0-10.6-6.3-10.6-14s4.7-14 10.6-14h.1a8.8 8.8 0 0 1 6.3 2.7 15.66 15.66 0 0 1 4.2 11.2c0 7.8-4.8 14.1-10.6 14.1z"/><path class="a" d="M291 40.5c-2.3 0-4.1 2.6-4.1 6a6.44 6.44 0 0 0 2.6 5.6v5.4h3v-5.4a6.44 6.44 0 0 0 2.6-5.6c0-3.4-1.8-6-4.1-6zm0 9c-.3 0-1.1-1.1-1.1-3s.8-3 1.1-3 1.1 1.1 1.1 3-.8 3-1.1 3zM361.45 34.15a5.75 5.75 0 0 0 1.9-4.3 6.1 6.1 0 0 0-12.2 0 6 6 0 0 0 1.9 4.4 7.86 7.86 0 0 0-3.3 6.4v8.6l.5.4a10.66 10.66 0 0 0 7.2 2.8h.5a8.66 8.66 0 0 0 6.7-2.8l.4-.4v-8.6a7.68 7.68 0 0 0-3.6-6.5zm-4.1-7.5a3.12 3.12 0 0 1 3.1 3.1 3.25 3.25 0 0 1-3.1 3.1 3.1 3.1 0 0 1 0-6.2zm4.8 21.3a6.4 6.4 0 0 1-4.6 1.5 7.84 7.84 0 0 1-4.7-1.6h.1v-7.3a4.6 4.6 0 1 1 9.2 0zM342 27.55a8 8 0 1 0-13-6.2 7.91 7.91 0 0 0 3.2 6.4 10.14 10.14 0 0 0-5.2 8.8v11.7l.4.4a13.61 13.61 0 0 0 9.6 3.8h.5a13.46 13.46 0 0 0 9.5-3.7l.5-.4v-11.7a10.25 10.25 0 0 0-5.5-9.1zm-10-6.3a5 5 0 1 1 5.2 5 5.19 5.19 0 0 1-5.2-5zM344.45 47a10.73 10.73 0 0 1-7.4 2.5 11.05 11.05 0 0 1-7.1-2.6V36.45a7.44 7.44 0 0 1 7.2-7.2 7.34 7.34 0 0 1 7.3 7.3zM424.5 7.4h-27a5.55 5.55 0 0 0-5.5 5.5v40a5.55 5.55 0 0 0 5.5 5.5h27a5.55 5.55 0 0 0 5.5-5.5v-40a5.55 5.55 0 0 0-5.5-5.5zm2.5 45.5a2.48 2.48 0 0 1-2.5 2.5h-27a2.48 2.48 0 0 1-2.5-2.5v-40a2.48 2.48 0 0 1 2.5-2.5h27a2.48 2.48 0 0 1 2.5 2.5z"/><path class="a" d="M423.5 12.4h-25a1.54 1.54 0 0 0-1.5 1.5v32a1.54 1.54 0 0 0 1.5 1.5h25a1.54 1.54 0 0 0 1.5-1.5v-32a1.54 1.54 0 0 0-1.5-1.5zm-1.5 32h-22v-29h22z"/><circle class="a" cx="411" cy="51.4" r="2.2"/><path class="a" d="M498 9.7h-35.4a1.54 1.54 0 0 0-1.5 1.5V17a7.49 7.49 0 0 0-2.1 13.5 10.52 10.52 0 0 0-6.4 9.5v11.1a1.5 1.5 0 0 0 .4 1.1 13.84 13.84 0 0 0 9.8 3.9 14.18 14.18 0 0 0 9.8-3.9 2.1 2.1 0 0 0 .4-1.1V39.9c0-.4-.1-.8-.1-1.2H498a1.54 1.54 0 0 0 1.5-1.5v-26a1.54 1.54 0 0 0-1.5-1.5zm-39.5 14.5a4.5 4.5 0 1 1 4.5 4.5 4.48 4.48 0 0 1-4.55-4.5zM470 50.4a11.31 11.31 0 0 1-14.5 0V39.9a7.46 7.46 0 0 1 7.2-7.3 7.26 7.26 0 0 1 7.3 7.2zm26.5-14.7h-24.4a10.33 10.33 0 0 0-5.2-5.1 7.47 7.47 0 0 0-2.9-13.8v-4.1h32.5z"/><path class="a" d="M491.15 31.1h-13a1.5 1.5 0 0 1 0-3h13a1.5 1.5 0 0 1 0 3zM491.15 25.1h-13a1.5 1.5 0 0 1 0-3h13a1.5 1.5 0 0 1 0 3zM491.15 19.1h-13a1.5 1.5 0 0 1 0-3h13a1.5 1.5 0 0 1 0 3zM564 56.9h-46v-40h-2v-8h25v8h-2v20l11.5-10.6L566 41.9h-2zm-6.1-3h3.1v-12h-22v12h3v-9h15.9zm-12.9 0h9.9v-6H545zm-12 0h3v-12h-15v12h3v-9h9zm-6 0h3v-6h-3zm14.3-15h17.5l-8.3-8.4zm-11.3 0h6v-2h-6zm-9 0h6v-2h-6zm9-5h6v-2h-6zm-9 0h6v-2h-6zm9-5h6v-2h-6zm-9 0h6v-2h-6zm9-5h6v-2h-6zm-9 0h6v-2h-6zm9-5h6v-2h-6zm-9 0h6v-2h-6zm-2-5h19v-2h-19zM618.8 38.2v-8a12.9 12.9 0 0 0-25.8.1v7.9l-4.9 11.9a1.69 1.69 0 0 0 .1 1.4 1.52 1.52 0 0 0 1.2.7h10.4a5.66 5.66 0 0 0 5.7 5.1 5.74 5.74 0 0 0 5.7-5.1h11a1.21 1.21 0 0 0 1.2-.7 1.39 1.39 0 0 0 .1-1.4zm-13.2 16.1a2.75 2.75 0 0 1-2.2-1.2h4.5a3.1 3.1 0 0 1-2.3 1.2zm-13.9-5.1l4.2-10.1a1.27 1.27 0 0 0 .1-.6v-8.2a9.82 9.82 0 0 1 9.8-9.8 10 10 0 0 1 10 9.7v8.3a1.27 1.27 0 0 0 .1.6l4.2 10.1zM593 18.3a1.48 1.48 0 0 0 2.1-2.1l-2.3-2.3a1.48 1.48 0 1 0-2.1 2.1zM590.6 29.2a1.54 1.54 0 0 0-1.5-1.5h-3.3a1.5 1.5 0 0 0 0 3h3.3a1.54 1.54 0 0 0 1.5-1.5zM606 14.8a1.54 1.54 0 0 0 1.5-1.5V10a1.5 1.5 0 0 0-3 0v3.3a1.54 1.54 0 0 0 1.5 1.5zM619 18.3l2.3-2.3a1.48 1.48 0 1 0-2.1-2.1l-2.3 2.3a1.48 1.48 0 0 0 2.1 2.1zM626.2 27.7h-3.3a1.5 1.5 0 0 0 0 3h3.3a1.5 1.5 0 0 0 0-3zM685.5 12.9H680v-1.5a5.55 5.55 0 0 0-5.5-5.5h-7a5.55 5.55 0 0 0-5.5 5.5v1.5h-5.5a5.55 5.55 0 0 0-5.5 5.5v6a1.54 1.54 0 0 0 1.5 1.5h.5v28.5a5.55 5.55 0 0 0 5.5 5.5h25a5.55 5.55 0 0 0 5.5-5.5V25.9h.5a1.54 1.54 0 0 0 1.5-1.5v-6a5.55 5.55 0 0 0-5.5-5.5zM665 11.4a2.48 2.48 0 0 1 2.5-2.5h7a2.48 2.48 0 0 1 2.5 2.5v1.5h-12zm21 43a2.48 2.48 0 0 1-2.5 2.5h-25a2.48 2.48 0 0 1-2.5-2.5V25.9h30zm2-31.5h-34v-4.5a2.48 2.48 0 0 1 2.5-2.5h29a2.48 2.48 0 0 1 2.5 2.5z"/><path class="a" d="M671 50.9a1.54 1.54 0 0 0 1.5-1.5v-16a1.5 1.5 0 1 0-3 0v16a1.54 1.54 0 0 0 1.5 1.5zM663 50.9a1.54 1.54 0 0 0 1.5-1.5v-16a1.5 1.5 0 1 0-3 0v16a1.54 1.54 0 0 0 1.5 1.5zM679 50.9a1.54 1.54 0 0 0 1.5-1.5v-16a1.5 1.5 0 1 0-3 0v16a1.54 1.54 0 0 0 1.5 1.5zM753.5 56.8h-35a1.54 1.54 0 0 1-1.5-1.5v-5a1.54 1.54 0 0 1 1.5-1.5h2.8l1.7-6.9c0-.1.1-.2.1-.3L727 26c0-.1.1-.2.1-.3l3.9-15.6a1.5 1.5 0 0 1 1.5-1.1h7a1.63 1.63 0 0 1 1.5 1.1l3.9 15.6c0 .1.1.2.1.3l3.9 15.6c0 .1.1.2.1.3l1.7 6.9h2.8a1.54 1.54 0 0 1 1.5 1.5v5a1.54 1.54 0 0 1-1.5 1.5zm-33.5-3h32v-2h-32zm4.4-5h23.2l-1.2-4.9h-20.7zm2-8h19.1l-1.2-4.9h-16.7zm2-7.9h15.2l-1.2-4.9h-12.7zm2-8h11.1l-1.2-4.9h-8.7zm2-7.9h7.2l-1.2-5h-4.7zM806.6 52.65h-11.2a1.54 1.54 0 0 1-1.5-1.5v-11.1h-11.1a1.54 1.54 0 0 1-1.5-1.5v-11.2a1.54 1.54 0 0 1 1.5-1.5h11.1v-11.2a1.54 1.54 0 0 1 1.5-1.5h11.2a1.54 1.54 0 0 1 1.5 1.5v11.2h11.1a1.54 1.54 0 0 1 1.5 1.5v11.2a1.54 1.54 0 0 1-1.5 1.5h-11.1v11.1a1.54 1.54 0 0 1-1.5 1.5zm-9.7-3h8.2v-11.1a1.54 1.54 0 0 1 1.5-1.5h11.1v-8.2h-11.1a1.54 1.54 0 0 1-1.5-1.5v-11.2h-8.2v11.2a1.54 1.54 0 0 1-1.5 1.5h-11.1v8.2h11.1a1.54 1.54 0 0 1 1.5 1.5zM889 16.71c-2.6-2.6-7.5-5.5-12.8-5.2a14.38 14.38 0 0 0-10.3 5.2c-9.4-7.2-18.8-4.1-22.9 0a16.33 16.33 0 0 0-4.5 11.2c0 3.4 1 8.4 5.8 13.3l3.5 3.5.1.1 7.4 6.3a1.88 1.88 0 0 0 .9.4 5.45 5.45 0 0 0 2.2.5 3.29 3.29 0 0 0 1.7-.4 3.59 3.59 0 0 0 1 1.4 4.38 4.38 0 0 0 3.2 1.3h.1a4 4 0 0 0 3-1.3l1.4-1.4a4.57 4.57 0 0 0 1.1 1.6 3.38 3.38 0 0 0 2.5 1 4.44 4.44 0 0 0 3.5-1.2l11.9-11.9a18.53 18.53 0 0 0 5.8-13.3 17.35 17.35 0 0 0-4.6-11.1zm-17.1 34.6a1.94 1.94 0 0 1-.6-1.3 1.68 1.68 0 0 1 .3-1.1l8.4-8.4a1.48 1.48 0 1 0-2.1-2.1L865.15 51a1.09 1.09 0 0 1-.9.4 2.08 2.08 0 0 1-1.2-.5 1.09 1.09 0 0 1-.4-.9 1.5 1.5 0 0 1 .4-1.1l10.6-10.6a1.48 1.48 0 0 0-2.1-2.1L861 46.81l-.1.1-1.8 1.8a1.09 1.09 0 0 1-.9.4 1.74 1.74 0 0 1-1.6-1.5 1.78 1.78 0 0 1 .4-1l10.7-10.4a1.48 1.48 0 0 0-2.1-2.1l-8.9 8.5a1.45 1.45 0 0 1-2.1 0 1.09 1.09 0 0 1-.4-.9 2.1 2.1 0 0 1 .4-1.1l11.6-11.4 3.9 4.2a4.1 4.1 0 0 0 3.1 1.4 4.63 4.63 0 0 0 3.2-1.3 4.1 4.1 0 0 0 1.4-3.1 5.07 5.07 0 0 0-1.3-3.3l-8-8-.4-.4a11.77 11.77 0 0 1 8.2-4.2 14.78 14.78 0 0 1 10.5 4.3c4.6 4.7 5.7 13.3-1.3 20.3L873.55 51a1.86 1.86 0 0 1-1.7.31zm-18-5.3l-4-3.4-3.5-3.5c-6.9-6.9-5.8-15.6-1.3-20.3 6.9-6.9 16.8-2.2 21.4 2.4l8 8a1.61 1.61 0 0 1 .5 1.1 1.39 1.39 0 0 1-.5 1 1.61 1.61 0 0 1-1.1.5 1.27 1.27 0 0 1-.9-.4l-5-5.3a1.61 1.61 0 0 0-1.1-.5 1.5 1.5 0 0 0-1.1.4l-12.8 12.2a4.22 4.22 0 0 0-1.3 3.3 4 4 0 0 0 1.3 3 4.92 4.92 0 0 0 1.5 1 4.33 4.33 0 0 1-.15.49zM931 53.9a21 21 0 1 1 21-21 21 21 0 0 1-21 21zm-4.9-3.7a18.12 18.12 0 0 0 9.8 0v-.1l1.5-5.8-2.4-3.2h-8.2l-2.4 3.2zm-7.6-4.4a16 16 0 0 0 4.2 3l-.8-3.2zm21.8-.2l-.9 3.3a16.34 16.34 0 0 0 4.2-3.1zm-27.3-12a17.71 17.71 0 0 0 3 9.3h.2l5.8-.3 2.5-3.4-2.5-7.8-3.9-1.2zm26.9 8.9l6.1.3a17.71 17.71 0 0 0 3-9.3.1.1 0 0 1-.1-.1l-4.9-3.2-3.8 1.2-2.6 7.9zm-12.6-4.4h7.5l2.3-7.1-6.1-4.4-6 4.4zM914.8 25a19.36 19.36 0 0 0-1.6 4.8l2.7-1.8zm31.2 3l2.8 1.8a16 16 0 0 0-1.6-4.8zm-27.1-.6l4.1 1.3 6.5-4.7v-4.2l-4.6-3.7a18.34 18.34 0 0 0-8.1 5.9zm13.6-3.5l6.5 4.7 3.9-1.3 2.2-5.6a18.63 18.63 0 0 0-8-5.8l-4.6 3.7v4.3zm-4-8.8l2.5 2 2.5-2a14 14 0 0 0-5 0zM1017.88 39l-7.5-15.2 5.4-15.2a1.4 1.4 0 0 0-.2-1.4 1.43 1.43 0 0 0-1.2-.6H981a1.5 1.5 0 0 0-1.4 1L974 23.4a1.67 1.67 0 0 0 .1 1.2l7.6 15.5-.1 17.6a2.1 2.1 0 0 0 .4 1.1 1.37 1.37 0 0 0 1.1.4h33.5a1.54 1.54 0 0 0 1.5-1.5v-18a1.85 1.85 0 0 0-.22-.7zm-35.8-29.4h30.2l-4.6 12.9h-30.2zm-4.2 15.9h17.2a9.85 9.85 0 0 1-.2 1.7A1.49 1.49 0 0 0 996 29h.4a1.63 1.63 0 0 0 1.5-1.1 9.86 9.86 0 0 0 .3-2.4h9.8l6.3 12.7h-22a1.51 1.51 0 0 0-3-.4v.4h-5zm6.7 30.7l.1-15h4.6v.1a1.5 1.5 0 0 0 1.5 1.1h.4a1.38 1.38 0 0 0 1.1-1.2h22.8v15z"/><path class="a" d="M991.68 19.1a10.71 10.71 0 0 1 1.8 1.9 1.43 1.43 0 0 0 1.2.6 1.61 1.61 0 0 0 .9-.3 1.46 1.46 0 0 0 .3-2.1 13.63 13.63 0 0 0-2.4-2.4 1.55 1.55 0 0 0-2.1.2 1.47 1.47 0 0 0 .3 2.1zM1002.38 48a26.14 26.14 0 0 1-2.7-.6 1.52 1.52 0 1 0-.9 2.9 17.29 17.29 0 0 0 3.1.7h.2a1.5 1.5 0 0 0 1.5-1.3 1.41 1.41 0 0 0-1.2-1.7zM995.68 45.3a8.13 8.13 0 0 1-1.9-1.8 1.49 1.49 0 1 0-2.3 1.9 13.94 13.94 0 0 0 2.5 2.3 1.61 1.61 0 0 0 .9.3 1.43 1.43 0 0 0 1.2-.6 1.59 1.59 0 0 0-.4-2.1zM991.78 34.7a1.61 1.61 0 0 0 .9.3 1.56 1.56 0 0 0 1.2-.6c.2-.3.5-.6.7-.9a15.76 15.76 0 0 0 1.2-1.5 1.5 1.5 0 0 0-2.4-1.8 10.59 10.59 0 0 1-1 1.2c-.3.4-.6.7-.9 1.1a1.59 1.59 0 0 0 .3 2.2z"/><rect y="127.41" width="42" height="51" rx="1.5" ry="1.5"/><path class="b" d="M3 130.41h36v45H3z"/><path d="M21 137.81a7.3 7.3 0 0 0-7.7 7.4 1.5 1.5 0 0 0 3 0 4.32 4.32 0 0 1 4.7-4.4 4.67 4.67 0 0 1 4 2 4.32 4.32 0 0 1 .09 4.24 10.68 10.68 0 0 1-2.33 3c-1.73 1.77-3.89 4-3.89 7.81a1.5 1.5 0 0 0 3 0c0-2.61 1.41-4.05 3-5.71a13 13 0 0 0 2.94-3.87 7.32 7.32 0 0 0-.31-7.08 7.69 7.69 0 0 0-6.5-3.39zM20.4 162.91a1.8 1.8 0 1 0 1.8 1.8 1.79 1.79 0 0 0-1.8-1.8zM86 180.86c-9.34 0-19-7.9-19-21.1V140a5 5 0 0 1 4.81-5 5.19 5.19 0 0 1 2.19.48V133a5.07 5.07 0 0 1 5-5 4.86 4.86 0 0 1 2.23.54 5 5 0 0 1 9.54 0A4.86 4.86 0 0 1 93 128a5.07 5.07 0 0 1 5 5v8.43a4.82 4.82 0 0 1 2-.43 5.07 5.07 0 0 1 5 5v11.9c0 16.71-11.65 22.96-19 22.96z"/><path class="c" d="M71.81 138a2 2 0 0 0-1.81 2v19.8c0 11.33 8.14 18.1 16 18.1 11.66 0 16-12.27 16-20V146a2 2 0 0 0-4 0v6.8a1.5 1.5 0 0 1-3 0V133a2 2 0 0 0-4 0v14.8a1.5 1.5 0 0 1-3 0V130a2 2 0 1 0-4 0v20.8a1.5 1.5 0 0 1-3 0V133a2 2 0 0 0-4 0v21a1.5 1.5 0 0 1-3 0v-14a2.15 2.15 0 0 0-2.19-2z"/><path d="M170.5 178.41h-39v-10h6v-31h-6v-10h39v10h-6v31h6v10z"/><path class="d" d="M134.5 171.41h33v4h-33z"/><path class="a" d="M156.5 137.41h5v31h-5zM148.5 137.41h5v31h-5zM140.5 137.41h5v31h-5z"/><path class="d" d="M164.5 134.41h3v-4h-33v4h30z"/><path d="M219.35 185.81h-.62c-3.35-.15-6.12-1.51-7.55-3.69-6.6-2.64-10.85-8.74-12-17.22-1.55-11.6 3-24.51 10.68-30.4 1.26-10.5 8.91-14.5 13.55-14.5 2.38 0 3.86 2.08 4.14 5.75a7 7 0 0 1 5.55 6.85 7 7 0 0 1-3.93 6.28l-.26.13v30.21a6.91 6.91 0 0 1 4.19 6.46 7 7 0 0 1-5.66 6.83c-1.65 2.08-4.71 3.3-8.09 3.3z"/><path class="c" d="M223.41 123c-3.68 0-9.8 3.38-10.61 12.43a1.49 1.49 0 0 1-.63 1.09c-7 5-11.43 17.29-10 28 .58 4.37 2.73 12.12 10.55 15a1.49 1.49 0 0 1 .81.71c.81 1.52 2.8 2.49 5.33 2.6a10 10 0 0 0 4.32-.74 7 7 0 0 1-4.08-6.36 7.09 7.09 0 0 1 6.81-7V139.6a7 7 0 0 1-6.81-7 7.24 7.24 0 0 1 5.44-6.81c-.17-1.79-.67-2.79-1.13-2.79z"/><path class="a" d="M226.1 171.7a4 4 0 1 0 4 4 4.05 4.05 0 0 0-4-4zM226.1 128.6a4.14 4.14 0 0 0-4 4.05 4 4 0 0 0 6.91 2.67 4 4 0 0 0 1.09-2.71 4.05 4.05 0 0 0-4-4.01z"/><path d="M211.91 176.5a1.5 1.5 0 0 1-.89-.29 18.39 18.39 0 0 1-7.02-12.56 1.63 1.63 0 0 1-.06-.45v-.06a22.58 22.58 0 0 1-.18-2.35c-.25-7.8 2.79-16.14 7.21-19.84a1.5 1.5 0 0 1 2.47 1.15V175a1.5 1.5 0 0 1-.83 1.34 1.44 1.44 0 0 1-.7.16z"/><path class="a" d="M207.2 164.7a15.73 15.73 0 0 0 3.21 6.85v-6.85zM206.78 161.7h3.63v-15.53a27.09 27.09 0 0 0-3.68 14.52c.01.31.02.67.05 1.01z"/><path d="M280.5 179.17a5.09 5.09 0 0 1-3.56-1.56l-.44-.44V159.9c-5.55-2.14-9.6-8.62-9.6-16.25 0-9.38 6.1-17 13.6-17a11.8 11.8 0 0 1 8.47 3.58 18.65 18.65 0 0 1 5.13 13.32c0 7.67-4.05 14.19-9.6 16.34v17.28l-.44.44a5.09 5.09 0 0 1-3.56 1.56z"/><path class="a" d="M279.5 175.85a1.71 1.71 0 0 0 2 0V160.6a11.13 11.13 0 0 1-2 0z"/><path class="e" d="M280.64 129.64h-.12c-5.86 0-10.62 6.28-10.62 14s4.76 14 10.6 14 10.6-6.33 10.6-14.1a15.65 15.65 0 0 0-4.23-11.18 8.79 8.79 0 0 0-6.23-2.72z"/><path d="M292.5 177.55h-3v-5.4c-1.54-.86-2.6-3-2.6-5.6 0-3.37 1.8-6 4.1-6s4.1 2.63 4.1 6c0 2.58-1.06 4.74-2.6 5.6z"/><path class="e" d="M291 163.55c-.25 0-1.1 1-1.1 3s.85 3 1.1 3 1.1-1.06 1.1-3-.85-2.97-1.1-3z"/><path d="M357.9 172.51h-.47a10.81 10.81 0 0 1-7.16-2.8l-.47-.45v-8.66a7.7 7.7 0 0 1 3.32-6.36 6.1 6.1 0 1 1 10.28-4.44 6 6 0 0 1-1.88 4.32 7.66 7.66 0 0 1 3.58 6.48v8.57l-.38.43a9 9 0 0 1-6.82 2.91z"/><path class="d" d="M352.8 167.91a7.79 7.79 0 0 0 4.7 1.59 6.39 6.39 0 0 0 4.6-1.51v-7.39a4.71 4.71 0 0 0-4.7-4.7v-.58.58a4.68 4.68 0 0 0-4.55 4.7z"/><path class="a" d="M357.3 146.7a3.1 3.1 0 0 0 0 6.2 3.22 3.22 0 0 0 3.13-3.1 3.1 3.1 0 0 0-3.13-3.1z"/><path d="M337.4 172.51h-.4a13.66 13.66 0 0 1-9.61-3.84l-.44-.44V156.5a10.23 10.23 0 0 1 5.23-8.84 7.93 7.93 0 0 1-3.23-6.36 8 8 0 1 1 13 6.21 10.31 10.31 0 0 1 5.47 9.09v11.74l-.46.45a13.83 13.83 0 0 1-9.56 3.72z"/><path class="d" d="M329.9 167a11.72 11.72 0 0 0 14.5.08V156.6a7.31 7.31 0 0 0-7.28-7.3 7.43 7.43 0 0 0-7.22 7.2z"/><path class="a" d="M336.9 136.3a5 5 0 0 0-5 5 5.17 5.17 0 0 0 5.18 5 5 5 0 0 0-.18-10z"/><rect x="392" y="127.41" width="38" height="51" rx="5.5" ry="5.5"/><rect class="c" x="395" y="130.41" width="32" height="45" rx="2.5" ry="2.5"/><rect x="397" y="132.41" width="28" height="35" rx="1.5" ry="1.5"/><path class="a" d="M400 135.41h22v29h-22z"/><circle cx="411" cy="171.41" r="2.2"/><path d="M462.75 176.1a13.85 13.85 0 0 1-9.81-3.92 1.52 1.52 0 0 1-.44-1.06V160a10.53 10.53 0 0 1 6.45-9.5A7.49 7.49 0 0 1 461 137v-5.77a1.5 1.5 0 0 1 1.5-1.5H498a1.5 1.5 0 0 1 1.5 1.5v26a1.5 1.5 0 0 1-1.5 1.5h-25.07a9.44 9.44 0 0 1 .07 1.2v11.2a1.52 1.52 0 0 1-.44 1.06 13.85 13.85 0 0 1-9.81 3.91z"/><path class="b" d="M455.5 170.47c3.63 3.16 10.24 3.78 14.5 0v-10.55a7.26 7.26 0 0 0-7.28-7.2 7.47 7.47 0 0 0-7.22 7.3z"/><path class="a" d="M472.09 155.72h24.41v-23H464v4.06a7.5 7.5 0 0 1 2.92 13.83 10.37 10.37 0 0 1 5.17 5.11z"/><circle class="a" cx="463" cy="144.22" r="4.5"/><path d="M491.2 151.12h-13a1.5 1.5 0 1 1 0-3h13a1.5 1.5 0 0 1 0 3zM491.2 145.12h-13a1.5 1.5 0 1 1 0-3h13a1.5 1.5 0 0 1 0 3zM491.2 139.12h-13a1.5 1.5 0 1 1 0-3h13a1.5 1.5 0 0 1 0 3zM564 176.91h-46v-40h-2v-8h25v8h-2v20l11.55-10.58L566 161.91h-2v15z"/><path class="f" d="M557.9 173.91h3.1v-12h-22v12h3v-9h15.9v9z"/><path class="a" d="M545 167.91h9.9v6H545z"/><path class="f" d="M533 173.91h3v-12h-15v12h3v-9h9v9z"/><path class="a" d="M527 167.91h3v6h-3z"/><path class="f" d="M541.26 158.91h17.54l-8.35-8.42-9.19 8.42zM530 156.91h6v2h-6zM521 156.91h6v2h-6zM530 151.91h6v2h-6zM521 151.91h6v2h-6zM530 146.91h6v2h-6zM521 146.91h6v2h-6zM530 141.91h6v2h-6zM521 141.91h6v2h-6zM530 136.91h6v2h-6zM521 136.91h6v2h-6zM519 131.91h19v2h-19z"/><path d="M618.8 158.21v-8a12.9 12.9 0 0 0-25.8.1v7.9l-4.89 11.93a1.5 1.5 0 0 0 1.39 2.07h10.43a5.7 5.7 0 0 0 11.34 0h11a1.5 1.5 0 0 0 1.39-2.07z"/><path class="a" d="M605.6 174.31a2.75 2.75 0 0 1-2.23-1.2h4.46a2.75 2.75 0 0 1-2.23 1.2z"/><path class="b" d="M591.74 169.21l4.15-10.13a1.6 1.6 0 0 0 .11-.57v-8.2a9.81 9.81 0 0 1 9.8-9.8 10 10 0 0 1 10 9.7v8.3a1.6 1.6 0 0 0 .11.57l4.15 10.13z"/><path d="M593 138.31a1.48 1.48 0 0 0 2.1-2.1l-2.3-2.3a1.48 1.48 0 1 0-2.1 2.1zM590.6 149.21a1.54 1.54 0 0 0-1.5-1.5h-3.3a1.5 1.5 0 0 0 0 3h3.3a1.54 1.54 0 0 0 1.5-1.5zM606 134.81a1.54 1.54 0 0 0 1.5-1.5V130a1.5 1.5 0 0 0-3 0v3.3a1.54 1.54 0 0 0 1.5 1.51zM619 138.31l2.3-2.3a1.48 1.48 0 1 0-2.1-2.1l-2.3 2.3a1.48 1.48 0 0 0 2.1 2.1zM626.2 147.71h-3.3a1.5 1.5 0 0 0 0 3h3.3a1.5 1.5 0 0 0 0-3zM685.5 132.91H680v-1.5a5.5 5.5 0 0 0-5.5-5.5h-7a5.5 5.5 0 0 0-5.5 5.5v1.5h-5.5a5.5 5.5 0 0 0-5.5 5.5v6a1.5 1.5 0 0 0 1.5 1.5h.5v28.5a5.51 5.51 0 0 0 5.5 5.5h25a5.51 5.51 0 0 0 5.5-5.5v-28.5h.5a1.5 1.5 0 0 0 1.5-1.5v-6a5.5 5.5 0 0 0-5.5-5.5z"/><path class="a" d="M665 131.41a2.5 2.5 0 0 1 2.5-2.5h7a2.5 2.5 0 0 1 2.5 2.5v1.5h-12z"/><path class="e" d="M686 174.41a2.5 2.5 0 0 1-2.5 2.5h-25a2.5 2.5 0 0 1-2.5-2.5v-28.5h30z"/><path class="a" d="M688 142.91h-34v-4.5a2.5 2.5 0 0 1 2.5-2.5h29a2.5 2.5 0 0 1 2.5 2.5z"/><path d="M671 170.91a1.54 1.54 0 0 0 1.5-1.5v-16a1.5 1.5 0 1 0-3 0v16a1.54 1.54 0 0 0 1.5 1.5zM663 170.91a1.54 1.54 0 0 0 1.5-1.5v-16a1.5 1.5 0 1 0-3 0v16a1.54 1.54 0 0 0 1.5 1.5zM679 170.91a1.54 1.54 0 0 0 1.5-1.5v-16a1.5 1.5 0 1 0-3 0v16a1.54 1.54 0 0 0 1.5 1.5zM753.5 176.81h-35a1.5 1.5 0 0 1-1.5-1.5v-5a1.5 1.5 0 0 1 1.5-1.5h2.83l1.71-6.87.09-.25L727 146l.09-.25 3.91-15.61a1.51 1.51 0 0 1 1.5-1.14h7a1.51 1.51 0 0 1 1.46 1.13l3.91 15.65.09.25 3.91 15.65.09.25 1.71 6.87h2.83a1.5 1.5 0 0 1 1.5 1.5v5a1.5 1.5 0 0 1-1.5 1.51z"/><path class="f" d="M720 171.81h32v2h-32z"/><path class="a" d="M724.42 168.81h23.16l-1.23-4.9h-20.7l-1.23 4.9z"/><path class="f" d="M726.45 160.81h19.1l-1.22-4.9h-16.66l-1.22 4.9z"/><path class="a" d="M728.42 152.91h15.16l-1.23-4.9h-12.7l-1.23 4.9z"/><path class="f" d="M730.45 144.91h11.1l-1.22-4.9h-8.66l-1.22 4.9z"/><path class="a" d="M732.42 137.01h7.16l-1.25-5h-4.66l-1.25 5z"/><path d="M806.6 172.66h-11.2a1.5 1.5 0 0 1-1.5-1.5v-11.1h-11.1a1.5 1.5 0 0 1-1.5-1.5v-11.2a1.5 1.5 0 0 1 1.5-1.5h11.1v-11.2a1.5 1.5 0 0 1 1.5-1.5h11.2a1.5 1.5 0 0 1 1.5 1.5v11.2h11.1a1.5 1.5 0 0 1 1.5 1.5v11.2a1.5 1.5 0 0 1-1.5 1.5h-11.1v11.1a1.5 1.5 0 0 1-1.5 1.5z"/><path class="e" d="M796.9 169.66h8.2v-11.1a1.5 1.5 0 0 1 1.5-1.5h11.1v-8.2h-11.1a1.5 1.5 0 0 1-1.5-1.5v-11.2h-8.2v11.2a1.5 1.5 0 0 1-1.5 1.5h-11.1v8.2h11.1a1.5 1.5 0 0 1 1.5 1.5z"/><path d="M889 136.7c-2.57-2.57-7.46-5.48-12.78-5.23a14.6 14.6 0 0 0-10.34 5.24c-9.41-7.18-18.83-4.08-22.91 0a16.2 16.2 0 0 0-4.5 11.22 18.33 18.33 0 0 0 5.81 13.29l3.5 3.5.09.08 7.4 6.3a1.48 1.48 0 0 0 .85.35 4.35 4.35 0 0 0 3.85.12 4 4 0 0 0 1 1.45 4.57 4.57 0 0 0 3.2 1.34h.09a4.23 4.23 0 0 0 3-1.34l1.37-1.36a5.22 5.22 0 0 0 1.08 1.62 3.63 3.63 0 0 0 2.5 1 4.74 4.74 0 0 0 3.55-1.2l11.9-11.9a18.33 18.33 0 0 0 5.81-13.29A16.2 16.2 0 0 0 889 136.7z"/><path class="d" d="M871.93 171.22a2.29 2.29 0 0 1-.62-1.33 1.33 1.33 0 0 1 .32-1.05l8.4-8.4a1.5 1.5 0 1 0-2.12-2.12l-12.75 12.64a1.26 1.26 0 0 1-.92.42 1.52 1.52 0 0 1-1.16-.51 1.29 1.29 0 0 1-.41-.92 1.49 1.49 0 0 1 .43-1.08l10.63-10.63a1.5 1.5 0 1 0-2.12-2.12L861 166.7l-.09.09-1.76 1.75a1.26 1.26 0 0 1-.92.42 1.65 1.65 0 0 1-1.11-.46 1.48 1.48 0 0 1-.46-1 1.45 1.45 0 0 1 .45-1L867.8 156a1.5 1.5 0 0 0-2.09-2.16l-8.92 8.53a1.42 1.42 0 0 1-2.13-.05 1.33 1.33 0 0 1-.41-.92 1.51 1.51 0 0 1 .44-1.09l11.61-11.15 3.94 4.18a4.28 4.28 0 0 0 3.08 1.39 4.57 4.57 0 0 0 3.24-1.3 4.24 4.24 0 0 0 1.39-3.07 4.5 4.5 0 0 0-1.34-3.29l-8-8-.44-.42a11.65 11.65 0 0 1 8.2-4.2 14.71 14.71 0 0 1 10.51 4.34c4.56 4.65 5.65 13.34-1.29 20.29L873.74 171a2 2 0 0 1-1.81.22z"/><path class="a" d="M853.91 166l-4-3.45-3.46-3.45c-6.94-6.95-5.85-15.64-1.3-20.28 6.87-6.87 16.76-2.17 21.38 2.4l8 8a1.48 1.48 0 0 1 .46 1.1 1.35 1.35 0 0 1-.46 1 1.44 1.44 0 0 1-1.11.46 1.32 1.32 0 0 1-.94-.43l-5-5.3a1.49 1.49 0 0 0-1.05-.47 1.61 1.61 0 0 0-1.08.41l-12.76 12.21a4.5 4.5 0 0 0-1.34 3.29 4.23 4.23 0 0 0 1.34 3 4.71 4.71 0 0 0 1.51 1c-.1.19-.1.35-.19.51z"/><circle cx="931" cy="152.91" r="21"/><path class="c" d="M926.11 170.23a18.49 18.49 0 0 0 9.82 0 .36.36 0 0 1 0-.1l1.54-5.78-2.38-3.23h-8.22l-2.36 3.2z"/><path class="a" d="M918.46 165.81a18.1 18.1 0 0 0 4.17 3l-.84-3.18zM940.27 165.56l-.87 3.26a17.75 17.75 0 0 0 4.24-3.11z"/><path class="c" d="M913 153.6a18 18 0 0 0 3 9.33h.18l5.81-.27 2.47-3.37-2.46-7.8-3.86-1.24zM939.88 162.54l6.14.28a18 18 0 0 0 3-9.29l-.11-.07-4.94-3.23-3.8 1.22-2.58 7.92z"/><path class="a" d="M927.29 158.11h7.52l2.32-7.13-6.12-4.42-6.05 4.42 2.33 7.13zM914.81 145a17.82 17.82 0 0 0-1.55 4.81l2.72-1.78zM946 148l2.77 1.82a17.72 17.72 0 0 0-1.6-4.85z"/><path class="c" d="M918.93 147.36l4.1 1.32 6.47-4.74v-4.22l-4.63-3.72a18 18 0 0 0-8.07 5.88zM932.5 143.94l6.54 4.71 3.96-1.25 2.18-5.63a18.2 18.2 0 0 0-8-5.79l-4.63 3.74z"/><path class="a" d="M928.52 135.08l2.48 2 2.48-2a17.91 17.91 0 0 0-4.96 0z"/><path d="M1017.94 159l-7.52-15.23 5.39-15.2a1.49 1.49 0 0 0-.18-1.37 1.51 1.51 0 0 0-1.23-.63H981a1.49 1.49 0 0 0-1.41 1l-5.6 15.8a1.46 1.46 0 0 0 .07 1.16l7.64 15.48-.1 17.65a1.52 1.52 0 0 0 1.5 1.51h33.5a1.5 1.5 0 0 0 1.5-1.5v-18a1.44 1.44 0 0 0-.16-.67z"/><path class="a" d="M982.06 129.61h30.22l-4.58 12.9h-30.21l4.57-12.9z"/><path class="f" d="M977.86 145.51h17.24a6.63 6.63 0 0 1-.22 1.71 1.52 1.52 0 0 0 1.09 1.83 1.55 1.55 0 0 0 .37 0 1.49 1.49 0 0 0 1.45-1.13 9.74 9.74 0 0 0 .31-2.45h9.82l6.27 12.7h-22a1.5 1.5 0 1 0-3-.42v.43h-5z"/><path class="a" d="M984.61 176.21l.08-15h4.65v.11a1.49 1.49 0 0 0 1.45 1.14 1.61 1.61 0 0 0 .37 0 1.51 1.51 0 0 0 1.12-1.21h22.8v15z"/><path d="M991.67 139.08a10 10 0 0 1 1.81 1.87 1.52 1.52 0 0 0 1.21.6 1.51 1.51 0 0 0 1.2-2.4 13.17 13.17 0 0 0-2.36-2.42 1.5 1.5 0 1 0-1.86 2.35zM1002.4 168a16.63 16.63 0 0 1-2.68-.64 1.5 1.5 0 0 0-.93 2.86 21.57 21.57 0 0 0 3.15.74.9.9 0 0 0 .23 0 1.49 1.49 0 0 0 1.48-1.26 1.5 1.5 0 0 0-1.25-1.7zM995.7 165.33a10.24 10.24 0 0 1-1.91-1.79 1.5 1.5 0 1 0-2.32 1.9 13.52 13.52 0 0 0 2.45 2.31 1.55 1.55 0 0 0 .89.29 1.5 1.5 0 0 0 .89-2.71zM991.76 154.66a1.5 1.5 0 0 0 2.1-.27c.23-.29.47-.58.74-.86a16.24 16.24 0 0 0 1.21-1.47 1.5 1.5 0 1 0-2.42-1.77 12 12 0 0 1-1 1.19c-.33.36-.63.72-.91 1.08a1.49 1.49 0 0 0 .28 2.1z"/></svg>