<svg id="Calque_1" xmlns="http://www.w3.org/2000/svg" viewBox="0 0 1092.1 185.8"><style>.st0{fill:#fff}.st1,.st2{fill:#fb394a;stroke:#071f32;stroke-width:2;stroke-linecap:round;stroke-linejoin:round;stroke-miterlimit:10}.st2{fill:none}.st3{fill:#071f32}.st4,.st5{stroke-width:2;stroke-linecap:round;stroke-linejoin:round}.st4{stroke:#071f32;stroke-miterlimit:10;fill:#31eef3}.st5{fill:#fff}.st5,.st6,.st7{stroke:#071f32;stroke-miterlimit:10}.st6{stroke-width:2;stroke-linecap:round;stroke-linejoin:round;fill:#ffcd00}.st7{fill:#3ecd2e}.st7,.st8,.st9{stroke-width:2;stroke-linecap:round;stroke-linejoin:round}.st8{stroke:#071f32;stroke-miterlimit:10;fill:#f30}.st9{fill:none}.st10,.st11,.st9{stroke:#071f32}.st10{stroke-width:2;stroke-linecap:round;stroke-linejoin:round;stroke-dasharray:2.1222,5.3056;fill:none}.st11{fill:#31eef3;stroke-miterlimit:10}</style><path class="st0" d="M940 147s-10.4 10.1-12.6 12c-2.1 1.9-.5 5.5 2.8 5.5-2.4 2.7.4 8.5 4.5 4.2.8 5.4 4.4 5.2 8.4 0 1 4.9 4.1 4.5 6 2.6 2-2 9.5-9.4 12.9-13.3 3.5-3.9 6.7-14.7-1.8-21.6-8.5-6.9-15.1-3.5-20.6 2.1 5.6 5.4 6.9 6.5 9.2 9.2 2.4 2.7-.2 6.9-3.8 4.3-3.4-2.5-5-5-5-5z"/><title>services-icons</title><path class="st1" d="M1.1 129.1h39v48h-39z"/><path class="st2" d="M14.5 145.5c0-2.5 1.7-5.9 6.2-5.9s7.5 3.9 5.5 8.3c-1.6 3.5-6.1 5-6.1 10.3"/><circle class="st3" cx="20.1" cy="164.9" r="1.8"/><path class="st4" d="M96 152.4v-6.8c0-1.9 1.6-3.5 3.5-3.5s3.5 1.6 3.5 3.5v11.9c0 15.9-10.9 21.5-17.5 21.5-8.2 0-17.5-6.9-17.5-19.6v-19.8c0-1.9 2-3.5 3-3.5 2 0 4 1.6 4 3.5v14-21c0-1.9 1.6-3.5 3.5-3.5s3.5 1.6 3.5 3.5v17.8-20.8c0-1.9 1.6-3.5 3.5-3.5s3.5 1.6 3.5 3.5v17.8-14.8c0-1.9 1.6-3.5 3.5-3.5s3.5 1.6 3.5 3.5v19.8z"/><path class="st5" d="M133.1 129.1h36v7h-36zM133.1 170.1h36v7h-36z"/><path class="st6" d="M139.1 136.1h24v34h-24z"/><path class="st2" d="M147.1 136.6v33M155.1 136.6v33"/><path class="st1" d="M227 180.8c-2.6 4-11.9 4.4-14.4-.3-17.4-6.4-13.7-36.5-.9-45.6.9-10.1 8-13.8 12.1-13.8 2.2 0 2.7 3.3 2.7 5.6"/><path class="st5" d="M212.4 174.6v-32.9c-6.8 5.6-10.9 24.9 0 32.9z"/><path class="st2" d="M205.9 162.8h6"/><path class="st5" d="M226.6 169.8c3 0 5.5 2.5 5.5 5.5s-2.5 5.5-5.5 5.5-5.5-2.5-5.5-5.5c0-3.1 2.4-5.5 5.5-5.5zM226.6 126.8c3 0 5.5 2.5 5.5 5.5s-2.5 5.5-5.5 5.5-5.5-2.5-5.5-5.5c0-3.1 2.4-5.5 5.5-5.5z"/><path class="st2" d="M226.4 138.3v31"/><path class="st5" d="M278.3 158.9v17.5c1.5 1.5 3.5 1.5 5 0v-17.5"/><path class="st7" d="M292.9 143.4c0 8.6-5.4 15.5-12.1 15.5s-12.1-7-12.1-15.5c0-8.6 5.4-15.5 12.1-15.5s12.1 6.9 12.1 15.5z"/><path class="st2" d="M291.3 177.4v-5.5"/><path class="st7" d="M293.9 166.4c0 2.5-1.2 4.5-2.6 4.5s-2.6-2-2.6-4.5 1.2-4.5 2.6-4.5c1.4 0 2.6 2 2.6 4.5z"/><circle class="st5" cx="336.7" cy="141.4" r="6.5"/><path class="st6" d="M345.7 167.7v-11.1c0-4.8-3.9-8.7-8.8-8.7-4.8 0-8.8 3.9-8.8 8.7v11.1c4.5 4.4 12.8 4.8 17.6 0z"/><path class="st5" d="M361.9 149.9c0 2.6-2.1 4.6-4.6 4.6-2.6 0-4.6-2.1-4.6-4.6 0-2.6 2.1-4.6 4.6-4.6 2.6-.1 4.6 2 4.6 4.6z"/><path class="st6" d="M363.7 168.7v-8c0-3.4-2.8-6.2-6.2-6.2-3.4 0-6.2 2.8-6.2 6.2v8c3 3.1 9 3.4 12.4 0z"/><path class="st4" d="M424.5 176.9h-27c-2.2 0-4-1.8-4-4v-40c0-2.2 1.8-4 4-4h27c2.2 0 4 1.8 4 4v40c0 2.2-1.8 4-4 4z"/><path class="st5" d="M398.5 133.9h25v32h-25z"/><circle cx="411" cy="171.4" r="2"/><path class="st5" d="M472.1 156.9h26v-26h-35v26z"/><path class="st2" d="M491.1 137.9h-13M491.1 143.9h-13M491.1 149.9h-13"/><circle class="st5" cx="462.6" cy="144.4" r="6.5"/><path class="st7" d="M471.6 170.7v-11.1c0-4.8-3.9-8.7-8.8-8.7-4.8 0-8.8 3.9-8.8 8.7v11.1c4.5 4.4 12.9 4.8 17.6 0z"/><path class="st4" d="M519.7 135.7h18v40h-18zM537.7 160.7h25v15h-25z"/><path class="st5" d="M525.7 166.7h6v9h-6zM543.7 166.7h12.9v9h-12.9zM519.7 140.7h18v5h-18zM519.6 135.7h18v5h-18zM519.7 145.7h18v5h-18zM519.7 150.7h18v5h-18zM519.7 155.7h18v5h-18z"/><path class="st4" d="M517.7 130.7h22v5h-22z"/><path class="st2" d="M528.7 160.7v-25"/><path class="st4" d="M537.6 160.7l13.1-12 11.9 12z"/><path class="st5" d="M684.2 171.3c0 2.3-1.9 4.2-4.2 4.2s-4.2-1.9-4.2-4.2"/><path class="st1" d="M691.8 159.1v-8.2c0-6.2-5.1-11.3-11.3-11.3-6.2 0-11.3 5.1-11.3 11.3v8.2l-5 12.2H697l-5.2-12.2z"/><path class="st2" d="M663.5 149.9h-3.3M680.4 133.9v-3.2M668.5 137.9l-2.3-2.3M692.4 137.9l2.3-2.3M700.6 149.9h-3.3"/><g><path class="st7" d="M761.5 145.7v29c0 2.2-1.8 4-4 4h-25c-2.2 0-4-1.8-4-4v-29"/><path class="st5" d="M763.5 144.7v-6c0-2.2-1.8-4-4-4h-29c-2.2 0-4 1.8-4 4v6h37z"/><path class="st2" d="M752.5 134.7v-3c0-2.2-1.8-4-4-4h-7c-2.2 0-4 1.8-4 4v3h15zM745 169.7v-16M737 169.7v-16M753 169.7v-16"/></g><g><path class="st8" d="M792.1 170.5h35v5h-35zM821.1 162.5h-23l-2 8h27z"/><path class="st5" d="M819.1 154.5h-19l-2 8h23z"/><path class="st8" d="M817.1 146.6h-15l-2 8h19z"/><path class="st5" d="M815.1 138.6h-11l-2 8h15z"/><path class="st8" d="M813.1 130.7h-7l-2 7.9h11z"/></g><g><path class="st5" d="M1049.1 143.3l5.6-15.7h33.5l-5.6 15.7z"/><path class="st4" d="M1056.9 159.1l-7.8-15.8h33.5l7.9 15.8z"/><path class="st5" d="M1057 159.1h33.5v18H1057z"/><path class="st9" d="M1060.6 135c.3 0 .7 0 1 .1"/><path class="st10" d="M1066.3 137.3c3.9 3.1 6.2 8.9.9 14.6-6.9 7.4-.7 16 9.7 17.1"/><path class="st9" d="M1079.6 169h1"/><path class="st2" d="M1082.6 143.3h-33.5M1056.9 159.1h33.6"/></g><g><circle class="st5" cx="1005" cy="153.1" r="19.5"/></g><path class="st11" d="M1005 144.9l-7.8 5.6 3 9.2h9.7l3-9.2z"/><g><path class="st11" d="M988.4 143c-1.5 1.7-2.3 5-2.4 9.3l5.8-3.8-3.4-5.5zM1010.2 134.8c-1.9-1.2-5.4-1.2-9.6-.5l4.8 5 4.8-4.5zM1021.3 142.5l-3.1 6.2 5.8 3c.5-2.1-.6-5.4-2.7-9.2zM1012.1 170.9c2.2-.3 5-2.5 7.7-5.7l-6.9-.7-.8 6.4zM990.3 165c.8 2.1 3.4 4.4 7.1 6.5l-.6-6.9-6.5.4z"/></g><g><path class="st7" d="M893.2 147.2h-12.7v-12.6h-11.2v12.6h-12.6v11.2h12.6v12.7h11.2v-12.7h12.7z"/></g><g><path class="st2" d="M946.7 156.8l-10.8 10.8c-1.2 1.2-1.2 3.1 0 4.2 1.2 1.2 3.1 1.2 4.2 0l10.8-10.8 1.8-1.8-8.4 8.4c-1.2 1.2-.9 3.3.3 4.5.6.6 2.7.9 3.9-.3l8.4-8.4 3.5-3.5c7.7-7.7 6.2-17.4 1.3-22.4-4-4-13.8-8.7-21.5.6"/><path class="st2" d="M944.9 158.6l-10.8 10.8c-1.2 1.2-3.1 1.2-4.2 0-1.2-1.2-1.2-3.1 0-4.2l11.2-10.8"/><path class="st6" d="M930 169.8l-7.4-6.3-3.5-3.5c-7.7-7.7-6.2-17.4-1.3-22.4 4-4 13.9-7.1 23.5 2.4l8 8c1.2 1.2 1.2 3.1 0 4.2-1.2 1.2-3.1 1.2-4.2 0l-5-5.3-12.7 12.2c-1.2 1.2-1.2 3.1 0 4.2 1.2 1.2 3.1 1.2 4.2 0-1.7 1.9-4.3 4.3-1.6 6.5z"/></g><path class="st1" d="M636.4 149.3h1.5c1.6 0 2.9 1.3 2.9 2.9 0 1.6-1.3 2.9-2.9 2.9h-1.5M619.2 135s-36.3.1-36.3 0v10.3h4v-1.5h8.4c6.2 0 6.6 5.1 6.6 8.4 0 9.5 7.7 17.2 17.2 17.2s17.2-7.7 17.2-17.2-7.6-17.2-17.1-17.2z"/><circle class="st5" cx="619.2" cy="152.2" r="7"/><g><path class="st2" d="M1012.9 150.5l5.3-1.7M1020.6 142.6l-2.4 6.2M1023.8 152.4l-5.6-3.6M1013.2 164.3l-3.3-4.6M1013.2 164.3l6.6.3M1013.2 164.3l-1.8 6.4M996.9 164.3l1.7 6.4M1000.2 159.7l-3.3 4.6M990.3 164.6l6.6-.3M997.2 150.5l-5.3-1.7M986.3 152.4l5.6-3.6M991.9 148.8l-2.4-6.2M1005 144.9v-5.6M999.9 135.1l5.1 4.2M1010.2 135.1l-5.2 4.2M997.2 150.5l3 9.2M1012.9 150.5l-3 9.2M997.2 150.5l7.8-5.6M1000.2 159.7h9.7M1012.9 150.5l-7.9-5.6"/></g><path class="st0" d="M940 27s-10.4 10.1-12.6 12c-2.1 1.9-.5 5.5 2.8 5.5-2.4 2.7.4 8.5 4.5 4.2.8 5.4 4.4 5.2 8.4 0 1 4.9 4.1 4.5 6 2.6s9.5-9.4 12.9-13.3c3.5-3.9 6.7-14.7-1.8-21.6-8.5-6.9-15.1-3.5-20.6 2.1 5.6 5.4 6.9 6.5 9.2 9.2 2.4 2.7-.2 6.9-3.8 4.3-3.4-2.5-5-5-5-5z"/><g><path class="st1" d="M1.1 9.1h39v48h-39z"/><path class="st2" d="M14.5 25.5c0-2.5 1.7-5.9 6.2-5.9s7.5 3.9 5.5 8.3c-1.6 3.5-6.1 5-6.1 10.3"/><circle class="st3" cx="20.1" cy="44.9" r="1.8"/></g><g><path class="st4" d="M96 32.4v-6.8c0-1.9 1.6-3.5 3.5-3.5s3.5 1.6 3.5 3.5v11.9C103 53.4 92.1 59 85.5 59 77.3 59 68 52.1 68 39.4V19.6c0-1.9 2-3.5 3-3.5 2 0 4 1.6 4 3.5v14-21c0-1.9 1.6-3.5 3.5-3.5s3.5 1.6 3.5 3.5v17.8V9.6c0-1.9 1.6-3.5 3.5-3.5S89 7.7 89 9.6v17.8-14.8c0-1.9 1.6-3.5 3.5-3.5s3.5 1.6 3.5 3.5v19.8z"/></g><g><path class="st5" d="M133.1 9.1h36v7h-36zM133.1 50.1h36v7h-36z"/><path class="st6" d="M139.1 16.1h24v34h-24z"/><path class="st2" d="M147.1 16.6v33M155.1 16.6v33"/></g><g><path class="st1" d="M227 60.8c-2.6 4-11.9 4.4-14.4-.3-17.4-6.4-13.7-36.5-.9-45.6.9-10.1 8-13.8 12.1-13.8 2.2 0 2.7 3.3 2.7 5.6"/><path class="st5" d="M212.4 54.6V21.7c-6.8 5.6-10.9 24.9 0 32.9z"/><path class="st2" d="M205.9 42.8h6"/><path class="st5" d="M226.6 49.8c3 0 5.5 2.5 5.5 5.5s-2.5 5.5-5.5 5.5-5.5-2.5-5.5-5.5c0-3.1 2.4-5.5 5.5-5.5zM226.6 6.8c3 0 5.5 2.5 5.5 5.5s-2.5 5.5-5.5 5.5-5.5-2.5-5.5-5.5c0-3.1 2.4-5.5 5.5-5.5z"/><path class="st2" d="M226.4 18.3v31"/></g><g><path class="st5" d="M278.3 38.9v17.5c1.5 1.5 3.5 1.5 5 0V38.9"/><path class="st7" d="M292.9 23.4c0 8.6-5.4 15.5-12.1 15.5s-12.1-7-12.1-15.5c0-8.6 5.4-15.5 12.1-15.5s12.1 6.9 12.1 15.5z"/><path class="st2" d="M291.3 57.4v-5.5"/><path class="st7" d="M293.9 46.4c0 2.5-1.2 4.5-2.6 4.5s-2.6-2-2.6-4.5 1.2-4.5 2.6-4.5c1.4 0 2.6 2 2.6 4.5z"/></g><g><circle class="st5" cx="336.7" cy="21.4" r="6.5"/><path class="st6" d="M345.7 47.7V36.6c0-4.8-3.9-8.7-8.8-8.7-4.8 0-8.8 3.9-8.8 8.7v11.1c4.5 4.4 12.8 4.8 17.6 0z"/><path class="st5" d="M361.9 29.9c0 2.6-2.1 4.6-4.6 4.6-2.6 0-4.6-2.1-4.6-4.6 0-2.6 2.1-4.6 4.6-4.6 2.6-.1 4.6 2 4.6 4.6z"/><path class="st6" d="M363.7 48.7v-8c0-3.4-2.8-6.2-6.2-6.2-3.4 0-6.2 2.8-6.2 6.2v8c3 3.1 9 3.4 12.4 0z"/></g><g><path class="st4" d="M424.5 56.9h-27c-2.2 0-4-1.8-4-4v-40c0-2.2 1.8-4 4-4h27c2.2 0 4 1.8 4 4v40c0 2.2-1.8 4-4 4z"/><path class="st5" d="M398.5 13.9h25v32h-25z"/><circle cx="411" cy="51.4" r="2"/></g><g><path class="st5" d="M472.1 36.9h26v-26h-35v26z"/><path class="st2" d="M491.1 17.9h-13M491.1 23.9h-13M491.1 29.9h-13"/><circle class="st5" cx="462.6" cy="24.4" r="6.5"/><path class="st7" d="M471.6 50.7V39.6c0-4.8-3.9-8.7-8.8-8.7-4.8 0-8.8 3.9-8.8 8.7v11.1c4.5 4.4 12.9 4.8 17.6 0z"/></g><g><path class="st4" d="M519.7 15.7h18v40h-18zM537.7 40.7h25v15h-25z"/><path class="st5" d="M525.7 46.7h6v9h-6zM543.7 46.7h12.9v9h-12.9zM519.7 20.7h18v5h-18zM519.6 15.7h18v5h-18zM519.7 25.7h18v5h-18zM519.7 30.7h18v5h-18zM519.7 35.7h18v5h-18z"/><path class="st4" d="M517.7 10.7h22v5h-22z"/><path class="st2" d="M528.7 40.7v-25"/><path class="st4" d="M537.6 40.7l13.1-12 11.9 12z"/></g><g><path class="st5" d="M684.2 51.3c0 2.3-1.9 4.2-4.2 4.2s-4.2-1.9-4.2-4.2"/><path class="st1" d="M691.8 39.1v-8.2c0-6.2-5.1-11.3-11.3-11.3-6.2 0-11.3 5.1-11.3 11.3v8.2l-5 12.2H697l-5.2-12.2z"/><path class="st2" d="M663.5 29.9h-3.3M680.4 13.9v-3.2M668.5 17.9l-2.3-2.3M692.4 17.9l2.3-2.3M700.6 29.9h-3.3"/></g><g><path class="st7" d="M761.5 25.7v29c0 2.2-1.8 4-4 4h-25c-2.2 0-4-1.8-4-4v-29"/><path class="st5" d="M763.5 24.7v-6c0-2.2-1.8-4-4-4h-29c-2.2 0-4 1.8-4 4v6h37z"/><path class="st2" d="M752.5 14.7v-3c0-2.2-1.8-4-4-4h-7c-2.2 0-4 1.8-4 4v3h15zM745 49.7v-16M737 49.7v-16M753 49.7v-16"/></g><g><path class="st8" d="M792.1 50.5h35v5h-35zM821.1 42.5h-23l-2 8h27z"/><path class="st5" d="M819.1 34.5h-19l-2 8h23z"/><path class="st8" d="M817.1 26.6h-15l-2 8h19z"/><path class="st5" d="M815.1 18.6h-11l-2 8h15z"/><path class="st8" d="M813.1 10.7h-7l-2 7.9h11z"/></g><g><path class="st5" d="M1049.1 23.3l5.6-15.7h33.5l-5.6 15.7z"/><path class="st4" d="M1056.9 39.1l-7.8-15.8h33.5l7.9 15.8z"/><path class="st5" d="M1057 39.1h33.5v18H1057z"/><path class="st9" d="M1060.6 15c.3 0 .7 0 1 .1"/><path class="st10" d="M1066.3 17.3c3.9 3.1 6.2 8.9.9 14.6-6.9 7.4-.7 16 9.7 17.1"/><path class="st9" d="M1079.6 49h1"/><path class="st2" d="M1082.6 23.3h-33.5M1056.9 39.1h33.6"/></g><g><circle class="st5" cx="1005" cy="33.1" r="19.5"/></g><path class="st11" d="M1005 24.9l-7.8 5.6 3 9.2h9.7l3-9.2z"/><g><path class="st11" d="M988.4 23c-1.5 1.7-2.3 5-2.4 9.3l5.8-3.8-3.4-5.5zM1010.2 14.8c-1.9-1.2-5.4-1.2-9.6-.5l4.8 5 4.8-4.5zM1021.3 22.5l-3.1 6.2 5.8 3c.5-2.1-.6-5.4-2.7-9.2zM1012.1 50.9c2.2-.3 5-2.5 7.7-5.7l-6.9-.7-.8 6.4zM990.3 45c.8 2.1 3.4 4.4 7.1 6.5l-.6-6.9-6.5.4z"/></g><g><path class="st7" d="M893.2 27.2h-12.7V14.6h-11.2v12.6h-12.6v11.2h12.6v12.7h11.2V38.4h12.7z"/></g><g><path class="st2" d="M946.7 36.8l-10.8 10.8c-1.2 1.2-1.2 3.1 0 4.2 1.2 1.2 3.1 1.2 4.2 0L950.9 41l1.8-1.8-8.4 8.4c-1.2 1.2-.9 3.3.3 4.5.6.6 2.7.9 3.9-.3l8.4-8.4 3.5-3.5c7.7-7.7 6.2-17.4 1.3-22.4-4-4-13.8-8.7-21.5.6"/><path class="st2" d="M944.9 38.6l-10.8 10.8c-1.2 1.2-3.1 1.2-4.2 0-1.2-1.2-1.2-3.1 0-4.2l11.2-10.8"/><path class="st6" d="M930 49.8l-7.4-6.3-3.5-3.5c-7.7-7.7-6.2-17.4-1.3-22.4 4-4 13.9-7.1 23.5 2.4l8 8c1.2 1.2 1.2 3.1 0 4.2-1.2 1.2-3.1 1.2-4.2 0l-5-5.3-12.7 12.2c-1.2 1.2-1.2 3.1 0 4.2 1.2 1.2 3.1 1.2 4.2 0-1.7 1.9-4.3 4.3-1.6 6.5z"/></g><path class="st1" d="M636.4 29.3h1.5c1.6 0 2.9 1.3 2.9 2.9 0 1.6-1.3 2.9-2.9 2.9h-1.5M619.2 15s-36.3.1-36.3 0v10.3h4v-1.5h8.4c6.2 0 6.6 5.1 6.6 8.4 0 9.5 7.7 17.2 17.2 17.2s17.2-7.7 17.2-17.2S628.7 15 619.2 15z"/><circle class="st5" cx="619.2" cy="32.2" r="7"/><g><path class="st2" d="M1012.9 30.5l5.3-1.7M1020.6 22.6l-2.4 6.2M1023.8 32.4l-5.6-3.6M1013.2 44.3l-3.3-4.6M1013.2 44.3l6.6.3M1013.2 44.3l-1.8 6.4M996.9 44.3l1.7 6.4M1000.2 39.7l-3.3 4.6M990.3 44.6l6.6-.3M997.2 30.5l-5.3-1.7M986.3 32.4l5.6-3.6M991.9 28.8l-2.4-6.2M1005 24.9v-5.6M999.9 15.1l5.1 4.2M1010.2 15.1l-5.2 4.2M997.2 30.5l3 9.2M1012.9 30.5l-3 9.2M997.2 30.5l7.8-5.6M1000.2 39.7h9.7M1012.9 30.5l-7.9-5.6"/></g></svg>