<svg xmlns="http://www.w3.org/2000/svg" viewBox="0 0 513.53 514.65"><title>masque-13</title><g data-name="Calque 1"><path d="M200 335.68h-8a51.05 51.05 0 0 1-10.71-1.24 20.74 20.74 0 0 1-6.6-3q-2.87-2-3.86-7.59a120.47 120.47 0 0 1-1.49-12.33q-.51-6.72-.5-19.92V0H0v4h2.74l9.71.5 8 .5q10 .49 14.69 2.74a11.3 11.3 0 0 1 6.23 7.47q2.23 7.47 2.24 33.37v243.03q0 26.4-2.24 33.86a11.28 11.28 0 0 1-6.23 7.23q-4.72 2.24-14.69 3h-8l-9.71.5H0v4h213.91v-4h-3.73zM494.1 379.18q-19.43-21.9-50.55-31.12a316.61 316.61 0 0 0-52.05-9.22q56.79-4.72 87.66-26.77t30.84-57.9q0-38.34-41.34-62.25T361.12 168q-60.51 0-97.61 24.78t-37.11 65.38q0 22.66 13.45 37.85t33.87 15.19q21.4 0 36-16.81t14.57-41.71q0-22.91-12.83-38.47t-32-15.57q-10.95 0-22.41 6.48 8.46-8.22 14.32-11.83a119.21 119.21 0 0 1 16.81-8.1Q316 175 339 175q23.66 0 33.62 17.69t10 60a204.13 204.13 0 0 1-4.11 42.46q-4.11 19.31-10.83 27.76a32.17 32.17 0 0 1-14.94 10.46q-9.23 3.24-26.4 3.49h-12.2v4.48q5.71.51 12.2.5 18.18 1.25 26.77 4.11A23.58 23.58 0 0 1 366.1 356q12.7 18.19 12.7 71 0 42.08-11.7 61.88t-36.61 19.8q-24.9 0-55.78-15.44a147.72 147.72 0 0 1-28.39-19.93q14.94 6.24 22.41 6.23 20.43 0 34.62-16.93t14.19-41.09q0-23.4-14.19-39.6t-35.11-16.18q-21.42 0-35.74 16.56T218.18 424q0 40.1 38.23 65.37t99.48 25.27q72.72 0 115.18-23.53T513.53 427q0-25.9-19.43-47.82z"/></g></svg>