<svg xmlns="http://www.w3.org/2000/svg" viewBox="0 0 282.9 159.9"><g fill="#F94F4F"><path d="M54.2 79.4L46.5 69c2.8-3.2 5-7 6.1-11.5 3.5-14.3-5.2-28.8-19.5-32.3-2.3-.5-4.5-.8-6.7-.7-11.9.1-22.6 8.2-25.6 20.2C-2.8 59 6 73.5 20.3 77c2.2.6 4.5.8 6.7.8 4 0 7.8-1 11.2-2.6l7.7 10.3c1.7 2.3 5 2.8 7.3 1.1s2.8-5 1-7.2zm-27.3-9c-1.6 0-3.2-.2-4.8-.6-10.3-2.5-16.5-12.9-14-23.2 2.1-8.5 9.6-14.5 18.4-14.6 1.6 0 3.2.2 4.8.6 10.3 2.5 16.5 12.9 14 23.2-2.1 8.5-9.7 14.5-18.4 14.6zM62.1 25.3l4.1 24.1c.5 2.8.9 7.1 4.9 6.4 3.6-.6 3.1-3.3 2.7-6.1l-4.4-25.6 7.3-1.3 4.6 27.1c.7 3.9 1.4 10.7-9.2 12.5-6.9 1.2-11.5-1.3-12.7-8.3l-4.7-27.6 7.4-1.2zM96.6 19.5l1.2 6.9-7.4 1.3 1.4 8.1 6.6-1.1 1.2 6.9-6.6 1.1 1.4 8.4 7.5-1.3 1.2 6.9-14.9 2.5L81.8 22l14.8-2.5zM128 14.1l1.2 6.9-7.5 1.3 1.4 7.9 6.8-1.2 1.2 6.9-6.8 1.2 2.6 15.4-7.3 1.3-6.4-37.2 14.8-2.5zM144.9 11.2l15.3 35.6-7.8 1.3-2.5-6-7.4 1.3-.3 6.5-7.3 1.2 2.3-38.6 7.7-1.3zm-.6 15.7l-1.8-5.5h-.1l.2 5.8.1 10.2 5.2-.9-3.6-9.6zM164.2 7.9l6.4 37.2-7.3 1.3-6.4-37.2 7.3-1.3zM175.7 44.2L169.4 7l7.4-1.3c4.7-.8 13.1-1.7 14.9 8.4.7 4.1-.3 7.9-3.6 10.5l9.3 15.8-7.7 1.3-9.4-16h-.1l2.9 17.2-7.4 1.3zm3.8-22.5l1.3-.2c3.4-.6 4.3-3.1 3.8-6.1-.5-2.7-2.1-4.6-5.8-3.8l-1 .2 1.7 9.9zM210.3 0l1.2 6.9-7.5 1.3 1.4 8.1 6.6-1.1 1.2 6.9-6.6 1.1 1.4 8.4 7.5-1.3 1.2 6.9-14.9 2.5-6.4-37.2L210.3 0z"/></g><g fill="#F94F4F"><path d="M256.6 76.1l26.3-3.8-16-26.6 8.9-30.8-45.8 6.5 21.2 22.2L66.6 75.4l3.8 22.7-26.8 4.6 16.6 26.2-7.9 31 45.5-7.8-21.7-19.6 184.6-31.8z"/><g fill-opacity=".3"><path d="M94 129.4l3.8 22.7-21.7-19.6zM251.2 43.6L230 21.4l4.2 25.2z"/></g></g><g fill="#FFF"><path d="M95.3 107.4l-1.3 5.3-3.9.7 6-23.7 3.8-.7 13.4 20.4-4 .7-3-4.6-11 1.9zm-3.4-22.7l3.5-2.2 4.1 4.1-3.2.5-4.4-2.4zm6.7 8.6l-2.5 10.5 8.3-1.4-5.8-9.1zM129.5 83.9c5.6-.9 9.2 1.3 10 6 .9 5-1.8 8.4-7.4 9.4l-5.1.9 1.1 6.7-3.7.6-3.8-22.1 8.9-1.5zm-3.1 13l4.9-.8c3.4-.6 5.1-2.4 4.6-5.4-.5-2.9-2.7-4-6.1-3.4l-4.9.8 1.5 8.8zM146.5 98.6l-1.3 5.3-3.9.7 6-23.7 3.8-.7 13.4 20.4-4 .7-3-4.6-11 1.9zm3.4-14l-2.5 10.5 8.3-1.4-5.8-9.1zM176.4 91.8c-.3.1-.7.1-1 .2l-5.2.9 1.1 6.7-3.7.6-3.8-22.1 9-1.5c5.6-1 9.4 1.2 10.2 6 .6 3.5-.6 6.3-3.3 7.9l6.2 6.5-4.2.7-5.3-5.9zm-1.6-3.2c3.4-.6 5.1-2.4 4.6-5.4-.5-2.9-2.7-4-6.1-3.4l-5.2.9 1.5 8.7 5.2-.8zM190.4 96.3l-3.8-22.1 3.7-.6 3.8 22.1-3.7.6zM211.5 72.1l-1 3.5c-2.6-1-5.1-1.2-6.8-.9-2.2.4-3.5 1.4-3.2 2.9.8 4.8 12.3.2 13.6 8.2.7 3.9-2.4 7-7.2 7.8-3.5.6-7-.3-9.6-2l1.1-3.5c2.6 1.7 5.7 2.3 8 1.9 2.6-.4 4-1.7 3.7-3.4-.8-4.9-12.3-.1-13.6-8-.6-3.8 2.2-6.7 7-7.5 2.7-.4 5.7 0 8 1zM222.2 74.7c-.6-4 1.5-6.7 5.5-7.4 3.8-.6 6.6.8 7.2 4.2.9 5-4.1 6.1-3.4 10.3l-2.8.5c-.9-5.1 3.5-5.9 2.9-9.7-.3-1.8-1.8-2.5-3.7-2.2-2 .4-3.1 1.6-2.8 3.8l-2.9.5zM233 87.1c.2 1.2-.5 2.3-1.6 2.5-1.1.2-2.1-.5-2.3-1.8-.2-1.2.5-2.2 1.6-2.4s2.1.5 2.3 1.7z"/></g></svg>