<svg xmlns="http://www.w3.org/2000/svg" width="49" height="55" viewBox="0 0 49 55"><title>Marché-Gris</title><g id="Calque_2" data-name="Calque 2"><g id="Calque_1-2" data-name="Calque 1"><path id="Tracé_10476" data-name="Tracé 10476" d="M49,24.32a24.5,24.5,0,0,0-49,0A24.33,24.33,0,0,0,16.9,47.45L24.5,55l7.6-7.55A24.35,24.35,0,0,0,49,24.32Z" fill="#999"/><path d="M33.76,21.89,15.18,22l-.06-7a.17.17,0,0,1,.18-.17l18.23-.15a.18.18,0,0,1,.17.18ZM22.62,33.8a1.13,1.13,0,1,1,0-2.25l5,0a1.13,1.13,0,1,1,0,2.25Zm0-4.79a1.13,1.13,0,1,1,0-2.25l4.95,0a1.14,1.14,0,0,1,1.14,1.12A1.13,1.13,0,0,1,27.54,29Zm15.17-7.15H35.52l-.06-7a1.93,1.93,0,0,0-2-1.92L15.28,13a2,2,0,0,0-1.92,2l.06,7.05H11.24a.92.92,0,0,0-.66.31.88.88,0,0,0-.2.71l1.84,11.83a3.09,3.09,0,0,0,3.11,3l18.58-.15a3.08,3.08,0,0,0,3.05-3l1.66-11.85a.88.88,0,0,0-.88-1Z" fill="#fff" fill-rule="evenodd"/></g></g></svg>