<svg xmlns="http://www.w3.org/2000/svg" width="49" height="55" viewBox="0 0 49 55"><title>Association-Rouge</title><g id="Calque_2" data-name="Calque 2"><g id="Calque_1-2" data-name="Calque 1"><path id="Tracé_10476" data-name="Tracé 10476" d="M49,24.32a24.5,24.5,0,0,0-49,0A24.33,24.33,0,0,0,16.9,47.45L24.5,55l7.6-7.55A24.35,24.35,0,0,0,49,24.32Z" fill="#DC3545"/><path d="M24.58,35.31s-7.52-4.63-7.5-8.39c0-2,1.62-4.52,4.11-4.52a6,6,0,0,1,3.39,1.45A6,6,0,0,1,28,22.4c2.49,0,4.11,2.48,4.11,4.52C32.1,30.68,24.58,35.31,24.58,35.31ZM34.9,20.06,25,10.27a.74.74,0,0,0-1.05,0l-9.77,9.87c-.14.14-.32.33-.31.53l0,17.63a.73.73,0,0,0,.74.73l19.73,0a.74.74,0,0,0,.74-.74l0-17.73a.71.71,0,0,0-.22-.52Z" fill="#fff" fill-rule="evenodd"/></g></g></svg>
