<svg xmlns="http://www.w3.org/2000/svg" width="49" height="55" viewBox="0 0 49 55"><title>Fichier 40</title><g id="Calque_2" data-name="Calque 2"><g id="Calque_1-2" data-name="Calque 1"><path id="Tracé_10476" data-name="Tracé 10476" d="M49,24.32a24.5,24.5,0,0,0-49,0A24.33,24.33,0,0,0,16.9,47.45L24.5,55l7.6-7.55A24.35,24.35,0,0,0,49,24.32Z" fill="#999"/><path d="M32,33.05h-1.5V21.24H32Zm-4.52,0H26V21.24h1.5Zm-4.51,0H21.49V21.24H23Zm-4.52,0H17V21.24h1.51ZM35,33.12V19.52h0a.74.74,0,0,0-.22-.52L26,10.26,24.81,9a.75.75,0,0,0-.62,0l-.07.07a.9.9,0,0,0-.2.14l-9.75,9.86a.71.71,0,0,0-.22.52h0V33.12a.87.87,0,0,0-.51.81v3.33a.84.84,0,0,0,.81.88H34.74a.84.84,0,0,0,.81-.88V33.93a.87.87,0,0,0-.51-.81Z" fill="#fff" fill-rule="evenodd"/></g></g></svg>