<?xml version="1.0" encoding="utf-8"?>
<!-- Generator: Adobe Illustrator 23.0.1, SVG Export Plug-In . SVG Version: 6.00 Build 0)  -->
<svg version="1.1" id="Calque_1" xmlns="http://www.w3.org/2000/svg" xmlns:xlink="http://www.w3.org/1999/xlink" x="0px" y="0px"
	 viewBox="0 0 49 55" style="enable-background:new 0 0 49 55;" xml:space="preserve">
<style type="text/css">
	.st0{fill:#3ECD2E;}
	.st1{fill:#FFFFFF;}
</style>
<title>Nerf-Vert</title>
<g>
	<g id="Calque_1-2">
		<path id="Tracé_10476" class="st0" d="M49,24.3C49,10.8,38-0.2,24.5-0.2S0,10.8,0,24.3c0,10.6,6.8,19.9,16.9,23.1l7.6,7.5
			l7.6-7.5C42.2,44.2,49,34.9,49,24.3z"/>
		<g>
			<g id="Calque_1-2_1_">
				<path class="st1" d="M39.7,27.2c-0.1,0-0.2,0.1-0.3,0.4c-2.8,6.1-8,9.1-13.4,9.1c-10.9,0.1-13.5-8.9-13.5-9.1l5.6,1
					c0,0.1,2.2,4.9,7.8,4.9c5.9,0,10.1-5.9,10.1-12c0-5.5-2.3-8.7-5.7-11.1l-15.1,7c-0.1,0.1-0.1,0.3,0,0.3c8.4,1.9,9.8,8,9.4,11.4
					c-0.1,0.5,0.3,0.4,0.6-0.5c1.1-3.4,0.3-8.3-4.2-11.1c0,0,8.4-4.2,8.4-4.2c1,0.8,4.3,3,4.3,8.3c0,5.3-3.1,10.1-7.8,10.1
					c-4.7,0-6.3-4.8-6.3-4.9l-10-2.2c-0.2,0-0.3,0.1-0.3,0.3c0.9,7.6,7,13.9,15.8,13.9c7.3,0,12.3-4,14.4-9.7
					C39.9,27.6,39.9,27.2,39.7,27.2z"/>
			</g>
		</g>
	</g>
</g>
</svg>
