<svg xmlns="http://www.w3.org/2000/svg" width="49" height="55" viewBox="0 0 49 55"><title>Mairie-Vert</title><g id="Calque_2" data-name="Calque 2"><g id="Calque_1-2" data-name="Calque 1"><g id="_1" data-name="1"><path id="Tracé_10476" data-name="Tracé 10476" d="M49,24.32a24.5,24.5,0,0,0-49,0A24.33,24.33,0,0,0,16.9,47.45L24.5,55l7.6-7.55A24.35,24.35,0,0,0,49,24.32Z" fill="#00b67c"/><path d="M35.44,10.51c-2.41,1.37-4.84-1.73-7.26-.35a.6.6,0,0,0-.29.44v7.61L27.68,18,24,14.31a.75.75,0,0,0-1,0L13.43,23.9a.66.66,0,0,0-.21.51l.07,12.65a.72.72,0,0,0,.72.72H33.07a.72.72,0,0,0,.73-.72l-.07-12.75a.7.7,0,0,0-.14-.51l-4.22-4.25V14.48c2.11-.37,4,1.87,6.11.67a.65.65,0,0,0,.3-.45V10.6c0-.15-.19-.18-.34-.09Z" fill="#fff" fill-rule="evenodd"/></g></g></g></svg>