<svg xmlns="http://www.w3.org/2000/svg" width="49" height="55" viewBox="0 0 49 55"><title>Tennis-Rouge</title><g id="Calque_2" data-name="Calque 2"><g id="Calque_1-2" data-name="Calque 1"><path id="Tracé_10476" data-name="Tracé 10476" d="M49,24.32a24.5,24.5,0,0,0-49,0A24.33,24.33,0,0,0,16.9,47.45L24.5,55l7.6-7.55A24.35,24.35,0,0,0,49,24.32Z" fill="#cc1d59"/><path d="M36.41,14.82c-.39-2.91-3.08-5.92-7.8-4.53-5.1,1.46-6.69,6.68-6.84,11.06h0c-.07,3.4-1.06,4.87-2.7,7a.53.53,0,0,0-.7.2L12.72,35.7A1,1,0,0,0,13,37.07a1,1,0,0,0,1.32-.25h0l6-7a.34.34,0,0,0,0-.43,27.46,27.46,0,0,1,2.1-2.09c1.56-1.35,3.34-1.36,4.86-1.71C33.75,24.28,37,19.28,36.41,14.82Zm-3.65,5.34c-2.37,2.92-6.32,4.43-8.18,1.88-1.31-1.79-.51-5.46,1.25-7.53s4.81-2.92,6.93-1.34S34.51,18.09,32.76,20.16Z" fill="#fff"/><path d="M13,37.09l0,0,0,0Z" fill="#fff"/><path d="M16.12,26.15a2.42,2.42,0,1,0-1.93-2.82A2.41,2.41,0,0,0,16.12,26.15Z" fill="#fff"/></g></g></svg>