<svg xmlns="http://www.w3.org/2000/svg" width="49" height="55" viewBox="0 0 49 55"><title>Biblio-Gris</title><g id="Calque_2" data-name="Calque 2"><g id="Calque_1-2" data-name="Calque 1"><path id="Tracé_10476" data-name="Tracé 10476" d="M49,24.32a24.5,24.5,0,0,0-49,0A24.33,24.33,0,0,0,16.9,47.45L24.5,55l7.6-7.55A24.35,24.35,0,0,0,49,24.32Z" fill="#999"/><polygon points="36.81 32.93 30.14 13.82 26.43 15.14 32.93 33.75 27.4 33.75 27.4 18.93 22.88 18.93 22.88 33.75 21.64 33.75 21.64 15.13 17.53 15.13 17.53 33.75 16.81 33.75 16.81 9.36 12.19 9.36 12.19 37.35 36.55 37.35 36.55 33.75 34.54 33.75 36.81 32.93" fill="#fff" fill-rule="evenodd"/></g></g></svg>