<svg xmlns="http://www.w3.org/2000/svg" width="49" height="55" viewBox="0 0 49 55"><title>Marché-Vert</title><g data-name="Calque 1"><path data-name="Tracé 10476" d="M49 24.32a24.5 24.5 0 0 0-49 0 24.33 24.33 0 0 0 16.9 23.13L24.5 55l7.6-7.55A24.35 24.35 0 0 0 49 24.32z" fill="#3ECD2E"/><path d="M33.76 21.89L15.18 22l-.06-7a.17.17 0 0 1 .18-.17l18.23-.15a.18.18 0 0 1 .17.18zM22.62 33.8a1.13 1.13 0 1 1 0-2.25h5a1.13 1.13 0 1 1 0 2.25zm0-4.79a1.13 1.13 0 1 1 0-2.25h4.95a1.14 1.14 0 0 1 1.14 1.12A1.13 1.13 0 0 1 27.54 29zm15.17-7.15h-2.27l-.06-7a1.93 1.93 0 0 0-2-1.92L15.28 13a2 2 0 0 0-1.92 2l.06 7.05h-2.18a.92.92 0 0 0-.66.31.88.88 0 0 0-.2.71l1.84 11.83a3.09 3.09 0 0 0 3.11 3l18.58-.15a3.08 3.08 0 0 0 3.05-3l1.66-11.85a.88.88 0 0 0-.88-1z" fill="#fff" fill-rule="evenodd"/></g></svg>