<svg xmlns="http://www.w3.org/2000/svg" width="49" height="55" viewBox="0 0 49 55"><title>Piscine-Vert</title><g data-name="Calque 1"><path data-name="Tracé 10476" d="M49 24.32a24.5 24.5 0 0 0-49 0 24.33 24.33 0 0 0 16.9 23.13L24.5 55l7.6-7.55A24.35 24.35 0 0 0 49 24.32z" fill="#00b67c"/><path d="M12.56 16.65l7.53 1c.27.67 1.59 4 1.84 4.55l-6.55 3.24a12.51 12.51 0 0 1 2.29-.21 12 12 0 0 1 2.95.36 31.78 31.78 0 0 1 5.3 2 27.21 27.21 0 0 0 4.29 1.67c.19.05.39.1.58.13-1.67-3.4-6.14-12.58-7-14.6A2.05 2.05 0 0 0 22 13.36l-8.86-1.14a2.23 2.23 0 1 0-.57 4.43z" fill="#fff" fill-rule="evenodd"/><path d="M8.79 32.9a1.35 1.35 0 0 0 .81.26h.18a1.37 1.37 0 0 0 .94-.57 7.84 7.84 0 0 1 3.9-2.77 9.05 9.05 0 0 1 2.85-.47c3.45 0 6.41 2.07 9.52 3.26a14.89 14.89 0 0 0 5.31 1.1 11.31 11.31 0 0 0 2.47-.27 9.49 9.49 0 0 0 5-2.74 7.35 7.35 0 0 0 .81-1 1.39 1.39 0 0 0-.39-1.92 1.42 1.42 0 0 0-.76-.22 1.37 1.37 0 0 0-1.16.62c-.11.16-.22.31-.35.47a6.68 6.68 0 0 1-3.72 2.11 9.65 9.65 0 0 1-4.44-.14 28.8 28.8 0 0 1-4.46-1.73 31.44 31.44 0 0 0-5.13-2 10.87 10.87 0 0 0-2.68-.33 11.66 11.66 0 0 0-3.73.61 11.09 11.09 0 0 0-2.92 1.46A10.15 10.15 0 0 0 8.47 31a1.74 1.74 0 0 0-.11.18 1.39 1.39 0 0 0 .43 1.76z" fill="#fff" fill-rule="evenodd"/><ellipse cx="34.05" cy="21.28" rx="4.88" ry="4.89" fill="#fff"/></g></svg>