<svg xmlns="http://www.w3.org/2000/svg" width="49" height="55" viewBox="0 0 49 55"><title>Mairie-Vert</title><g data-name="1"><path data-name="Tracé 10476" d="M49 24.32a24.5 24.5 0 0 0-49 0 24.33 24.33 0 0 0 16.9 23.13L24.5 55l7.6-7.55A24.35 24.35 0 0 0 49 24.32z" fill="#00b67c"/><path d="M35.44 10.51c-2.41 1.37-4.84-1.73-7.26-.35a.6.6 0 0 0-.29.44v7.61l-.21-.21L24 14.31a.75.75 0 0 0-1 0l-9.57 9.59a.66.66 0 0 0-.21.51l.07 12.65a.72.72 0 0 0 .72.72h19.06a.72.72 0 0 0 .73-.72l-.07-12.75a.7.7 0 0 0-.14-.51l-4.22-4.25v-5.07c2.11-.37 4 1.87 6.11.67a.65.65 0 0 0 .3-.45v-4.1c0-.15-.19-.18-.34-.09z" fill="#fff" fill-rule="evenodd"/></g></svg>