<svg xmlns="http://www.w3.org/2000/svg" width="49" height="55" viewBox="0 0 49 55"><title>Parc-Gris</title><g data-name="Calque 1"><path data-name="Tracé 10476" d="M49 24.32a24.5 24.5 0 0 0-49 0 24.33 24.33 0 0 0 16.9 23.13L24.5 55l7.6-7.55A24.35 24.35 0 0 0 49 24.32z" fill="#999"/><path d="M34.72 17.11a2.86 2.86 0 0 0 .19-1A3.18 3.18 0 0 0 32.29 13a4.3 4.3 0 0 0-4-2.67 4.44 4.44 0 0 0-2 .48 3.23 3.23 0 0 0-2.19-.85 3.35 3.35 0 0 0-2.49 1.16 6.14 6.14 0 0 0-1.52-.19 6.27 6.27 0 0 0-3.7 11.31A4.12 4.12 0 0 0 20.52 26a4.85 4.85 0 0 0 1-.13A4.88 4.88 0 0 0 23 27v10.24a1.68 1.68 0 0 0 3.36 0v-9.8c1.73 0 2-.6 3-1.58a1.46 1.46 0 0 0 .51.06A2.36 2.36 0 0 0 32 24.53a6 6 0 0 0 3.21-5.23 6.52 6.52 0 0 0-.49-2.19z" fill="#fff" fill-rule="evenodd"/></g></svg>