<svg xmlns="http://www.w3.org/2000/svg" width="49" height="55" viewBox="0 0 49 55"><title>Association-Vert</title><g data-name="2"><path data-name="Tracé 10476" d="M49 24.32a24.5 24.5 0 0 0-49 0 24.33 24.33 0 0 0 16.9 23.13L24.5 55l7.6-7.55A24.35 24.35 0 0 0 49 24.32z" fill="#00b67c"/><path d="M24.58 35.31s-7.52-4.63-7.5-8.39c0-2 1.62-4.52 4.11-4.52a6 6 0 0 1 3.39 1.45A6 6 0 0 1 28 22.4c2.49 0 4.11 2.48 4.11 4.52-.01 3.76-7.53 8.39-7.53 8.39zM34.9 20.06L25 10.27a.74.74 0 0 0-1.05 0l-9.77 9.87c-.14.14-.32.33-.31.53V38.3a.73.73 0 0 0 .74.73h19.73a.74.74 0 0 0 .74-.74V20.56a.71.71 0 0 0-.22-.52z" fill="#fff" fill-rule="evenodd"/></g></svg>