<svg xmlns="http://www.w3.org/2000/svg" width="49" height="55" viewBox="0 0 49 55"><title>Fichier 42</title><g data-name="Calque 1"><path data-name="Tracé 10476" d="M49 24.32a24.5 24.5 0 0 0-49 0 24.33 24.33 0 0 0 16.9 23.13L24.5 55l7.6-7.55A24.35 24.35 0 0 0 49 24.32z" fill="#3ECD2E"/><path d="M32 33.05h-1.5V21.24H32zm-4.52 0H26V21.24h1.5zm-4.51 0h-1.48V21.24H23zm-4.52 0H17V21.24h1.51zm16.55.07v-13.6a.74.74 0 0 0-.22-.52L26 10.26 24.81 9a.75.75 0 0 0-.62 0l-.07.07a.9.9 0 0 0-.2.14l-9.75 9.86a.71.71 0 0 0-.22.52v13.53a.87.87 0 0 0-.51.81v3.33a.84.84 0 0 0 .81.88h20.49a.84.84 0 0 0 .81-.88v-3.33a.87.87 0 0 0-.51-.81z" fill="#fff" fill-rule="evenodd"/></g></svg>