<svg id="Calque_1" xmlns="http://www.w3.org/2000/svg" viewBox="0 0 49 55"><style>.st0{fill:#3ecd2e}.st1{fill:#fff}</style><title>Nerf-Vert</title><g id="Calque_1-2"><path id="Tracé_10476" class="st0" d="M49 24.3C49 10.8 38-.2 24.5-.2S0 10.8 0 24.3c0 10.6 6.8 19.9 16.9 23.1l7.6 7.5 7.6-7.5C42.2 44.2 49 34.9 49 24.3z"/><path class="st1" d="M39.7 27.2c-.1 0-.2.1-.3.4-2.8 6.1-8 9.1-13.4 9.1-10.9.1-13.5-8.9-13.5-9.1l5.6 1c0 .1 2.2 4.9 7.8 4.9 5.9 0 10.1-5.9 10.1-12 0-5.5-2.3-8.7-5.7-11.1l-15.1 7c-.1.1-.1.3 0 .3 8.4 1.9 9.8 8 9.4 11.4-.1.5.3.4.6-.5 1.1-3.4.3-8.3-4.2-11.1l8.4-4.2c1 .8 4.3 3 4.3 8.3 0 5.3-3.1 10.1-7.8 10.1-4.7 0-6.3-4.8-6.3-4.9l-10-2.2c-.2 0-.3.1-.3.3.9 7.6 7 13.9 15.8 13.9 7.3 0 12.3-4 14.4-9.7.4-1.5.4-1.9.2-1.9z" id="Calque_1-2_1_"/></g></svg>