<svg xmlns="http://www.w3.org/2000/svg" width="49" height="55" viewBox="0 0 49 55"><title>Tennis-Vert</title><g data-name="Calque 1"><path data-name="Tracé 10476" d="M49 24.32a24.5 24.5 0 0 0-49 0 24.33 24.33 0 0 0 16.9 23.13L24.5 55l7.6-7.55A24.35 24.35 0 0 0 49 24.32z" fill="#00b67c"/><path d="M36.41 14.82c-.39-2.91-3.08-5.92-7.8-4.53-5.1 1.46-6.69 6.68-6.84 11.06-.07 3.4-1.06 4.87-2.7 7a.53.53 0 0 0-.7.2l-5.65 7.15a1 1 0 0 0 .28 1.37 1 1 0 0 0 1.32-.25l6-7a.34.34 0 0 0 0-.43 27.46 27.46 0 0 1 2.1-2.09c1.56-1.35 3.34-1.36 4.86-1.71 6.47-1.31 9.72-6.31 9.13-10.77zm-3.65 5.34c-2.37 2.92-6.32 4.43-8.18 1.88-1.31-1.79-.51-5.46 1.25-7.53s4.81-2.92 6.93-1.34 1.75 4.92 0 6.99zM13 37.09z" fill="#fff"/><path d="M16.12 26.15a2.42 2.42 0 1 0-1.93-2.82 2.41 2.41 0 0 0 1.93 2.82z" fill="#fff"/></g></svg>