<svg xmlns="http://www.w3.org/2000/svg" width="49" height="55" viewBox="0 0 49 55"><title>Nef-Gris</title><g data-name="Calque 1"><path data-name="Tracé 10476" d="M49 24.32a24.5 24.5 0 0 0-49 0 24.33 24.33 0 0 0 16.9 23.13L24.5 55l7.6-7.55A24.35 24.35 0 0 0 49 24.32z" fill="#999"/><path d="M38.12 23l3.27 3.78s-1.48 9-16.89 11.76c-15.43-2.76-16.89-12-16.89-12L10.87 23c-1.17 3.84 6 9 13.62 9s14.81-5.18 13.63-9zm-14-12.66l-14 7.57s14 2.84 14 12.73c-.02-.01 18.2-14.95.01-20.32z" fill="#fff" fill-rule="evenodd"/></g></svg>